<svg width="18" height="18" viewBox="0 0 18 18" fill="none" xmlns="http://www.w3.org/2000/svg">
<path fill-rule="evenodd" clip-rule="evenodd" d="M7.25567 0C4.97876 0 2.9609 1.65516 2.9609 3.89783C2.9609 6.14049 4.97876 7.79565 7.25567 7.79565C9.5326 7.79565 11.5504 6.14049 11.5504 3.89783C11.5504 1.65516 9.5326 0 7.25567 0ZM4.43367 3.89783C4.43367 2.65678 5.60323 1.48966 7.25567 1.48966C8.90811 1.48966 10.0777 2.65678 10.0777 3.89783C10.0777 5.13887 8.90811 6.30599 7.25567 6.30599C5.60323 6.30599 4.43367 5.13887 4.43367 3.89783ZM15.4845 0.22242C15.0778 0.22242 14.7481 0.55212 14.7481 0.95881V2.00159H13.7052C13.2985 2.00159 12.9688 2.33128 12.9688 2.73797C12.9688 3.14467 13.2985 3.47436 13.7052 3.47436H14.7481V4.51719C14.7481 4.92388 15.0778 5.25357 15.4845 5.25357C15.8912 5.25357 16.2209 4.92388 16.2209 4.51719V3.47436H17.2636C17.6703 3.47436 18 3.14467 18 2.73797C18 2.33128 17.6703 2.00159 17.2636 2.00159H16.2209V0.95881C16.2209 0.55212 15.8912 0.22242 15.4845 0.22242ZM11.8437 10.0376C9.0273 8.27229 5.48402 8.27229 2.66764 10.0376C1.00965 11.0768 6.33416e-06 12.9249 6.33416e-06 14.9148V15.3751C-4.66658e-05 15.5522 -8.76831e-05 15.6989 0.0141263 15.8318C0.135096 16.9632 1.00697 17.8607 2.11628 17.9854C2.24645 18.0001 2.38995 18 2.56222 18H11.9491C12.1214 18 12.2649 18.0001 12.3951 17.9854C13.5044 17.8607 14.3763 16.9632 14.4972 15.8318C14.5115 15.6989 14.5114 15.5522 14.5114 15.3751V14.9148C14.5114 12.9249 13.5017 11.0768 11.8437 10.0376ZM3.45138 11.3407C5.78697 9.8768 8.72439 9.8768 11.06 11.3407C12.2725 12.1007 13.0135 13.4543 13.0135 14.9148V15.3349C13.0135 15.5711 13.0124 15.6271 13.0082 15.6659C12.9629 16.0894 12.6378 16.4197 12.231 16.4655C12.1939 16.4697 12.1401 16.4708 11.9095 16.4708H2.60185C2.37126 16.4708 2.31742 16.4697 2.28033 16.4655C1.87359 16.4197 1.54842 16.0894 1.50314 15.6659C1.49899 15.6271 1.49787 15.5711 1.49787 15.3349V14.9148C1.49787 13.4543 2.23891 12.1007 3.45138 11.3407Z" fill="#898989"/>
</svg>
