<svg width="18" height="18" viewBox="0 0 18 18" fill="none" xmlns="http://www.w3.org/2000/svg">
<path fill-rule="evenodd" clip-rule="evenodd" d="M9.8808 3.68734C9.7063 3.66365 9.5014 3.66373 9.3175 3.66381H7.15256C6.96859 3.66373 6.76368 3.66365 6.58925 3.68734C6.38264 3.7154 6.1114 3.78855 5.88253 4.01975C5.65377 4.25086 5.58149 4.52458 5.55375 4.73297C5.53032 4.90904 5.5304 5.11593 5.53047 5.30184V6.62997C5.5304 6.81588 5.53032 7.02278 5.55375 7.19885C5.58149 7.40723 5.65377 7.68096 5.88253 7.91206C6.1114 8.14326 6.38264 8.21641 6.58925 8.24448C6.76368 8.26817 6.9686 8.26808 7.15257 8.26801H9.3174C9.5014 8.26808 9.7063 8.26817 9.8808 8.24448C10.0874 8.21641 10.3586 8.14326 10.5875 7.91206C10.8163 7.68096 10.8885 7.40723 10.9163 7.19885C10.9397 7.02278 10.9396 6.81589 10.9395 6.62999V5.30185C10.9396 5.11594 10.9397 4.90903 10.9163 4.73297C10.8885 4.52458 10.8163 4.25086 10.5875 4.01975C10.3586 3.78855 10.0874 3.7154 9.8808 3.68734ZM7.02944 5.33619C7.02944 5.27603 7.02945 5.22372 7.02976 5.17698C7.07584 5.17668 7.12739 5.17666 7.18665 5.17666H9.2834C9.3426 5.17666 9.3942 5.17668 9.4403 5.17698C9.4406 5.22372 9.4406 5.27603 9.4406 5.33619V6.59563C9.4406 6.65579 9.4406 6.70809 9.4403 6.75484C9.3942 6.75514 9.3426 6.75515 9.2834 6.75515H7.18665C7.12739 6.75515 7.07584 6.75514 7.02975 6.75484C7.02945 6.70809 7.02944 6.65579 7.02944 6.59563V5.33619ZM13.0801 3.94381C12.6655 3.94381 12.3306 4.28314 12.3306 4.70024C12.3306 5.11733 12.6655 5.45666 13.0801 5.45666H14.8935C15.3081 5.45666 15.6429 5.11733 15.6429 4.70024C15.6429 4.28314 15.3081 3.94381 14.8935 3.94381H13.0801ZM13.0801 6.41167C12.6655 6.41167 12.3306 6.751 12.3306 7.16809C12.3306 7.58519 12.6655 7.92452 13.0801 7.92452H14.8935C15.3081 7.92452 15.6429 7.58519 15.6429 7.16809C15.6429 6.751 15.3081 6.41167 14.8935 6.41167H13.0801ZM6.27994 10.0755C5.86536 10.0755 5.53047 10.4148 5.53047 10.8319C5.53047 11.249 5.86536 11.5883 6.27994 11.5883H14.8935C15.3081 11.5883 15.643 11.249 15.643 10.8319C15.643 10.4148 15.3081 10.0755 14.8935 10.0755H6.27994ZM6.27994 12.8233C5.86536 12.8233 5.53047 13.1627 5.53047 13.5798C5.53047 13.9969 5.86536 14.3362 6.27994 14.3362H14.8935C15.3081 14.3362 15.643 13.9969 15.643 13.5798C15.643 13.1627 15.3081 12.8233 14.8935 12.8233H6.27994ZM11.8652 4.26333e-07H9.3083C8.07244 -1.65737e-05 7.06913 -3.05697e-05 6.27842 0.10736C5.45449 0.21927 4.75017 0.46011 4.18937 1.02663C3.62868 1.59306 3.3904 2.30429 3.27967 3.1363C3.17338 3.93496 3.1734 4.94836 3.17342 6.19696V16.4645C2.30816 16.3318 1.63063 15.6366 1.51584 14.7557C1.50058 14.6387 1.49897 14.4873 1.49897 14.0377V5.86849C1.49897 5.32874 1.84082 4.85016 2.34673 4.6798C2.73972 4.54747 2.95117 4.11896 2.82061 3.72326C2.68994 3.32726 2.26563 3.11228 1.87232 3.24473C0.753816 3.62137 6.06185e-06 4.67847 6.06185e-06 5.86849V14.0955C-5.99381e-05 14.4657 -0.000102939 14.7245 0.0296761 14.953C0.234546 16.5251 1.45927 17.7629 3.0166 17.97C3.06723 17.9767 3.1192 17.982 3.17342 17.986V18H3.92298H3.9246H11.8652C13.101 18 14.1043 18 14.895 17.8926C15.7189 17.7807 16.4233 17.5399 16.984 16.9734C17.5447 16.4069 17.783 15.6957 17.8937 14.8637C18 14.065 18 13.0516 18 11.803V6.19697C18 4.94837 18 3.93496 17.8937 3.1363C17.783 2.30429 17.5447 1.59306 16.984 1.02663C16.4233 0.46011 15.7189 0.21927 14.895 0.10736C14.1043 -3.05697e-05 13.101 -1.65737e-05 11.8652 4.26333e-07ZM6.47833 1.6067C7.15743 1.51446 8.05953 1.51285 9.363 1.51285H11.8104C13.1139 1.51285 14.016 1.51446 14.6951 1.6067C15.3525 1.69599 15.6877 1.85754 15.9236 2.09588C16.1596 2.33432 16.3197 2.67321 16.4081 3.3377C16.4995 4.0239 16.501 4.93539 16.501 6.25214V11.7479C16.501 13.0646 16.4995 13.9761 16.4081 14.6623C16.3197 15.3268 16.1596 15.6657 15.9236 15.9041C15.6877 16.1425 15.3525 16.304 14.6951 16.3933C14.016 16.4855 13.1139 16.4872 11.8104 16.4872H4.67237V6.25214C4.67237 4.93539 4.67396 4.0239 4.76529 3.3377C4.85372 2.67321 5.01376 2.33432 5.24979 2.09588C5.48572 1.85754 5.82091 1.69599 6.47833 1.6067Z" fill="#898989"/>
</svg>
