<svg width="20" height="20" viewBox="0 0 20 20" fill="none" xmlns="http://www.w3.org/2000/svg">
<g clip-path="url(#clip0_2667_105)">
<path d="M14.5007 0H2.1665V20H17.8336V3.33292L14.5007 0Z" fill="#E8E8E8"/>
<path d="M15.173 9.89061C14.9327 9.46229 14.1023 9.32772 13.7213 9.26717C13.4211 9.21941 13.1145 9.20516 12.8108 9.20542C12.5723 9.20384 12.3374 9.21558 12.1054 9.22877C12.02 9.23451 11.9353 9.2419 11.8507 9.24923C11.7641 9.15951 11.6803 9.06683 11.5992 8.97204C11.0834 8.36139 10.6669 7.66889 10.3275 6.94927C10.4176 6.60156 10.4897 6.23868 10.5332 5.86182C10.6127 5.174 10.64 4.39013 10.3823 3.73436C10.2933 3.50803 10.056 3.2325 9.78226 3.3697C9.46754 3.52749 9.37902 3.97454 9.35335 4.29144C9.33271 4.54759 9.34715 4.80439 9.39016 5.05625C9.43396 5.30982 9.50448 5.5506 9.58127 5.79104C9.6529 6.0115 9.73187 6.23024 9.81795 6.44694C9.76333 6.61752 9.70535 6.78514 9.64446 6.94847C9.5025 7.32072 9.349 7.67436 9.20137 8.01455C9.12353 8.18322 9.04734 8.34833 8.9728 8.50975C8.73691 9.02791 8.48083 9.53657 8.19341 10.0283C7.523 10.2648 6.9214 10.5389 6.42177 10.8611C6.15376 11.0343 5.917 11.2223 5.71983 11.4286C5.53368 11.6233 5.34449 11.876 5.32793 12.1558C5.31863 12.3137 5.38117 12.467 5.51052 12.5606C5.68843 12.6936 5.92419 12.6847 6.1306 12.6414C6.80675 12.4996 7.32597 11.9184 7.76813 11.4285C8.0727 11.0911 8.41935 10.6627 8.78196 10.1445C8.78275 10.1433 8.78354 10.1421 8.7844 10.1409C9.40633 9.94813 10.0832 9.78533 10.8016 9.66567C11.1297 9.61124 11.4666 9.56672 11.8102 9.53545C12.0519 9.76178 12.313 9.96785 12.5978 10.14C12.8197 10.2764 13.0556 10.3917 13.3026 10.4776C13.5523 10.5592 13.8036 10.6259 14.063 10.668C14.194 10.6867 14.328 10.6953 14.4649 10.6901C14.7704 10.6786 15.2089 10.5614 15.2376 10.1908C15.2465 10.0773 15.222 9.97782 15.173 9.89061ZM7.85943 10.5707C7.71635 10.7924 7.57835 10.9917 7.44833 11.1671C7.12992 11.6004 6.76625 12.115 6.23971 12.3074C6.1397 12.3439 6.00804 12.3817 5.86925 12.3735C5.74563 12.3662 5.62372 12.3117 5.62933 12.1713C5.6321 12.0978 5.66805 12.0041 5.7232 11.912C5.78356 11.811 5.8583 11.7184 5.93924 11.6332C6.11266 11.451 6.33193 11.2744 6.58418 11.1109C6.97107 10.8599 7.43296 10.634 7.94782 10.4324C7.91821 10.4792 7.88865 10.5258 7.85943 10.5707ZM9.65515 5.01245C9.61544 4.78064 9.60943 4.54561 9.63384 4.31961C9.64598 4.20661 9.669 4.09632 9.70231 3.99295C9.73055 3.90521 9.7915 3.69109 9.88873 3.66358C10.049 3.6182 10.0983 3.96234 10.1164 4.05971C10.2197 4.61355 10.1287 5.22947 10.0048 5.77277C9.98504 5.85918 9.96307 5.94421 9.94058 6.02891C9.90219 5.9233 9.86558 5.81736 9.83187 5.71089C9.75931 5.47836 9.69295 5.24313 9.65515 5.01245ZM10.7557 9.38465C10.1534 9.48228 9.58047 9.61019 9.04193 9.76118C9.10678 9.74304 9.40309 9.18148 9.46919 9.06492C9.78061 8.51641 10.0354 7.94073 10.2184 7.33681C10.5417 7.97609 10.934 8.58765 11.4159 9.132C11.4603 9.18141 11.5054 9.23023 11.5513 9.27845C11.2813 9.30754 11.0155 9.34296 10.7557 9.38465ZM14.8286 10.1561C14.8066 10.2751 14.5523 10.3432 14.4336 10.3619C14.083 10.4171 13.712 10.3729 13.3763 10.2602C13.1461 10.1829 12.9239 10.0776 12.7129 9.95097C12.5031 9.82425 12.3069 9.67517 12.1235 9.51078C12.3496 9.49719 12.5786 9.48828 12.8087 9.49264C13.0388 9.49495 13.2707 9.50656 13.4997 9.53644C13.9292 9.58433 14.4105 9.73176 14.7486 10.0105C14.8151 10.0654 14.8364 10.114 14.8286 10.1561Z" fill="#898989"/>
<path d="M15.0165 1.66649H2.1665V0H14.5007L15.0165 1.66649Z" fill="#898989"/>
<path d="M8.36717 16.0066C8.36717 16.3603 8.26295 16.6334 8.05436 16.826C7.84578 17.0187 7.54959 17.115 7.16567 17.115H6.92536V18.165H6.07031V15H7.16574C7.56549 15 7.8657 15.0873 8.0663 15.262C8.2669 15.4366 8.36717 15.6848 8.36717 16.0066ZM6.92543 16.4179H7.0813C7.20974 16.4179 7.31185 16.3819 7.38765 16.3097C7.46344 16.2375 7.50131 16.1379 7.50131 16.0109C7.50131 15.7973 7.38296 15.6905 7.14628 15.6905H6.92543V16.4179Z" fill="#898989"/>
<path d="M11.5582 16.5154C11.5582 17.0436 11.4127 17.4506 11.1219 17.7363C10.8312 18.0221 10.4223 18.165 9.89557 18.165H8.87158V15H9.96701C10.475 15 10.8672 15.1299 11.1436 15.3897C11.4199 15.6494 11.5582 16.0247 11.5582 16.5154ZM10.6706 16.5457C10.6706 16.2556 10.6132 16.0406 10.4985 15.9006C10.3838 15.7606 10.2095 15.6906 9.97565 15.6906H9.72676V17.4636H9.91727C10.1771 17.4636 10.3676 17.3882 10.4888 17.2373C10.61 17.0866 10.6706 16.856 10.6706 16.5457Z" fill="#898989"/>
<path d="M12.9675 18.0661H12.1254V14.9011H13.9958V15.5874H12.9675V16.1913H13.9157V16.8776H12.9675V18.0661Z" fill="#898989"/>
<path d="M14.5007 3.33292H17.8336L14.5007 0V3.33292Z" fill="#D1D3D3"/>
</g>
<defs>
<clipPath id="clip0_2667_105">
<rect width="20" height="20" fill="white"/>
</clipPath>
</defs>
</svg>
