<svg xmlns="http://www.w3.org/2000/svg" viewBox="0 0 500 500"><g id="freepik--Hand--inject-238"><g id="freepik--hand--inject-238"><path d="M292.77,263.86c0-15.24-5.35-26-14-30.94s-20.6-4.27-33.8,3.35c-26.4,15.24-47.8,52.31-47.8,82.79,0,15.25,5.35,26,14,30.95s20.6,4.27,33.8-3.35C271.37,331.42,292.77,294.35,292.77,263.86Z" style="fill:#263238"></path><path d="M308.83,279.39c0-13.53-4.75-23-12.43-27.47s-18.28-3.79-30,3C243,268.43,224,301.33,224,328.39c0,13.53,4.75,23,12.43,27.47s18.28,3.79,30-3C289.84,339.35,308.83,306.45,308.83,279.39Z" style="fill:#e0e0e0"></path><path d="M382.59,425c10.21,6.48,16.66,10.63,25.12,15.76,24,14.56,31.84,18.91,40.38,21.89,7.51,2.61,15.73,3.65,21.1-.4s2.84-14.43-3.27-19.11-10.53-8.36-21.59-16.79c-10.23-7.8-23.07-17.81-37.4-29.1,2.87-4.86.17-9.94-1.77-12.13,6.82-3.95,7.73-11.13,6.2-19.72,12.05-7.59-.17-41.34-11.48-63.72-10.61-21-17.88-20.11-42.89-25.43-12.13-2.57-33.9-8.18-45-12.13-10.48-3.71-20.83-10.45-34.34-18.77-19.92-12.27-65.75-39.22-72.46-43.68L145.5,300.22s43.86,24.33,62.1,34.86,22.25,13,34.07,19.1c15.12,7.84,25.07,13,35,26.66,2.88,4,10.09,13.58,12.85,17.61,6.64,9.71,12.35,17.54,19.25,25.09,8.92,9.76,21.29,15.46,32.39,22.66,10,6.46,19,14.22,28.77,21a10.87,10.87,0,0,0,4.56,2.2c4.13.58,7.5-3.49,8.68-7.49,2.26-7.63-.81-16.43-5.32-22.71A80.9,80.9,0,0,0,367,427.66l-5.34-5-9.89-9.21c-.88-.82-1.83-2-1.31-3.08s2.46-1.88,5.2-.87C364.7,412.85,372.37,418.49,382.59,425Z" style="fill:#ffa8a7"></path><path d="M354.35,455.55c1.78-8.19,10.56-12.53,10.56-12.53s7.9,7.42,11.4,12.65c4.28,6.39,2.11,16.14-3.53,14.15C367.63,467.35,362.62,464.42,354.35,455.55Z" style="fill:#ffa8a7"></path><path d="M354.35,455.55c1.78-8.19,10.56-12.53,10.56-12.53s7.9,7.42,11.4,12.65c4.28,6.39,2.11,16.14-3.53,14.15C367.63,467.35,362.62,464.42,354.35,455.55Z" style="fill:#fff;opacity:0.30000000000000004"></path><path d="M364.91,443s-8.78,4.34-10.56,12.53c.5.54,1,1.07,1.51,1.58a12.84,12.84,0,0,0,2.54-2,36.27,36.27,0,0,0,7.32-11.33Z" style="fill:#fff;opacity:0.30000000000000004"></path><path d="M352.61,446.48a21,21,0,0,0,2.56-3.3,15.75,15.75,0,0,0,2-3.9c.07-.27-.36-.75-.6-.46a41.55,41.55,0,0,0-2.37,3.61,23.19,23.19,0,0,1-2.58,3.27,21.24,21.24,0,0,1-5.2,3.94l1.11.8A22.1,22.1,0,0,0,352.61,446.48Z" style="fill:#f28f8f"></path><path d="M344.33,448.18c.85-1,1.72-2,2.65-3,1.62-1.67,3.35-3.22,5-4.81.23-.22-.16-.68-.42-.51a35.79,35.79,0,0,0-5.74,4.68c-.92.91-1.83,1.87-2.69,2.86Z" style="fill:#f28f8f"></path><path d="M408.18,392.58c-6.67-2.8-21.14-16.55-29.12-26.25,2.44,5.44,13.27,21.71,27.87,30.88A9.36,9.36,0,0,0,408.18,392.58Z" style="fill:#f28f8f"></path><path d="M405.2,385.05c-5.83-9.64-11.19-20.26-11.72-31.71,3.63,9.31,9.74,22,11.72,31.71Z" style="fill:#f28f8f"></path><path d="M411.47,365.36c-1.91-4.39-3.31-8.77-4.82-13.28a47.79,47.79,0,0,1-2.62-14,69.86,69.86,0,0,1,2.8,6.54c2.54,6.63,4.87,13.49,4.64,20.73Z" style="fill:#f28f8f"></path><path d="M387.86,305.34c-.47-2.29-1.35-4.47-3.45-5.7a14.11,14.11,0,0,0-8.24-2.08,1.31,1.31,0,0,0-1.18.57c-.29.65.47,1.24,1.11,1.56,3.16,1.56,6.21,3.59,8.15,6.53a37.07,37.07,0,0,0,2.74,4.14,1,1,0,0,0,1,.4c.52-.17.56-.88.49-1.42C388.28,308.08,388.14,306.69,387.86,305.34Z" style="fill:#f28f8f"></path><path d="M380.08,326.64c-.48-2.3-1.35-4.47-3.45-5.71a14.15,14.15,0,0,0-8.24-2.08c-.46,0-1,.15-1.18.57-.29.65.47,1.25,1.11,1.56,3.16,1.56,6.21,3.59,8.15,6.53a36.18,36.18,0,0,0,2.74,4.14,1,1,0,0,0,1,.4c.52-.17.56-.88.48-1.42C380.5,329.37,380.36,328,380.08,326.64Z" style="fill:#f28f8f"></path><path d="M371.18,352.69c-.48-2.3-1.35-4.47-3.45-5.7a14.08,14.08,0,0,0-8.24-2.09c-.46,0-1,.16-1.18.58-.29.64.47,1.24,1.11,1.55,3.16,1.56,6.21,3.59,8.15,6.53a37.2,37.2,0,0,0,2.74,4.15,1,1,0,0,0,1,.39c.52-.17.56-.88.48-1.42C371.6,355.42,371.46,354,371.18,352.69Z" style="fill:#f28f8f"></path><path d="M457.17,436.53c-4.33.57-10,3.52-13.86,8.88a67.59,67.59,0,0,0,15.93,11.65c7.55,3.6,13.21,2.66,15.49.15C478,453.64,470.62,445.2,457.17,436.53Z" style="fill:#ffa8a7"></path><path d="M457.17,436.53c-4.33.57-10,3.52-13.86,8.88a67.59,67.59,0,0,0,15.93,11.65c7.55,3.6,13.21,2.66,15.49.15C478,453.64,470.62,445.2,457.17,436.53Z" style="fill:#fff;opacity:0.30000000000000004"></path><path d="M457.17,436.53c-4.33.57-10,3.52-13.86,8.88l.73.7c7.67-1.39,12.9-6.81,14.5-8.68Z" style="fill:#fff;opacity:0.30000000000000004"></path><path d="M404.19,414.71a42.53,42.53,0,0,1,7.84-4.93,32.3,32.3,0,0,1,4.18-1.57c.69-.2,1.38-.38,2.08-.54a15,15,0,0,0,1.47-.36L418.09,406l-.84.19c-.8.19-1.59.44-2.38.71a28.13,28.13,0,0,0-4.11,1.77,24.28,24.28,0,0,0-7,5.32C403.52,414.27,403.88,415,404.19,414.71Z" style="fill:#f28f8f"></path><path d="M447.39,428.85l-.92.13a26.53,26.53,0,0,0-4.89,1.31,17.6,17.6,0,0,0-4.35,2.35,7.76,7.76,0,0,0-2.81,3.53c0,.08,0,.36.14.28a12.21,12.21,0,0,0,1.79-1.33c.59-.45,1.21-.87,1.82-1.29a17.18,17.18,0,0,1,3.91-1.94,26.39,26.39,0,0,1,4.4-1.07c.72-.11,1.44-.21,2.17-.29l.82-.07Z" style="fill:#f28f8f"></path><path d="M419.48,413.48a7.34,7.34,0,0,0,2.57-2c.3-.47-.27-1.05-.77-.87a20.86,20.86,0,0,0-2.85,1.58,12.71,12.71,0,0,1-2.48,1.09,20.84,20.84,0,0,1-2.49.55c-1.16.19-2.34.35-3.51.51-.59.08-.24.94.21,1a17,17,0,0,0,6.7-.64A13.06,13.06,0,0,0,419.48,413.48Z" style="fill:#f28f8f"></path><path d="M349.81,411.29l.52.08a1.56,1.56,0,0,1,.08-1.06c.59-1.21,2.48-1.87,5.21-.85a60.79,60.79,0,0,1,6.55,2.92c-2.89-1.7-5.95-3.05-9-4.54-4.18-2.07-8.26-4.32-12.34-6.57a175.81,175.81,0,0,1-21.51-14.11c-.59-.46-.67.65-.3,1,5.67,5,11.46,10.34,18,14.15a52.77,52.77,0,0,1,5.52,3.6.73.73,0,0,1,.34.42.51.51,0,0,1-.3.51,1.54,1.54,0,0,1-.61.11,23.19,23.19,0,0,1-5.54-.82l-2-.47a.58.58,0,0,0,.07.66,1.6,1.6,0,0,0,.57.42,38.73,38.73,0,0,0,7.35,2.62C344.87,410,347.29,410.82,349.81,411.29Z" style="fill:#f28f8f"></path><path d="M296.37,251.89c-7.68-4.4-18.26-3.75-30,3C243,268.43,224,301.33,224,328.39c0,13.53,4.75,23,12.43,27.47l-30.85-16.05c-8.57-5.64-13-18-11.05-34.83,3.47-29.62,25.52-61.92,49.24-72.13,11.42-4.92,18.55-4.38,27.77,2Z" style="fill:#f5f5f5"></path><path d="M204.33,317.26c-.52,4.47,1.59,10,4.72,12.32s6.09.6,6.61-3.88-1.58-10-4.71-12.32S204.86,312.78,204.33,317.26Z" style="fill:#e0e0e0"></path><path d="M207.73,316.2a2.36,2.36,0,0,0,.77,2c.5.38,1,.1,1.07-.63a2.37,2.37,0,0,0-.77-2C208.3,315.19,207.81,315.47,207.73,316.2Z" style="fill:#f5f5f5"></path><path d="M211.8,319.72a2.38,2.38,0,0,0,.76,2c.51.38,1,.1,1.08-.63a2.37,2.37,0,0,0-.77-2C212.36,318.71,211.88,319,211.8,319.72Z" style="fill:#f5f5f5"></path><path d="M206.12,321.66a2.38,2.38,0,0,0,.77,2c.51.38,1,.1,1.07-.63a2.36,2.36,0,0,0-.76-2C206.69,320.65,206.21,320.93,206.12,321.66Z" style="fill:#f5f5f5"></path><path d="M210.45,325.75a2.34,2.34,0,0,0,.76,2c.51.38,1,.1,1.08-.63a2.4,2.4,0,0,0-.77-2C211,324.74,210.53,325,210.45,325.75Z" style="fill:#f5f5f5"></path><path d="M278.63,232.83c-8.64-4.9-20.53-4.15-33.66,3.43-26.39,15.25-47.8,52.33-47.8,82.8,0,15,5.2,25.67,13.65,30.75l-166-95.95c-8.65-5-14-15.7-14-30.94,0-30.48,21.41-67.55,47.81-82.79,13.19-7.62,25.15-8.34,33.8-3.35Z" style="fill:#455a64"></path></g></g><g id="freepik--Arrows--inject-238"><g id="freepik--Arrow--inject-238"><polygon id="freepik--arrow--inject-238" points="62.46 307.44 233.22 406.08 250.07 396.35 255.68 432.01 193.92 428.77 210.76 419.04 40 320.41 62.46 307.44" style="fill:#0E6D28"></polygon><polygon id="freepik--arrow--inject-238" points="62.46 307.44 233.22 406.08 250.07 396.35 255.68 432.01 193.92 428.77 210.76 419.04 40 320.41 62.46 307.44" style="fill:#fff;opacity:0.4"></polygon></g><polygon id="freepik--arrow--inject-238" points="74.61 384.58 135 419.42 149.34 411.14 154.12 441.49 101.56 438.73 115.89 430.45 55.5 395.62 74.61 384.58" style="fill:#0E6D28"></polygon><g id="freepik--arrow--inject-238"><polygon id="freepik--arrow--inject-238" points="398.58 241.65 451.93 272.42 464.59 265.11 468.81 291.92 422.38 289.48 435.04 282.17 381.7 251.4 398.58 241.65" style="fill:#0E6D28"></polygon><polygon id="freepik--arrow--inject-238" points="398.58 241.65 451.93 272.42 464.59 265.11 468.81 291.92 422.38 289.48 435.04 282.17 381.7 251.4 398.58 241.65" style="fill:#fff;opacity:0.7000000000000001"></polygon></g></g><g id="freepik--Clouds--inject-238"><path id="freepik--Cloud--inject-238" d="M288.55,75.65c-2.61-.39-4.35-1.23-4.69-2.61a3.54,3.54,0,0,1,2.16-3.7,11.61,11.61,0,0,1,5.62-.69c-.24-2.39,2-5.22,4.13-6.42s6.13-1.49,8.35.35c.64-4.29,3.4-6.39,7.72-7.9a11.32,11.32,0,0,1,11.07,2.13c2.5-4.68,10-7.49,17.63-4.42a13.31,13.31,0,0,1,6.91,6.46,15.1,15.1,0,0,1,1.17,5.28,6.72,6.72,0,0,1,7.1-.34,5.51,5.51,0,0,1,2.58,5,14.16,14.16,0,0,1,4.6,1.06c1.66.7,3.39,2.26,2.79,3.9-.46,1.24-2,1.73-3.36,1.92a20.44,20.44,0,0,1-8.09-.5,14.52,14.52,0,0,1-16.51-.4,26.69,26.69,0,0,1-3.41,2.2,13.26,13.26,0,0,1-4,1.06c-2.31.25-5.57-.18-7.38-1.7a1.47,1.47,0,0,0-.86-.48,1.52,1.52,0,0,0-.73.25,10.71,10.71,0,0,1-11.3-.8,10.74,10.74,0,0,1-14.95-.6A11.87,11.87,0,0,1,288.55,75.65Z" style="fill:#ebebeb"></path><path id="freepik--cloud--inject-238" d="M467.77,119.93c2.39-.36,4-1.13,4.32-2.4a3.27,3.27,0,0,0-2-3.41,10.78,10.78,0,0,0-5.17-.63c.22-2.2-1.81-4.8-3.81-5.91s-5.63-1.36-7.68.32c-.59-4-3.13-5.88-7.1-7.26a10.4,10.4,0,0,0-10.19,2c-2.31-4.31-9.17-6.89-16.22-4.07a12.17,12.17,0,0,0-6.36,6,13.57,13.57,0,0,0-1.08,4.85A6.16,6.16,0,0,0,406,109a5.06,5.06,0,0,0-2.38,4.56,13,13,0,0,0-4.23,1c-1.53.64-3.12,2.08-2.56,3.59.42,1.14,1.84,1.59,3.09,1.76a18.68,18.68,0,0,0,7.44-.46,13.34,13.34,0,0,0,15.19-.37,24.56,24.56,0,0,0,3.14,2,12.41,12.41,0,0,0,3.65,1c2.13.23,5.13-.17,6.79-1.57a1.37,1.37,0,0,1,.79-.44,1.42,1.42,0,0,1,.68.23,9.87,9.87,0,0,0,10.39-.73,9.91,9.91,0,0,0,13.76-.56A10.9,10.9,0,0,0,467.77,119.93Z" style="fill:#ebebeb"></path></g><g id="freepik--Shadows--inject-238"><path id="freepik--Shadow--inject-238" d="M296.86,290.92a73.31,73.31,0,0,1,15.67,7.76c5.5,3.59,10.52,7.94,16.37,10.92a49.39,49.39,0,0,0,24.84,4.85c4.83-.24,10.08-1.28,13.15-5a5.48,5.48,0,0,0,1.43-3.35c0-1.82-1.26-3.37-2.58-4.62-7.05-6.66-16.86-9.38-26.32-11.51s-15.13-4.8-24.43-9.61c-4-2.06-7.9-4.28-11.9-6.22l-.1-.05a64.68,64.68,0,0,0-6.09-2.83,47.06,47.06,0,0,0-10.53-2.68,21.52,21.52,0,0,0-10.7,1.28,4.71,4.71,0,0,0-2.25,1.6,3.86,3.86,0,0,0-.54,2.28,8.15,8.15,0,0,0,1.67,4.46,17.44,17.44,0,0,0,3.44,3.37C283.53,285.89,290.28,288.6,296.86,290.92Z" style="opacity:0.15"></path><path id="freepik--shadow--inject-238" d="M186.14,270a72.81,72.81,0,0,1,15.67,7.75c5.5,3.6,10.52,7.95,16.37,10.93A49.39,49.39,0,0,0,243,293.54c4.83-.24,10.08-1.29,13.15-5a5.52,5.52,0,0,0,1.43-3.35c0-1.82-1.26-3.38-2.58-4.63C248,273.9,238.16,271.17,228.7,269s-15.13-4.79-24.43-9.61c-4-2.06-7.9-4.27-11.9-6.22l-.1,0a62.25,62.25,0,0,0-6.09-2.83,47.08,47.08,0,0,0-10.53-2.69,21.67,21.67,0,0,0-10.71,1.28,4.75,4.75,0,0,0-2.24,1.61,3.82,3.82,0,0,0-.54,2.27,8.12,8.12,0,0,0,1.67,4.46,17.44,17.44,0,0,0,3.44,3.37C172.81,265,179.56,267.68,186.14,270Z" style="opacity:0.15"></path><path id="freepik--shadow--inject-238" d="M96.42,187.21a72.26,72.26,0,0,1,15.46,7.65c5.42,3.55,10.38,7.84,16.14,10.78a48.84,48.84,0,0,0,24.5,4.78c4.77-.23,9.94-1.26,13-4.94a5.4,5.4,0,0,0,1.41-3.31c0-1.79-1.24-3.32-2.55-4.55-6.94-6.57-16.62-9.26-25.95-11.36s-14.92-4.73-24.09-9.48c-3.93-2-7.79-4.21-11.75-6.13l-.09,0a61.92,61.92,0,0,0-6-2.8,46.77,46.77,0,0,0-10.39-2.65,21.38,21.38,0,0,0-10.55,1.27A4.69,4.69,0,0,0,73.3,168a4,4,0,0,0-.53,2.24,8.14,8.14,0,0,0,1.65,4.4,17,17,0,0,0,3.4,3.33C83.27,182.25,89.94,184.92,96.42,187.21Z" style="opacity:0.15"></path></g><g id="freepik--character-3--inject-238"><g id="freepik--Character--inject-238"><g id="freepik--Bottom--inject-238"><path d="M88.42,143.17c-1.57-.32-3.28,1.08-4.32,3.81s.13,5.15-.5,8.63c-.53,2.89-2,5.84-1.36,8.85a8.66,8.66,0,0,0,4.43,6.39c2.57,1.51,6,1.26,6.48-.62S88.42,143.17,88.42,143.17Z" style="fill:#263238"></path><path d="M83.11,162.66a5.63,5.63,0,0,1,0-1.69c.26-1.76.81-3.48,1.08-5.24a41.67,41.67,0,0,0,.22-4.87,11.61,11.61,0,0,1,1-4.75A4.93,4.93,0,0,1,89,143.28a7.44,7.44,0,0,1,2.25.25,23.56,23.56,0,0,0,5.46.35,13.72,13.72,0,0,0,4.32-1.13c1.59-.63,4.86-2.44,4.86-2.44l-.4,11.22s-3,.5-4.41.84-5.08,1.89-6.22,3-1.46,3.46-1.67,5.09a17,17,0,0,0-.2,2.47c0,1.67.51,3.34.2,5a2.4,2.4,0,0,1-.48,1.12,2.46,2.46,0,0,1-1.51.75,6.73,6.73,0,0,1-5.43-1.74A8.22,8.22,0,0,1,83.11,162.66Z" style="fill:#c8856a"></path><path d="M83.59,158.61c.8,1.35,3.43,4.33,7,4.31a2.55,2.55,0,0,0,2.66-2,33.75,33.75,0,0,0,.37,4.57c.34,1.87.57,5-1.55,5.5s-5.73-.87-7.56-3.58S82.33,162.59,83.59,158.61Z" style="fill:#37474f"></path><path d="M93.41,143.67c-.74,3-6.25,3.89-9,8.7-.21-3,.06-5.57,1.55-7.43a4.47,4.47,0,0,1,4.4-1.85C92.35,143.46,93.41,143.67,93.41,143.67Z" style="fill:#37474f"></path><path d="M142.52,107.85s1.19,18.84-2.41,31.51c-2.24,7.89-11.11,8.64-13,9-8.41,1.81-24,3.69-24,3.69s-4.11-4.89-2-9.52c7-3.59,15-9.09,21.14-8.88L133.45,107Z" style="fill:#37474f"></path><path d="M137,123.62s3.58-2.42,4-8.39l-12.49,3.35h0l-6.32,15.12h0a6.62,6.62,0,0,0-.77,0h-.2l-.78.07h0l-.84.13-.16,0-.84.18a27.75,27.75,0,0,0-4.56,1.61l7.81,13.66h0l1.29-.23.15,0,1.27-.24h0l1.09-.22.27-.05,1.07-.22h0c1.9-.41,10.77-1.16,13-9,.25-.89.48-1.81.69-2.75Z" style="fill:#263238"></path><path d="M148.24,187.52c-.74,0-.83-1-1.28-3.35s-1.59-12.48-1.59-12.48l-12.74,4.25s4.09,9,5,11.46c1,2.72,2.47,5.84,2.67,7.94s.22,7.95,2.74,9.06,4.91,0,6.61-1.12,3.72-5,5.62-7,3.48-3,4.95-5.08,1.46-7.17-.46-8.29-4.7,0-6.34,1S149.62,187.46,148.24,187.52Z" style="fill:#c8856a"></path><path d="M141.14,202.72a24.22,24.22,0,0,1-1-6.32c0-.53-.07-1.05-.08-1.58a.7.7,0,0,1,0-.29.54.54,0,0,1,.18-.15,4.92,4.92,0,0,1,4-.49c1,.32,2.55,1.2,2.88,2.39s-1.35,2.05-2.09,2.76Z" style="fill:#455a64"></path><path d="M160.05,182.69c-1.11-1.14-2.92-1.17-5.34,0a14,14,0,0,0-4.31,3.08s-1.31,2.35.57,4S160.05,182.69,160.05,182.69Z" style="fill:#455a64"></path><path d="M161.74,184.89a2.53,2.53,0,0,0-.88-1.7c-.16-.11-.7-.42-.81-.5-1.39-1-4,1-6.13,2.94-2.52,2.26-4.9,6.87-7,10s-4.58,4.26-5.43,5.64a2.35,2.35,0,0,0,.18,2.83c.13.15.59.61.68.71a3.57,3.57,0,0,0,3.2.72c2.79-.48,4.81-1.35,7.17-4.67s3.61-5.05,6.34-7.16S162.27,187.63,161.74,184.89Z" style="fill:#37474f"></path><path d="M161.74,184.89c-.73-3.84-4.2-1.28-7,1.24-2.52,2.26-4.91,6.87-7,10s-4.65,4.23-5.44,5.64c-1.43,2.56.46,4.24,3.26,3.76s4.81-1.35,7.17-4.67,3.61-5.05,6.34-7.16S162.27,187.63,161.74,184.89Z" style="fill:#263238"></path><path d="M115.92,102.8c-4.4,5.07-6.41,9.44-6.61,13.89a24.6,24.6,0,0,0,3.26,12.62c3.65,6.81,6.59,10.87,14.68,26.32a32.29,32.29,0,0,0,2.62,13.42c3.15,8.09,6.91,16.78,6.91,16.78s2.81-5.09,10-4.34c-.38-4-2.76-23-3.92-28.56-1.45-7-7.67-29.95-7.67-29.95a18.61,18.61,0,0,0,7.36-15.13Z" style="fill:#37474f"></path></g><g id="freepik--Top--inject-238"><path d="M146,48.55c-2.76-4.16-7.32-6.77-12.38-6.19-7.18.82-12,5.32-15.12,11.65a27.34,27.34,0,0,1-2.62,4.78c-3.16,4.1-9.15,5.24-14.11,3.76a10.84,10.84,0,0,0,4.91,3.16,15.89,15.89,0,0,1-6.32-1.51,19.39,19.39,0,0,0,9,11.45c4.54,2.65,10,3.26,15.11,3.61,4.75.32,10.24-2.16,12.8-6.19a33.11,33.11,0,0,0,2.56-5.77,27.93,27.93,0,0,1,4.58-8.24,4.2,4.2,0,0,0,.68-4.88C146.84,53,147,50.34,146,48.55Z" style="fill:#263238"></path><path d="M182.23,82.79A1.32,1.32,0,0,1,182,82a4,4,0,0,1,.2-.81,2.41,2.41,0,0,0-.9-2.42c.14-.86.22-1.29.37-2.14a.57.57,0,0,0-.06-.4.3.3,0,0,0-.23-.11,1.62,1.62,0,0,0-1.16.31,4.28,4.28,0,0,0-1.41,1.76A42.51,42.51,0,0,1,176.3,82c-.25.31-1.79,2.53-2.19,1.22l-3.23,0a12.5,12.5,0,0,0-1.39,3,7.23,7.23,0,0,1-.39.93,6.57,6.57,0,0,1-2.73,2.63c-1.81,1-9.27,5.23-9.27,5.23s-.87-1.47-4.32-9.12c-2.46-5.43-6-12.75-11.21-12.75,0,0-.42,9-.63,15.39,2.74,4.79,7.12,12.53,9.35,15.43,2.62,3.4,4.48,4.71,7.27,3.31,4.88-2.45,9.1-7.14,12.11-9.79a36.4,36.4,0,0,1,5.67-4.17,23.94,23.94,0,0,0,3.5-2.4c.95-.82,3-3.17,3.34-4.33.12-.41,0-.77.13-1.16s.39-.7.48-1.1C182.93,83.69,182.63,83.39,182.23,82.79Z" style="fill:#c8856a"></path><path d="M157.1,95a10.27,10.27,0,0,0-3.81,4.73,6.66,6.66,0,0,1,1.14-3.56,5.51,5.51,0,0,1,2.21-2Z" style="fill:#af6152"></path><path d="M155.57,90.94c-1.95-4-5.11-10.42-6.6-12.89-2.25-3.72-3.56-4.41-7.39-5.15l-.64,17.57s2.07,3.21,4.34,6.64A29.07,29.07,0,0,0,155.57,90.94Z" style="fill:#e0e0e0"></path><path d="M175,87.09a5.78,5.78,0,0,0,.18-1,2.22,2.22,0,0,0,0-1c0-.09-.21-.22-.27-.07a4.77,4.77,0,0,0-.15.92,8.38,8.38,0,0,1-.18.87,6.18,6.18,0,0,1-.7,1.63,4.85,4.85,0,0,1-1.13,1.26,10.36,10.36,0,0,1-1.34.84s-.06.15,0,.15a4,4,0,0,0,2.85-1.91A5.46,5.46,0,0,0,175,87.09Z" style="fill:#af6152"></path><path d="M174.11,83.2a1.36,1.36,0,0,1,.07-.77,6.94,6.94,0,0,0,.25-2.36,2.26,2.26,0,0,0-.21-.93c-.17-.34-.67-.78-1.07-.53s-.52,1.07-.68,1.42a27.88,27.88,0,0,1-1.59,3.19" style="fill:#c8856a"></path><path d="M116.84,98c.14,1.58.4,3.23-.92,4.83,1.1,4.31,10.48,6.81,16.65,6.89,8.47.1,10-1.84,10-1.84l.51-5.37Z" style="fill:#c8856a"></path><path d="M149.38,86.87c-2.23-7.46-7.8-14-7.8-14-1.3-.24-10.77-1.49-10.77-1.49l-9.54.64c-1.79,1.07-3.19,2.76-4.67,5.89-.63,1.34-1.92,6.43-1.59,8.58a98.13,98.13,0,0,1,1.48,11.21c.15,3-1.91,4.06-1.11,5.7,4.58,7.83,23.32,9.66,27.12,5.1,1.34-1.91,1.62-5.74,2.34-10.76C150.33,96.25,150.47,90.52,149.38,86.87Z" style="fill:#f0f0f0"></path><path d="M135.83,97.07a10,10,0,0,1-8.81,0c-4.47-2.29-4.75-6.54-4.2-8.13,0,0-2.59,6.7,3,9.62C132.75,102.21,135.83,97.07,135.83,97.07Z" style="fill:#e0e0e0"></path><g id="freepik--Head--inject-238"><path d="M127.33,69.59c0-1,0-5.93,0-5.93,0,.39-2.28,1.42-3.94-.62a4.1,4.1,0,0,1-.27-5.42c1.15-1.49,3.65-1.36,4.6,1.12.75,0,2-.09,1.67-4,.14-4.69,4.78-8.45,8.53-5.11,1.56-2.59,4.7-1.48,5.8,1.11.61,1.61.81,2.16.42,5.18a19.24,19.24,0,0,1,.41,3.88c-.27,5.62-1.79,7.26-3.47,8.35a6,6,0,0,1-4.2.75v1.36h0c0,.87-.08,1.57.73,1.89a11.93,11.93,0,0,0,1.81.41s3.94,6-3.75,6.83c-7.41.77-10.61-7.6-10.61-7.6a4.08,4.08,0,0,0,1.5-.25C127.08,71.19,127.3,70.63,127.33,69.59Z" style="fill:#c8856a"></path><path d="M134.85,62.2l2.9,1a1.5,1.5,0,0,1-1.91,1A1.61,1.61,0,0,1,134.85,62.2Z" style="fill:#af6152"></path><path d="M135,62.88a1.68,1.68,0,0,1,1.66,1.34,1.46,1.46,0,0,1-.85,0,1.58,1.58,0,0,1-1-1.29Z" style="fill:#f28f8f"></path><path d="M143.21,54.12,141.15,53a1.14,1.14,0,0,1,1.57-.49A1.23,1.23,0,0,1,143.21,54.12Z" style="fill:#263238"></path><path d="M132.69,54.24,134.75,53a1.14,1.14,0,0,0-1.6-.45A1.26,1.26,0,0,0,132.69,54.24Z" style="fill:#263238"></path><path d="M140.82,56.49a1,1,0,0,0,.89,1.09,1,1,0,0,0,1.06-.85,1,1,0,0,0-.88-1.09A1,1,0,0,0,140.82,56.49Z" style="fill:#263238"></path><path d="M133.72,56.54a1,1,0,0,0,.88,1.08.94.94,0,0,0,1.07-.84,1,1,0,0,0-.89-1.09A1,1,0,0,0,133.72,56.54Z" style="fill:#263238"></path><polygon points="141.42 59.72 138.29 61.14 137.77 55.16 141.42 59.72" style="fill:#af6152"></polygon><path d="M136.87,68.91c-3.72-.44-7.28-1.53-8.15-3.82a3.84,3.84,0,0,0,2.07,3.22,13.53,13.53,0,0,0,6.07,1.7Z" style="fill:#af6152"></path></g><g id="freepik--Arm--inject-238"><path d="M107.59,118.92a10.66,10.66,0,0,1-1.56-3c0-.86,1.65,1,2.31,1.35a2.28,2.28,0,0,0,1.73.27c.38-.06.93-.55.82-.93,0-.08-.09-.12-.15-.17a21.41,21.41,0,0,1-2.47-2.8,25.47,25.47,0,0,0-2.38-2.79,5.68,5.68,0,0,1-2.09-3.18c-.73-5.1-.71-7.83-1.13-12.82,4-2.29,10-5.82,11.73-6.82a12.27,12.27,0,0,0,5.27-5.29c1.41-3,2.3-8.48,1.55-10.27-7.51.5-9.47,2.31-13.34,5.06-2.19,1.55-3.61,2.53-7.07,5.24-1.74,1.35-3.47,2.4-6.59,5.12a4.91,4.91,0,0,0-1.87,5.2,80.07,80.07,0,0,0,1.91,8.29c.62,2.17,3,11.43,3.19,12.73a24.23,24.23,0,0,0,1.09,4.11,14.22,14.22,0,0,0,3,4.42c.32.23.68.25,1,.49s.49.58.83.79c.5.33.87.16,1.54,0a1.25,1.25,0,0,1,.79,0,4.05,4.05,0,0,1,.66.45,2.31,2.31,0,0,0,2.46,0l1.8,1a.53.53,0,0,0,.37.08.24.24,0,0,0,.17-.17,1.55,1.55,0,0,0,.11-1.14,4,4,0,0,0-1.11-1.83A42,42,0,0,1,107.59,118.92Z" style="fill:#c8856a"></path></g><path d="M121.27,72.05c-6.12.45-6.28-.06-13.14,4.82-2.86,2-5.56,4-7.87,5.77a17.69,17.69,0,0,0,6.95,10.17c3.48-2,8.08-4.6,9.65-5.67C119.52,85.35,122.94,77.78,121.27,72.05Z" style="fill:#e0e0e0"></path></g></g></g><g id="freepik--character-2--inject-238"><g id="freepik--character--inject-238"><g id="freepik--bottom--inject-238"><path d="M174,249.41a5.29,5.29,0,0,1-.15-1.64,9.83,9.83,0,0,1,1.15-4.25,28.34,28.34,0,0,0,2.42-4.07,19.68,19.68,0,0,0,1.34-4.77,16.79,16.79,0,0,1,.72-4c1.59-3.74,5.74-3.17,8.13-3.48l8.76-5.77L199,233s-4.67,1.48-6,2.13c-1.81.86-3.56,3-4.7,4.6-1.44,2-3.22,4-3.34,6.58a19.11,19.11,0,0,0,.42,4.13,3.91,3.91,0,0,1,.06,1.18c-.16,1.08-1.15,1.8-2.06,2.4-1.47,1-3.24,2-4.9,1.39a5.46,5.46,0,0,1-2.26-1.93A11,11,0,0,1,174,249.41Z" style="fill:#ffa8a7"></path><path d="M184.54,256.21a3.1,3.1,0,0,1-2.3,1.16,7.26,7.26,0,0,1-1.78-.2,10.81,10.81,0,0,1-3-1.23c-2.91-1.68-4.88-4.54-5.06-7-.16-2.23,1.71-6.85,2.21-8.15a10.73,10.73,0,0,0,.6-4.46,22.31,22.31,0,0,1,.23-4.62,5.07,5.07,0,0,1,.49-1.73,3,3,0,0,1,1.77-1.35c.27-.08,1.14-.06,1.28-.34a10.75,10.75,0,0,0-1.22,4.25c.11,1.67-.28,8.91-1,10.78a9.75,9.75,0,0,0,1.12,7.56c1.49,2.26,7.18,4.61,7.18,4.61Z" style="fill:#263238"></path><path d="M176.37,238.79a12.92,12.92,0,0,1-1,3.59c-1.18,2.79-2,6.1-.56,9a7.44,7.44,0,0,0,2.59,2.81,15.41,15.41,0,0,0,3.44,1.73,6.57,6.57,0,0,0,3.72.31,3.2,3.2,0,0,0,1.45-2.64c0-1.85-.32-3.69-.29-5.54a10.36,10.36,0,0,1,.18-2.78c.74-2.53,2.52-4.92,3.82-7.22a1.55,1.55,0,0,0-.38-2.43,22.72,22.72,0,0,0-2.23-1.67,1.2,1.2,0,0,0-1-.28c-.35.1-.53.46-.72.76s-.5.63-.85.55a3.8,3.8,0,0,0,.3-1.51c-.1-1.39-2-2.06-1.4-3.69a2.84,2.84,0,0,1,1.34-1.33,18.76,18.76,0,0,1,2.79-1.23.46.46,0,0,0-.46-.53c-.46,0-.92.05-1.38.1l-3.12.29a19.56,19.56,0,0,0-2.83.52,4,4,0,0,0-1.26.47,3.44,3.44,0,0,0-1.21,1.72,14.66,14.66,0,0,0-1,4.64C176.3,235.87,176.53,237.34,176.37,238.79Z" style="fill:#37474f"></path><path d="M233.32,184.08a107.58,107.58,0,0,1-1.65,29.56c-1.64,8.47-10.72,11.28-12.59,12.08-8.32,3.54-24.05,8.59-24.05,8.59s-5.22-4.24-3.91-9.43c6.5-5.11,13.65-12.37,20-13.38l5.48-28Z" style="fill:#37474f"></path><path d="M231.39,214.79l-4.65-15.9a14.15,14.15,0,0,0,4.32-10.06L215,193.28l-.39.83-3.41,17.39c-2.87.45-5.88,2.16-8.93,4.37h0l6.87,13.66c3.57-1.27,7.18-2.63,10-3.81C220.86,225,229.19,222.36,231.39,214.79Z" style="fill:#263238"></path><path d="M238.36,266.17c-.8.06-.84-1-1.18-3.46-.37-2.72-1.8-13.35-1.8-13.35l-12.8,5s3.32,8.76,4.36,11.28c1.16,2.81,2.78,6.65,3.05,8.84s.39,8.27,3.12,9.36,5.28-.15,7.09-1.34,3.9-5.31,5.9-7.4,3.69-3.26,5.23-5.42,1.43-7.51-.66-8.62-5.06.16-6.81,1.21S239.84,266.07,238.36,266.17Z" style="fill:#ffa8a7"></path><path d="M201.39,182.14c-.22,1.13-1.83,6.21-2.11,10.88-.35,6.08.65,10.2,2.63,13.89,3.83,7.16,5.79,9,14.29,25.23A33.83,33.83,0,0,0,219,246.25c3.31,8.5,7.26,17.63,7.26,17.63s3-5.35,10.48-4.56c-.4-4.19-2.9-24.12-4.12-30-1.52-7.33-8.06-31.47-8.06-31.47s8.3-2.4,8.1-15.69Z" style="fill:#37474f"></path><path d="M251,260.84c-1.22-1.16-3.16-1.14-5.74.14a15.23,15.23,0,0,0-4.58,3.33c-.39.47-.79.83-1.45.61a5,5,0,0,1-.62-.3c-1.44-.74-3.19-.11-4.62.64a1,1,0,0,0-.39.3c-.25.4.18.87.57,1.13a3.93,3.93,0,0,1,1,1l-1.09-.27a1.4,1.4,0,0,0-.67-.06c-.4.08-.66.47-.85.83a8.94,8.94,0,0,0-.62,1.5,2.93,2.93,0,0,1-.64,1.38,1.36,1.36,0,0,1-1.38.29,1.73,1.73,0,0,1-1.09-1s-.07.07-.11.28a.81.81,0,0,0,0,.41,11.64,11.64,0,0,0,.48,1.09,14.93,14.93,0,0,1,.63,3.58,24.64,24.64,0,0,0,1.23,6.55l13.45-13-.89-1.14C246.58,266.23,251,260.84,251,260.84Z" style="fill:#37474f"></path><path d="M252.83,263.08a2.59,2.59,0,0,0-1-1.74c-.17-.11-.76-.43-.88-.5-1.51-1-4.23,1.13-6.53,3.21-2.67,2.43-5.14,7.29-7.3,10.58s-4.84,4.56-5.73,6a2.39,2.39,0,0,0,.26,2.95c.13.15.64.63.74.72a3.9,3.9,0,0,0,3.45.67c3-.57,5.15-1.52,7.63-5.05s3.78-5.35,6.67-7.62S253.44,265.92,252.83,263.08Z" style="fill:#37474f"></path><path d="M252.83,263.08c-.87-4-4.55-1.22-7.52,1.47-2.67,2.43-5.14,7.29-7.3,10.58s-4.91,4.52-5.73,6c-1.49,2.71.58,4.42,3.57,3.84s5.15-1.52,7.63-5.05,3.78-5.35,6.67-7.62S253.44,265.92,252.83,263.08Z" style="fill:#263238"></path></g><g id="freepik--top--inject-238"><g id="freepik--top--inject-238"><path d="M268.67,137.36c-.12-.43-.42-.69-.52-1.11s0-.84-.15-1.26c-.21-.63-.64-.74-1.33-1.06a1.49,1.49,0,0,1-.67-.57,4.54,4.54,0,0,1-.25-.84,2.53,2.53,0,0,0-2.11-1.7c-.34-.86-.51-1.28-.83-2.13a.54.54,0,0,0-.27-.33.26.26,0,0,0-.26,0,1.65,1.65,0,0,0-.88.9,4.35,4.35,0,0,0-.32,2.34,46.55,46.55,0,0,1-.2,4.75c-.05.42-.25,3.25-1.32,2.29a1.49,1.49,0,0,1-.34-.73,7.57,7.57,0,0,0-1.05-2.27,2.53,2.53,0,0,0-.69-.73c-.34-.21-1-.34-1.25.1s.1,1.24.15,1.65a29.12,29.12,0,0,1,.28,3.73,12.57,12.57,0,0,0,.36,3.45,8.59,8.59,0,0,1,.14,1.06,6.88,6.88,0,0,1-1.05,3.83c-1.07,1.92-5.55,9.72-5.55,9.72s-1.58-.87-8.81-5.91c-5.14-3.58-5.51-5.28-11.71-6.24,0,0-.8,9.11,2.44,15,5.06,2.84,13.18,7.48,16.76,8.89,4.19,1.66,6.57,1.84,8.33-.92,3.09-4.85,4.37-11.35,5.67-15.37a38.5,38.5,0,0,1,2.87-6.8,24.86,24.86,0,0,0,1.87-4.06C268.4,141.82,269,138.59,268.67,137.36Z" style="fill:#ffa8a7"></path><path d="M228.81,145.51c6.74,1.25,6.2,1.79,11.06,5.16s10.69,6.88,10.69,6.88l4.69-7.26a9.72,9.72,0,0,0,2.43,3.89c2,2.16,5.66.94,5.66.94s-2.15,8.37-4.58,12.95-3.8,5.25-9,3-17.46-8.63-17.46-8.63Z" style="fill:#37474f"></path><path d="M262.5,141.68a5.83,5.83,0,0,0-.38-1,2.27,2.27,0,0,0-.55-.84c-.09-.07-.31-.09-.28.08a4.42,4.42,0,0,0,.36.91c.11.29.21.58.3.88a6.37,6.37,0,0,1,.24,1.84,5.05,5.05,0,0,1-.34,1.76,9.3,9.3,0,0,1-.76,1.47s0,.18.09.14a4.22,4.22,0,0,0,1.54-3.26A5.69,5.69,0,0,0,262.5,141.68Z" style="fill:#f28f8f"></path><path d="M250.56,157.55c-1.53,2.43-1.45,6.4-1.45,6.4a6.34,6.34,0,0,1-.63-3.71,7.85,7.85,0,0,1,1.13-3.27Z" style="fill:#263238"></path><path d="M235.64,162c.34-10.68-3.78-14.8-5.6-15.68l-10.9-1.69c-2.33.12-10.8,1.56-13.55,2.06-1.78.33-4.56,4.1-4.76,10.94-.14,4.61.66,9.14.67,16.5s-.8,8.68-1.81,14.37c6.54,5.49,28.72,6.15,34.06.32,0-5.7.37-10.37.66-14S235.54,164.9,235.64,162Z" style="fill:#f5f5f5"></path><path d="M225.14,155.65a52.46,52.46,0,0,0-.39-8.07l.39-2.66,3,3.13-1.48,2.8,1.08,1.59Z" style="fill:#e0e0e0"></path><path d="M224,144.64a28.32,28.32,0,0,1,7.86,12.2c2.34,7.56,2.71,16.77,2.77,16.22S237,162,235.66,154.51s-6.29-9-6.29-9L224,143.06Z" style="fill:#455a64"></path><g id="freepik--head--inject-238"><path d="M215,140.47c-.29-2.61-2.7-5.45-3.73-7.77s-1.55-4-1.31-6c.15-1.21,1-2.8,1.92-3.1a5.62,5.62,0,0,1,4.54-6.76,18.14,18.14,0,0,0,2.51-.55c1-.35,1.27-1.12,2.09-1.74,1.42-1.07,3.7-1,4.46.83,1-1.11,2.19-1,3.58-.57a2.4,2.4,0,0,1,1.68,2.82,2.54,2.54,0,0,1,3.71,1.61c.08.82-.14,1.5.36,2.27a1.25,1.25,0,0,0,2.07.26c.13,1.17-.37,2-1.63,1.9a2.63,2.63,0,0,1,.2,2.23,2.4,2.4,0,0,1-2.27,1.53,3.7,3.7,0,0,1-2.23,3,26.16,26.16,0,0,1-6.16,1.28l-2.47.36c-.14,0-.88,0-1,.15Z" style="fill:#263238"></path><path d="M212,137a2.51,2.51,0,0,0,3.05.09l-.51,5.19-.62,4.2s2.7,6.48,11.18,9.22c.58-1.49.51-6.57-.39-8.07l.44-4a24.86,24.86,0,0,0,3.08,0,5.37,5.37,0,0,0,4.55-3.82,23.22,23.22,0,0,0,.78-8.77,7.6,7.6,0,0,1,0-2.13,10,10,0,0,0-.37-4.6c-2.12-1.93-8.4-2.67-13.38,0,.89,2.51.09,5-2.05,5.93.05.78,0,2.73-1.23,2.62-.91-.08-.91-1.23-1.79-2.29s-3.05-1.47-4,0A5,5,0,0,0,212,137Z" style="fill:#ffa8a7"></path><path d="M214.36,144a26.14,26.14,0,0,0,3.77,6.79c2.28,2.71,7,4.91,7,4.91l-7.75-.88-.88-3.29-5.91-3.83Z" style="fill:#e0e0e0"></path><path d="M225.19,143.58c-3.19-.57-5.61-1.06-7.15-3.48a20.29,20.29,0,0,1-1.71-3.92,15.76,15.76,0,0,0,1.09,4.85c.73,1.53,2.64,2.88,7.65,3.61Z" style="fill:#f28f8f"></path><path d="M225.13,130.9a.91.91,0,0,1-1,.87.93.93,0,0,1-.83-1,.9.9,0,1,1,1.8.14Z" style="fill:#263238"></path><path d="M224.38,128.25l-2,.88a1.16,1.16,0,0,1,.6-1.49A1.07,1.07,0,0,1,224.38,128.25Z" style="fill:#263238"></path><path d="M232.51,128.79l-2.11-.71a1.07,1.07,0,0,1,1.38-.72A1.16,1.16,0,0,1,232.51,128.79Z" style="fill:#263238"></path><path d="M232.25,130.81a.92.92,0,0,1-1,.87.94.94,0,1,1,1-.87Z" style="fill:#263238"></path><path d="M230.73,134.29l-3.23,1.21-.61-6.22C228.08,128.93,229.42,131.85,230.73,134.29Z" style="fill:#f28f8f"></path><path d="M224,136.82l3.73,1a1.9,1.9,0,0,1-2.34,1.42A2,2,0,0,1,224,136.82Z" style="fill:#b16668"></path><path d="M224.43,137.46a2.5,2.5,0,0,0-.47,0,2,2,0,0,0,1.44,1.83,2.1,2.1,0,0,0,.61,0A1.77,1.77,0,0,0,224.43,137.46Z" style="fill:#f28f8f"></path></g><path d="M214.42,143.35a103.41,103.41,0,0,1,.83,16.53c-1.35,28.58-8.28,39.7-8.28,39.7s-9.13-2.75-12.19-10.13c1.65-2.86,5.59-10.61,6-15s-.63-10.81-.48-17.76c.11-5.57,4-10.45,4-10.45Z" style="fill:#455a64"></path></g><g id="freepik--arm--inject-238"><path d="M188.3,197.3a11.15,11.15,0,0,1-1.25-3.38c.12-.9,1.61,1.33,2.26,1.76a2.55,2.55,0,0,0,1.81.52c.41,0,1.06-.46,1-.87,0-.09-.08-.14-.14-.2a23.19,23.19,0,0,1-2.23-3.32,28.8,28.8,0,0,0-2.15-3.29,6.07,6.07,0,0,1-1.78-3.66c-.08-5.53.32-8.42.56-13.78,4.56-1.89,11.39-4.81,13.4-5.64,2.78-1.14,2.6-2.2,4-4.41,1.9-2.93,2.88-12.54,1.66-14.31-5.51.25-7.76,3.54-12.53,6.4-2.46,1.47-3.71,2.53-7.56,5a71.09,71.09,0,0,0-6.56,4.63,7.09,7.09,0,0,0-3.11,6.05,67,67,0,0,0,.84,8c.36,2.39,1.58,12.55,1.64,14a26.68,26.68,0,0,0,.59,4.52,15.25,15.25,0,0,0,2.6,5.11c.31.29.69.36,1,.66s.44.68.76.95c.49.42.91.29,1.64.21a1.34,1.34,0,0,1,.84.13,4.28,4.28,0,0,1,.64.57,2.46,2.46,0,0,0,2.61.33c.72.53,1.07.8,1.77,1.34a.57.57,0,0,0,.39.14.31.31,0,0,0,.2-.16,1.57,1.57,0,0,0,.27-1.19,4.32,4.32,0,0,0-.92-2.11A42.28,42.28,0,0,1,188.3,197.3Z" style="fill:#ffa8a7"></path></g><path d="M205.61,145.88c-3.1.62-4.41.63-9.75,4.41s-15.33,10.13-18.35,13-2.43,4.36-1.82,9.84,1.73,10.73,1.73,10.73,1.4,1.21,4.42.61a8.88,8.88,0,0,0,4.34-1.92l.7-11.07,15.36-6.69A19.44,19.44,0,0,0,205.61,145.88Z" style="fill:#37474f"></path></g></g></g><g id="freepik--character-1--inject-238"><g id="freepik--character--inject-238"><g id="freepik--bottom--inject-238"><path d="M288.74,246.26c-1.59-.32-3.32,1.1-4.38,3.87s.14,5.22-.5,8.74c-.53,2.94-2,5.93-1.38,9a8.76,8.76,0,0,0,4.5,6.48c2.6,1.54,6.1,1.28,6.56-.63S288.74,246.26,288.74,246.26Z" style="fill:#263238"></path><path d="M283.36,266a5.76,5.76,0,0,1,0-1.71c.26-1.78.82-3.52,1.09-5.31a40.65,40.65,0,0,0,.23-4.94,11.74,11.74,0,0,1,1-4.81,5,5,0,0,1,3.7-2.87,7.36,7.36,0,0,1,2.28.25,24.71,24.71,0,0,0,5.53.36,13.84,13.84,0,0,0,4.38-1.15c1.61-.64,4.93-2.47,4.93-2.47l-.41,11.37s-3,.5-4.47.85-5.14,1.92-6.3,3-1.48,3.51-1.7,5.17a17.43,17.43,0,0,0-.2,2.5c0,1.69.52,3.39.2,5.05a2.58,2.58,0,0,1-.48,1.14,2.54,2.54,0,0,1-1.54.76,6.8,6.8,0,0,1-5.5-1.77A8.39,8.39,0,0,1,283.36,266Z" style="fill:#ffbda7"></path><path d="M283.84,261.92c.82,1.37,3.49,4.39,7.06,4.37a2.57,2.57,0,0,0,2.7-2.07,34.59,34.59,0,0,0,.37,4.63c.35,1.9.59,5.06-1.56,5.58s-5.81-.88-7.67-3.63S282.57,266,283.84,261.92Z" style="fill:#37474f"></path><path d="M293.81,246.77c-.76,3-6.34,3.94-9.16,8.82-.21-3,.06-5.65,1.57-7.53a4.54,4.54,0,0,1,4.46-1.88Z" style="fill:#37474f"></path><path d="M343.59,210.46s1.21,19.09-2.43,31.94c-2.28,8-11.27,8.76-13.2,9.17-8.52,1.84-24.34,3.75-24.34,3.75s-4.17-5-2-9.65c7.1-3.64,15.19-9.22,21.44-9l11.33-27.1Z" style="fill:#37474f"></path><path d="M338,226.45s3.63-2.46,4.1-8.51l-12.66,3.39h0l-6.41,15.33h0c-.26,0-.52,0-.79,0h-.19a7.41,7.41,0,0,0-.8.07h0c-.28,0-.56.08-.85.13l-.17,0-.84.18a28,28,0,0,0-4.63,1.63l7.92,13.85h0l1.31-.23.15,0,1.29-.23h0l1.11-.22.27,0,1.08-.22h0c1.93-.41,10.92-1.17,13.2-9.17q.38-1.35.69-2.79Z" style="fill:#263238"></path><path d="M349.4,291.24c-.76,0-.84-1-1.3-3.4s-1.61-12.66-1.61-12.66l-12.92,4.31s4.15,9.14,5.08,11.62c1.05,2.76,2.5,5.93,2.71,8.06s.22,8.05,2.78,9.18,5,0,6.7-1.14,3.77-5.08,5.69-7.07,3.54-3.08,5-5.14,1.48-7.28-.47-8.41-4.77,0-6.43,1S350.8,291.17,349.4,291.24Z" style="fill:#ffbda7"></path><path d="M342.2,306.65a24.81,24.81,0,0,1-1.05-6.41c0-.54-.07-1.07-.08-1.61a.58.58,0,0,1,.05-.29.61.61,0,0,1,.17-.15,5,5,0,0,1,4-.5c1.06.32,2.59,1.22,2.92,2.42s-1.37,2.08-2.12,2.8Z" style="fill:#455a64"></path><path d="M361.37,286.34c-1.13-1.16-3-1.19-5.41,0a14.45,14.45,0,0,0-4.38,3.13s-1.32,2.38.59,4.06S361.37,286.34,361.37,286.34Z" style="fill:#455a64"></path><path d="M363.09,288.56a2.57,2.57,0,0,0-.9-1.72c-.16-.11-.71-.43-.82-.5-1.41-1-4,1-6.21,3-2.56,2.3-5,7-7.07,10.13s-4.65,4.32-5.51,5.71a2.39,2.39,0,0,0,.19,2.87c.13.15.6.63.69.72a3.6,3.6,0,0,0,3.24.73c2.83-.49,4.88-1.36,7.27-4.73s3.67-5.12,6.43-7.26S363.62,291.34,363.09,288.56Z" style="fill:#37474f"></path><path d="M363.09,288.56c-.75-3.89-4.27-1.29-7.11,1.26-2.56,2.29-5,7-7.07,10.12s-4.71,4.29-5.51,5.72c-1.45,2.6.47,4.3,3.3,3.81s4.88-1.36,7.27-4.73,3.67-5.12,6.43-7.26S363.62,291.34,363.09,288.56Z" style="fill:#263238"></path><path d="M316.63,205.33c-4.46,5.15-6.51,9.58-6.71,14.08a25.1,25.1,0,0,0,3.31,12.81c3.7,6.9,6.69,11,14.88,26.68a32.73,32.73,0,0,0,2.66,13.61c3.2,8.2,7,17,7,17s2.85-5.17,10.11-4.4c-.38-4-2.8-23.28-4-29-1.46-7.08-7.77-30.37-7.77-30.37a18.84,18.84,0,0,0,7.45-15.33Z" style="fill:#37474f"></path></g><g id="freepik--top--inject-238"><path d="M316.23,150.74c-2.14,1.51-2.59,3.15-3.77,5.37a5.73,5.73,0,0,1-2.19,2.5c-3.6,1.83-8.13.12-11.92,1.52a14.83,14.83,0,0,0-4,2.52,11.36,11.36,0,0,1,6.48-.3,6.53,6.53,0,0,0-4.54.81,29,29,0,0,1-4.23,2.07,7.71,7.71,0,0,1-4.82-.11c2.65,2.78,6.47,4.85,10.24,4.15,1.18-.22,2.3-.7,3.48-.92,3.29-.63,6.69.79,10,.31a11.5,11.5,0,0,0,6.15-2.61,12.61,12.61,0,0,0,3.18-5.62c.55-1.61.93-3.74,2.25-3.89.65-.07.82-1.52,1.27-2,1.1-1.14,1.55-3.29-.13-4.06C320.42,149,317.83,149.62,316.23,150.74Z" style="fill:#263238"></path><path d="M383.86,185.05a1.47,1.47,0,0,1-.28-.81,4.59,4.59,0,0,1,.21-.81,2.44,2.44,0,0,0-.91-2.46c.14-.88.22-1.31.37-2.17a.6.6,0,0,0-.06-.41.26.26,0,0,0-.23-.1,1.61,1.61,0,0,0-1.18.3,4.38,4.38,0,0,0-1.42,1.79,44.5,44.5,0,0,1-2.51,3.84c-.25.32-1.81,2.57-2.23,1.24l-3.27,0a12.3,12.3,0,0,0-1.4,3,6.41,6.41,0,0,1-.41.94,6.7,6.7,0,0,1-2.76,2.66c-1.84,1.06-9.4,5.31-9.4,5.31s-.88-1.5-4.38-9.25c-2.49-5.51-6.13-12.93-11.36-12.93,0,0-.43,9.12-.65,15.6,2.78,4.86,7.22,12.71,9.49,15.65,2.65,3.44,4.54,4.78,7.36,3.36,5-2.49,9.23-7.25,12.29-9.93a37.11,37.11,0,0,1,5.74-4.23,24.07,24.07,0,0,0,3.55-2.43c1-.83,3.06-3.22,3.39-4.39.12-.42,0-.78.13-1.18s.4-.71.49-1.12C384.57,186,384.27,185.66,383.86,185.05Z" style="fill:#ffbda7"></path><path d="M342.65,175c3.88.75,5.2,1.46,7.48,5.22s8.39,16.58,8.39,16.58l8.27-4.13a7.41,7.41,0,0,0,.85,5.23c1.55,2.5,3.17,2.8,3.17,2.8s-7.43,7.81-11.63,9.38-5.51-.27-7.43-2.7S342,192.83,342,192.83Z" style="fill:#e0e0e0"></path><path d="M376.57,189.41a6,6,0,0,0,.19-1,2.63,2.63,0,0,0,0-1c0-.1-.22-.22-.28-.07a4.87,4.87,0,0,0-.15.93c-.05.3-.11.59-.18.88a6.53,6.53,0,0,1-.71,1.65,5.25,5.25,0,0,1-1.15,1.29,10.59,10.59,0,0,1-1.36.84s-.07.16,0,.16a4.12,4.12,0,0,0,2.89-1.94A5.47,5.47,0,0,0,376.57,189.41Z" style="fill:#f0997a"></path><path d="M395,223.12l-53.47-114-1.36.67,53.47,114C394,224.33,395.3,223.64,395,223.12Z" style="fill:#455a64"></path><path d="M341,111a8.48,8.48,0,0,0-5.64.83c-2.54,1.15-4.14,3.71-6.05,5.78a20.11,20.11,0,0,1-18.66,5.94,11.4,11.4,0,0,0,5.63,3.57,33.73,33.73,0,0,0,6.64,1.1,23.68,23.68,0,0,1-11.6,1.82,17.34,17.34,0,0,0,4.86,2.86c3.68,1.66,7.29,2.87,11.38,2.5a16,16,0,0,0,10.18-4.91c1.28-1.38,2.32-3,3.6-4.36a9.52,9.52,0,0,1,5.17-3Z" style="fill:#0E6D28"></path><path d="M339.58,110.48a1.64,1.64,0,0,0,2.33.31,1.72,1.72,0,0,0,.3-2.39,1.64,1.64,0,0,0-2.33-.31A1.73,1.73,0,0,0,339.58,110.48Z" style="fill:#37474f"></path><path d="M358.52,196.81a10.53,10.53,0,0,0-3.87,4.76,5.76,5.76,0,0,1,1.17-3.6,14,14,0,0,1,2.17-2.26Z" style="opacity:0.1"></path><path d="M375.62,185.46a1.51,1.51,0,0,1,.08-.78,7.14,7.14,0,0,0,.26-2.39,2.36,2.36,0,0,0-.22-.95c-.17-.34-.68-.79-1.08-.53s-.53,1.08-.69,1.44a28.66,28.66,0,0,1-1.62,3.23" style="fill:#ffbda7"></path><path d="M317.56,200.43c.14,1.61.4,3.29-.93,4.9,1.11,4.37,10.63,6.91,16.88,7,8.59.11,10.08-1.85,10.08-1.85l.52-5.45Z" style="fill:#ffbda7"></path><path d="M350.55,189.18c-2.26-7.56-7.9-14.17-7.9-14.17-1.33-.23-10.93-1.5-10.93-1.5s-6.14.42-9.67.64c-1.82,1.09-3.23,2.8-4.74,6-.64,1.35-1.94,6.52-1.6,8.7a100.16,100.16,0,0,1,1.5,11.36c.15,3.09-1.94,4.11-1.13,5.78,4.64,7.94,23.64,9.8,27.5,5.17,1.36-1.94,1.64-5.81,2.37-10.9C351.51,198.69,351.66,192.88,350.55,189.18Z" style="fill:#f0f0f0"></path><path d="M336.81,199.53a10.1,10.1,0,0,1-8.93,0c-4.53-2.32-4.81-6.63-4.26-8.24,0,0-2.62,6.79,3,9.75C333.69,204.73,336.81,199.53,336.81,199.53Z" style="fill:#e0e0e0"></path><path d="M323.69,150.49c-2.64.95-2.92,6.45-.49,6.63C326.86,157.4,327.71,148.78,323.69,150.49Z" style="fill:#0E6D28"></path><g id="freepik--head--inject-238"><path d="M347.11,150.33c-10.74-16.17-35.72,1.72-18.79,17.55l2,.14c.77-1.67,2.46-1.23,4.06-1.52,1.66-1.34,3-2.63,5.37-2.71,3.72-.32,8.59-3.67,6.42-7.75C348,154.79,348.09,152.15,347.11,150.33Z" style="fill:#263238"></path><path d="M328.2,171.66c0-1.06,0-6,0-6-.05.39-2.32,1.44-4-.63a4.15,4.15,0,0,1-.27-5.5c1.16-1.51,3.7-1.38,4.66,1.14.77,0,2-.09,1.7-4,.14-4.76,4.84-8.58,8.65-5.19,1.57-2.63,4.76-1.49,5.88,1.12.61,1.64.81,2.2.42,5.27a20.12,20.12,0,0,1,.42,3.93c-.28,5.69-1.82,7.35-3.53,8.46a6,6,0,0,1-4.25.77v1.37h0c0,.89-.08,1.6.74,1.92a12.78,12.78,0,0,0,1.84.42s4,6.12-3.81,6.92c-7.51.78-10.76-7.71-10.76-7.71a3.89,3.89,0,0,0,1.53-.26C327.94,173.29,328.17,172.71,328.2,171.66Z" style="fill:#ffbda7"></path><path d="M335.83,164.17l2.93,1a1.53,1.53,0,0,1-1.94,1A1.62,1.62,0,0,1,335.83,164.17Z" style="fill:#b16668"></path><path d="M336,164.85a1.71,1.71,0,0,1,1.68,1.36,1.41,1.41,0,0,1-.86,0,1.6,1.6,0,0,1-1.05-1.31A1.81,1.81,0,0,1,336,164.85Z" style="fill:#f0997a"></path><path d="M344.3,156l-2.09-1.16a1.15,1.15,0,0,1,1.59-.49A1.26,1.26,0,0,1,344.3,156Z" style="fill:#263238"></path><path d="M333.64,156.09l2.08-1.22a1.16,1.16,0,0,0-1.62-.46A1.27,1.27,0,0,0,333.64,156.09Z" style="fill:#263238"></path><path d="M341.88,158.38a1,1,0,0,0,.89,1.1,1,1,0,0,0,1.08-.86,1,1,0,0,0-.89-1.1A1,1,0,0,0,341.88,158.38Z" style="fill:#263238"></path><path d="M334.67,158.43a1,1,0,0,0,.9,1.1,1,1,0,0,0,1.08-.86,1,1,0,0,0-.9-1.1A1,1,0,0,0,334.67,158.43Z" style="fill:#263238"></path><polygon points="342.48 161.65 339.31 163.09 338.78 157.03 342.48 161.65" style="fill:#f0997a"></polygon><path d="M337.87,171c-3.77-.45-7.38-1.55-8.26-3.88a3.88,3.88,0,0,0,2.09,3.26,13.72,13.72,0,0,0,6.16,1.73Z" style="fill:#f0997a"></path></g><g id="freepik--arm--inject-238"><path d="M308.18,221.68a10.81,10.81,0,0,1-1.58-3c0-.86,1.68,1.05,2.34,1.38a2.36,2.36,0,0,0,1.76.27c.39-.07.94-.56.83-.94,0-.09-.1-.12-.16-.17a22.87,22.87,0,0,1-2.5-2.85,26,26,0,0,0-2.42-2.83,5.79,5.79,0,0,1-2.11-3.22c-.74-5.17-.72-7.94-1.14-13,4.05-2.32,10.11-5.9,11.89-6.92a12.37,12.37,0,0,0,5.34-5.36c1.43-3,2.33-8.59,1.58-10.41-7.62.51-9.61,2.35-13.54,5.14-2.21,1.57-3.65,2.56-7.16,5.3-1.76,1.37-3.52,2.44-6.69,5.2a5,5,0,0,0-1.89,5.27,77.19,77.19,0,0,0,1.94,8.4c.62,2.2,3,11.59,3.23,12.91A25.94,25.94,0,0,0,299,221a14.54,14.54,0,0,0,3.06,4.48c.34.24.7.25,1,.5s.5.58.84.8c.51.34.88.16,1.56,0a1.4,1.4,0,0,1,.81,0,4.19,4.19,0,0,1,.66.47,2.36,2.36,0,0,0,2.5,0l1.82,1a.54.54,0,0,0,.38.08.24.24,0,0,0,.17-.17,1.49,1.49,0,0,0,.11-1.15,4.14,4.14,0,0,0-1.12-1.87A43.07,43.07,0,0,1,308.18,221.68Z" style="fill:#ffbda7"></path></g><path d="M322.05,174.15c-6.2.46-6.36-.06-13.33,4.9s-13.05,9.71-14.71,11.13-2.27,3.07-1.41,6.63,2.86,10.07,2.86,10.07a5.8,5.8,0,0,0,4.88.46c3.08-.87,3.72-2.22,3.72-2.22l-.56-7.51s11.4-6.33,14.09-8.15S323.75,180,322.05,174.15Z" style="fill:#e0e0e0"></path></g></g></g></svg>
