<svg xmlns="http://www.w3.org/2000/svg" viewBox="0 0 750 500"><g id="freepik--background-complete--inject-17"><rect x="110.84" y="53.17" width="138.04" height="228.5" style="fill:#e0e0e0"></rect><rect x="106.25" y="53.17" width="138.04" height="228.5" style="fill:#ebebeb"></rect><rect x="112.13" y="57.81" width="126.28" height="219.23" style="fill:#fff"></rect><rect x="136.17" y="86.29" width="77.65" height="162.25" style="fill:#ebebeb"></rect><path d="M136.17,191.13c-.18-15.16,13.45-29.95,28.46-32.07,7.16-1,14.76.41,21.45-2.33,11.94-4.89,15.73-20.75,27.75-25.46l.55,117.28H136.17Z" style="fill:#e0e0e0"></path><polygon points="676.1 61.27 676.1 189.19 492.37 189.19 485.75 62.16 676.1 61.27" style="fill:#e0e0e0"></polygon><rect x="514.23" y="33.68" width="126.76" height="183.73" transform="translate(452.07 703.16) rotate(-90)" style="fill:#f5f5f5"></rect><rect x="505.65" y="77.91" width="143.94" height="95.26" style="fill:#fff"></rect><path d="M649.58,77.91l-.71,0-2,0-7.91.05-29.66.11-103.61.21.41-.42c0,29.11,0,61.36,0,95.25v0l-.45-.46,143.93.09-.36.37c.08-29,.14-52.76.19-69.32,0-8.27.07-14.73.09-19.16,0-2.19,0-3.87,0-5s0-1.75,0-1.75,0,.56,0,1.67,0,2.81,0,5c0,4.42.05,10.85.09,19.09,0,16.61.11,40.45.19,69.54v.36h-.36l-143.93.09h-.46v-.47c0-33.89,0-66.14,0-95.25V77.5h.42l103.88.2,29.57.11,7.82,0,2,0Z" style="fill:#e0e0e0"></path><path d="M485.75,61.81a15.79,15.79,0,0,1,3.16,2c1.87,1.36,4.44,3.29,7.2,5.5s5.19,4.3,6.91,5.87a15.23,15.23,0,0,1,2.63,2.69c-.17.2-4.59-3.45-10.11-7.85S485.59,62,485.75,61.81Z" style="fill:#e0e0e0"></path><path d="M669.48,62.16c.16.2-4.17,3.89-9.67,8.23s-10.07,7.72-10.23,7.52,4.17-3.88,9.67-8.23S669.33,62,669.48,62.16Z" style="fill:#e0e0e0"></path><path d="M669.34,188.94l-20.49-16.6" style="fill:#fff"></path><path d="M648.85,172.34c.16-.2,4.87,3.36,10.53,7.95s10.11,8.46,10,8.65-4.88-3.36-10.53-7.95S648.69,172.53,648.85,172.34Z" style="fill:#e0e0e0"></path><path d="M485.75,188.92c-.16-.19,4.12-3.84,9.56-8.14s10-7.63,10.13-7.43-4.12,3.84-9.56,8.14S485.9,189.12,485.75,188.92Z" style="fill:#e0e0e0"></path><rect x="564.21" y="78.26" width="31.9" height="90.57" transform="translate(456.61 703.7) rotate(-90)" style="fill:#e0e0e0"></rect><rect x="323.85" y="62.51" width="101.94" height="106.26" style="fill:#e0e0e0"></rect><rect x="316.95" y="62.51" width="101.94" height="106.26" style="fill:#fafafa"></rect><path d="M418.92,168.81h-102V62.48h102ZM317,168.74H418.85V62.55H317Z" style="fill:#e0e0e0"></path><rect x="330.65" y="76.8" width="74.53" height="77.69" style="fill:#fff"></rect><path d="M330.65,155a12.27,12.27,0,0,1-1.84,2.14c-1.19,1.25-2.86,2.95-4.74,4.8s-3.6,3.49-4.87,4.66a11.53,11.53,0,0,1-2.15,1.79,12,12,0,0,1,1.83-2.13c1.19-1.25,2.87-3,4.75-4.81s3.6-3.5,4.87-4.67A12.09,12.09,0,0,1,330.65,155Z" style="fill:#e0e0e0"></path><path d="M405.18,154.82a12.27,12.27,0,0,1,2.14,1.84c1.26,1.19,3,2.86,4.8,4.73s3.49,3.6,4.66,4.87a11.86,11.86,0,0,1,1.8,2.16,11.66,11.66,0,0,1-2.13-1.83c-1.26-1.19-3-2.87-4.82-4.75s-3.5-3.61-4.66-4.88A11.71,11.71,0,0,1,405.18,154.82Z" style="fill:#e0e0e0"></path><path d="M405,77a11.85,11.85,0,0,1,1.84-2.14c1.19-1.26,2.86-3,4.73-4.81s3.6-3.49,4.87-4.66a11.5,11.5,0,0,1,2.16-1.79,12.51,12.51,0,0,1-1.83,2.13c-1.19,1.25-2.87,3-4.75,4.81s-3.61,3.5-4.88,4.67A11.71,11.71,0,0,1,405,77Z" style="fill:#e0e0e0"></path><path d="M330.44,77.2a12.47,12.47,0,0,1-2.13-1.84c-1.26-1.19-3-2.87-4.81-4.74S320,67,318.84,65.75a11.53,11.53,0,0,1-1.79-2.15,12,12,0,0,1,2.13,1.83c1.25,1.19,3,2.86,4.81,4.74s3.5,3.61,4.67,4.88A11.17,11.17,0,0,1,330.44,77.2Z" style="fill:#e0e0e0"></path><path d="M405,154.49a2.79,2.79,0,0,1,0-.38c0-.26,0-.62,0-1.08,0-1,0-2.38,0-4.19,0-3.68,0-9-.07-15.84,0-13.61-.09-33-.15-56.2l.29.29-74.32,0h0l.33-.33c0,28.52,0,55.19-.05,77.69l-.28-.28,53.82.14,15.11.08,4,0,1,0H405l-.33,0h-1l-3.95,0-15.05.07-54,.15h-.28v-.29c0-22.5,0-49.17-.05-77.69v-.33h.34l74.32,0h.29v.29c-.06,23.29-.11,42.73-.14,56.39,0,6.77-.06,12.1-.08,15.76q0,2.7,0,4.14c0,.45,0,.8,0,1.06S405,154.5,405,154.49Z" style="fill:#e0e0e0"></path><rect x="355.48" y="103.21" width="24.87" height="24.87" style="fill:#ebebeb"></rect></g><g id="freepik--Table--inject-17"><path d="M720,447.41c0,.14-154.48.26-345,.26s-345-.12-345-.26,154.44-.26,345-.26S720,447.27,720,447.41Z" style="fill:#263238"></path></g><g id="freepik--speech-bubble-3--inject-17"><path d="M645.51,227.56a36.08,36.08,0,0,1,10.12-19.26,37,37,0,0,1,52-.14,36.09,36.09,0,0,1,.14,51.42,37,37,0,0,1-52,.14,36.09,36.09,0,0,1-10.54-21.28l-9.64-6.2Z" style="fill:#fff"></path><path d="M645.51,227.56l-.68.28-1.93.87-7.38,3.39-.26.12.24.16,9.61,6.25-.11-.17a36.19,36.19,0,0,0,6.92,17.29,36.8,36.8,0,0,0,3.57,4.12,40.69,40.69,0,0,0,4.39,3.68,35.63,35.63,0,0,0,10.9,5.46,37.66,37.66,0,0,0,26.48-1.77,37,37,0,0,0,19.49-21.32,35.75,35.75,0,0,0,0-23.95,34.37,34.37,0,0,0-5.51-10.19,35.68,35.68,0,0,0-8-7.7l-1.11-.8c-.38-.24-.78-.46-1.17-.69-.78-.44-1.54-.92-2.33-1.32a38.86,38.86,0,0,0-4.86-2,40.67,40.67,0,0,0-4.94-1.34c-.83-.14-1.65-.23-2.47-.35l-1.22-.17-1.23,0a36.06,36.06,0,0,0-17.57,3.29,38.29,38.29,0,0,0-11.93,8.65,36.37,36.37,0,0,0-6.15,9.24,35.3,35.3,0,0,0-2.27,6.62c-.18.79-.29,1.38-.35,1.78a4.6,4.6,0,0,0-.09.62,2.34,2.34,0,0,0,.16-.59c.09-.4.23-1,.44-1.77a36.26,36.26,0,0,1,8.59-15.61,38,38,0,0,1,11.83-8.43,38.6,38.6,0,0,1,8.1-2.6,38.17,38.17,0,0,1,9.2-.55l1.2.05,1.21.17c.8.12,1.61.22,2.42.36a38.66,38.66,0,0,1,4.84,1.33,35.48,35.48,0,0,1,4.76,2c.78.39,1.52.86,2.29,1.3.38.22.77.44,1.14.68l1.09.78a35.16,35.16,0,0,1,7.85,7.57,33.62,33.62,0,0,1,5.38,10,35.83,35.83,0,0,1-19.07,44.35,37.11,37.11,0,0,1-26,1.79A35.27,35.27,0,0,1,660.26,263a40.25,40.25,0,0,1-4.33-3.59,36.83,36.83,0,0,1-3.54-4,35.81,35.81,0,0,1-6.93-17l0-.11-.09-.05-9.67-6.14,0,.28,7.36-3.56,1.88-.93A3.85,3.85,0,0,0,645.51,227.56Z" style="fill:#263238"></path><path d="M665.72,231.69a9.83,9.83,0,0,1,2.33-5.43,9.46,9.46,0,0,1,4.84-3.22,7.92,7.92,0,0,1,6.05.92,7.76,7.76,0,0,1,2.57,2.65,7.73,7.73,0,0,1,2.18-2.54,7.86,7.86,0,0,1,6-1.41,9.6,9.6,0,0,1,5.09,2.82,9.81,9.81,0,0,1,2.76,5.23,11.78,11.78,0,0,1-1.2,7.4,17,17,0,0,1-5.65,5.68c-3.74,2.45-8.68,5.52-8.68,5.52s-4.41-3-8.34-5.13a16.82,16.82,0,0,1-6.1-5.21A11.87,11.87,0,0,1,665.72,231.69Z" style="fill:#057D1D"></path></g><g id="freepik--speech-bubble-2--inject-17"><path d="M434.9,168.12l13.48-3a36.71,36.71,0,0,0,59.4-23.24,36.58,36.58,0,0,0-72.53-9.62,35.69,35.69,0,0,0,4.62,23l0,0Z" style="fill:#fff"></path><path d="M434.9,168.12l.35-.85c.23-.59.56-1.41,1-2.47.86-2.18,2.12-5.36,3.76-9.48l-.26.05,0,0a.16.16,0,0,0,.22,0,.17.17,0,0,0,0-.19,35.67,35.67,0,0,1,3.12-40.41A36.7,36.7,0,0,1,469,101.31a37.36,37.36,0,0,1,16.16,2.61,36.51,36.51,0,0,1,7.49,4.06c.59.4,1.13.88,1.7,1.32a18.47,18.47,0,0,1,1.65,1.4,33.19,33.19,0,0,1,3,3.13c.47.56,1,1.1,1.4,1.67l1.25,1.79.62.89.53.94,1.06,1.87c.33.64.59,1.3.88,2a17.73,17.73,0,0,1,.81,2,31.09,31.09,0,0,1,1.2,4,36.06,36.06,0,0,1,.06,16.24,35.08,35.08,0,0,1-6.64,13.86,36.58,36.58,0,0,1-23.32,13.61,37.69,37.69,0,0,1-11.74-.12,36.67,36.67,0,0,1-16.66-7.48.16.16,0,0,0-.13,0l-10,2.27-2.59.6-.9.22.84-.16,2.56-.53,10.11-2.11-.13,0a36.73,36.73,0,0,0,16.78,7.7,38,38,0,0,0,11.89.17,37,37,0,0,0,23.74-13.74,35.53,35.53,0,0,0,6.77-14.09,36.48,36.48,0,0,0,0-16.53,34.55,34.55,0,0,0-1.22-4.12,19.1,19.1,0,0,0-.82-2c-.3-.66-.57-1.34-.91-2l-1.07-1.91-.54-1-.63-.91L501,115.1c-.45-.58-1-1.13-1.43-1.7a35.74,35.74,0,0,0-3.08-3.19,19,19,0,0,0-1.69-1.42c-.58-.45-1.13-.94-1.73-1.35a37.37,37.37,0,0,0-7.63-4.13A37.82,37.82,0,0,0,469,100.68a37.17,37.17,0,0,0-15.09,4.43,36.73,36.73,0,0,0-11.18,9.33,36.28,36.28,0,0,0-8,23.29,35.74,35.74,0,0,0,5,17.63l.24-.19h0a.14.14,0,0,0-.21,0,.1.1,0,0,0,0,.05c-1.58,4.2-2.79,7.44-3.62,9.66-.39,1.06-.69,1.87-.91,2.44S434.9,168.12,434.9,168.12Z" style="fill:#263238"></path><path d="M460.88,137a4.57,4.57,0,1,1-4.55-4.55A4.55,4.55,0,0,1,460.88,137Z" style="fill:#263238"></path><path d="M476.12,137.1a4.58,4.58,0,1,1-4.55-4.54A4.55,4.55,0,0,1,476.12,137.1Z" style="fill:#263238"></path><path d="M491.35,137.19a4.57,4.57,0,1,1-4.54-4.55A4.55,4.55,0,0,1,491.35,137.19Z" style="fill:#263238"></path></g><g id="freepik--speech-bubble-1--inject-17"><path d="M198,178.17l14.14-3.09a37.95,37.95,0,1,0-13.77-34.46,37.49,37.49,0,0,0,4.84,24.09v0Z" style="fill:#fff"></path><path d="M198,178.17l.37-.89c.24-.61.58-1.47,1-2.59l4-9.94-.27.05,0,0a.17.17,0,0,0,.23,0,.15.15,0,0,0,0-.19,37.44,37.44,0,0,1,3.28-42.39,38.44,38.44,0,0,1,27.13-14.14,39.21,39.21,0,0,1,17,2.74,38.11,38.11,0,0,1,7.85,4.26c.62.42,1.18.92,1.78,1.39A17.24,17.24,0,0,1,262.1,118a33.89,33.89,0,0,1,3.17,3.28c.49.59,1,1.15,1.48,1.76l1.3,1.87.65.93.56,1,1.11,2c.34.67.62,1.37.93,2a19.4,19.4,0,0,1,.85,2.06,36,36,0,0,1,1.26,4.24,37.82,37.82,0,0,1,0,17,36.84,36.84,0,0,1-6.95,14.54A38.33,38.33,0,0,1,242,182.93a39.2,39.2,0,0,1-12.31-.12A38.4,38.4,0,0,1,212.25,175a.17.17,0,0,0-.14,0l-10.44,2.39L199,178l-.94.22s.28,0,.88-.17l2.69-.55,10.6-2.21-.13,0a38.57,38.57,0,0,0,17.6,8.07,39.84,39.84,0,0,0,12.47.18A38.86,38.86,0,0,0,267,169.05a37.38,37.38,0,0,0,7.11-14.78,38.28,38.28,0,0,0,0-17.33,35,35,0,0,0-1.27-4.32,20.35,20.35,0,0,0-.87-2.11c-.32-.69-.59-1.4-.94-2.08l-1.13-2-.57-1-.66-1-1.33-1.9c-.48-.62-1-1.19-1.5-1.79a37.88,37.88,0,0,0-3.23-3.35,20.7,20.7,0,0,0-1.77-1.48c-.61-.47-1.19-1-1.82-1.42a39,39,0,0,0-8-4.33,39.68,39.68,0,0,0-17.26-2.76,39,39,0,0,0-27.56,14.43,38.09,38.09,0,0,0-8.36,24.43,37.67,37.67,0,0,0,5.27,18.49l.26-.2h0a.17.17,0,0,0-.23,0,.09.09,0,0,0,0,0c-1.65,4.41-2.93,7.81-3.8,10.13-.41,1.11-.73,2-.95,2.57S198,178.17,198,178.17Z" style="fill:#263238"></path><path d="M251.39,140.13A15,15,0,1,0,230,153.45c0,1.76,0,3.74,0,3.74l13.14.06s.09-2.1.12-4A14.82,14.82,0,0,0,251.39,140.13Z" style="fill:#057D1D"></path><path d="M238.32,157.17s0-.06,0-.19,0-.3.07-.53c.06-.47.14-1.16.28-2s.32-2,.61-3.22a21.88,21.88,0,0,1,1.38-4.12,13.4,13.4,0,0,1,1.25-2.22,2.78,2.78,0,0,1,1-.9,1.57,1.57,0,0,1,1.43.05,1.06,1.06,0,0,1,.47.59,1,1,0,0,1-.07.76,2.12,2.12,0,0,1-1.16,1,4.13,4.13,0,0,1-5.22-2.71,3.14,3.14,0,0,1-.08-1.72,1.35,1.35,0,0,1,1.37-1,1,1,0,0,1,.76.53,1.31,1.31,0,0,1,.11.91,2.85,2.85,0,0,1-1.06,1.47,4.49,4.49,0,0,1-3.49,1,3.89,3.89,0,0,1-2.89-2.15,2.22,2.22,0,0,1-.09-1.8,1.11,1.11,0,0,1,.66-.65,1.14,1.14,0,0,1,.92.08,1.6,1.6,0,0,1,.63.66,2.33,2.33,0,0,1,.22.85,4.39,4.39,0,0,1-2.36,4.17,4.55,4.55,0,0,1-3.1.41,2.4,2.4,0,0,1-1.35-.71,1.13,1.13,0,0,1-.07-1.43.93.93,0,0,1,.67-.32,1.37,1.37,0,0,1,.72.14,2.19,2.19,0,0,1,.91,1c.37.8.67,1.59,1,2.34,1.19,3,2,5.46,2.59,7.17.28.85.48,1.52.62,2l.16.52c0,.11,0,.17,0,.17l-.06-.17-.17-.51c-.16-.45-.38-1.12-.66-2-.58-1.7-1.44-4.16-2.64-7.15-.3-.74-.61-1.53-1-2.32a2,2,0,0,0-.85-.95,1,1,0,0,0-1.21.15,1,1,0,0,0,.08,1.23,2.3,2.3,0,0,0,1.26.66,4.46,4.46,0,0,0,3-.4,4.31,4.31,0,0,0,2-2.39,4,4,0,0,0,.22-1.62,1.6,1.6,0,0,0-.76-1.37.91.91,0,0,0-.77-.07,1,1,0,0,0-.56.55,2.07,2.07,0,0,0,.09,1.65,3.75,3.75,0,0,0,2.76,2.05,4.33,4.33,0,0,0,3.35-1,2.76,2.76,0,0,0,1-1.37,1.2,1.2,0,0,0-.1-.79.79.79,0,0,0-.62-.43,1.08,1.08,0,0,0-.75.23,1.38,1.38,0,0,0-.43.66,3,3,0,0,0,.08,1.62,4,4,0,0,0,5,2.61,1.94,1.94,0,0,0,1.08-.9.87.87,0,0,0-.34-1.15,1.41,1.41,0,0,0-1.28-.05,2.63,2.63,0,0,0-1,.86,14.58,14.58,0,0,0-1.24,2.18,22.58,22.58,0,0,0-1.4,4.09c-.3,1.24-.49,2.32-.64,3.21s-.24,1.57-.32,2c0,.23-.06.41-.08.54Z" style="fill:#263238"></path><path d="M242,159.65l-11.27-.05a.85.85,0,0,1-.85-.84h0a.86.86,0,0,1,.85-.84l11.28.06a.83.83,0,0,1,.84.84h0A.83.83,0,0,1,242,159.65Z" style="fill:#263238"></path><path d="M242,160.38l-11.28,0a.84.84,0,1,0,0,1.68H232l1.63,3.1a1.08,1.08,0,0,0,1,.58l4,0a1.09,1.09,0,0,0,1-.58l1.61-3.07H242a.84.84,0,1,0,0-1.68Z" style="fill:#263238"></path><g style="opacity:0.2"><path d="M224.17,134.11a11.47,11.47,0,0,0-1.07,4.29,10.59,10.59,0,0,0,.4,3.54,7.84,7.84,0,0,0,1,2.18c.32.47.57.68.68.62s-.17-1.24-.37-3.05a12.18,12.18,0,0,1,5.68-11.95c1.53-1,2.67-1.4,2.61-1.67,0-.12-.35-.17-.92-.12a8.07,8.07,0,0,0-2.31.66,11.48,11.48,0,0,0-5.66,5.5Z" style="fill:#fff"></path></g><g style="opacity:0.2"><path d="M238.56,128c0-.24-.13-.51-.47-.72a3.07,3.07,0,0,0-2.83,0c-.35.21-.52.47-.48.72.09.5.93.76,1.88.77C236.66,128.73,238.14,128.57,238.56,128Z" style="fill:#fff"></path></g><path d="M239.37,165.39a6.77,6.77,0,0,1-.77-.24,6.76,6.76,0,0,0-1.92-.24,6.15,6.15,0,0,0-1.89.34,5.84,5.84,0,0,1-.77.27,2.51,2.51,0,0,1,.72-.39,5.46,5.46,0,0,1,1.94-.4,5.61,5.61,0,0,1,2,.3A2.91,2.91,0,0,1,239.37,165.39Z" style="fill:#455a64"></path><path d="M241.21,162.09s-2,.08-4.55.07-4.55-.06-4.55-.11,2-.08,4.55-.07S241.21,162,241.21,162.09Z" style="fill:#455a64"></path><path d="M240.5,163.41a5.63,5.63,0,0,1-1.11.11c-.69,0-1.64.07-2.69.08s-2,0-2.69,0a5.84,5.84,0,0,1-1.11-.09,9.26,9.26,0,0,1,1.11,0l2.69,0,2.69,0A9.93,9.93,0,0,1,240.5,163.41Z" style="fill:#455a64"></path></g><g id="freepik--character-2--inject-17"><path d="M388,118.85a9,9,0,0,0-9.18-4.68,12.31,12.31,0,0,0-15,0,11.2,11.2,0,0,0-10.71-.42,10.94,10.94,0,0,0-5.86,8.88,9.35,9.35,0,0,0-9.59,4.54A9.16,9.16,0,0,0,339,137.57a8.93,8.93,0,0,0-6,9.92,9,9,0,0,0,9.37,6.94l43.87-25.52A8.77,8.77,0,0,0,388,118.85Z" style="fill:#263238"></path><path d="M341,155.61a36.88,36.88,0,0,1,37.6-32.92l1.92,0c20.64,1.61,30.78,19.86,28.58,40.24l-4.41,68-3,8.5-35.56,44.1-9-39.73L357,225.44s-19.8-3.46-19.64-23.12C337.43,192.82,339.2,173.28,341,155.61Z" style="fill:#ffbf9d"></path><path d="M357,225.47s12.48.95,26-7.07c0,0-6.38,14.06-26,11.95Z" style="fill:#ff9a6c"></path><path d="M345.66,173.25a2.8,2.8,0,0,0,2.67,2.89,2.7,2.7,0,0,0,3-2.47,2.82,2.82,0,0,0-2.67-2.89A2.7,2.7,0,0,0,345.66,173.25Z" style="fill:#263238"></path><path d="M344.84,166.31c.35.38,2.53-1.15,5.58-1.08s5.26,1.62,5.6,1.26c.16-.16-.18-.83-1.14-1.55a7.92,7.92,0,0,0-4.47-1.47A7.56,7.56,0,0,0,346,164.8C345,165.49,344.67,166.15,344.84,166.31Z" style="fill:#263238"></path><path d="M373,174.77a2.82,2.82,0,0,0,2.67,2.89,2.71,2.71,0,0,0,3-2.47A2.82,2.82,0,0,0,376,172.3,2.7,2.7,0,0,0,373,174.77Z" style="fill:#263238"></path><path d="M374.05,166.49c.35.37,2.53-1.16,5.58-1.09s5.26,1.63,5.6,1.27c.16-.16-.18-.83-1.14-1.56a7.84,7.84,0,0,0-4.47-1.46,7.52,7.52,0,0,0-4.45,1.32C374.22,165.67,373.88,166.32,374.05,166.49Z" style="fill:#263238"></path><path d="M363.53,188.67c0-.17-1.87-.53-4.94-1-.77-.09-1.51-.26-1.63-.79a3.92,3.92,0,0,1,.57-2.28l2.43-5.82c3.37-8.3,5.83-15.13,5.49-15.26s-3.35,6.49-6.72,14.79c-.82,2-1.59,4-2.33,5.86a4.41,4.41,0,0,0-.47,3,1.94,1.94,0,0,0,1.26,1.15,5.28,5.28,0,0,0,1.32.21C361.6,188.79,363.52,188.84,363.53,188.67Z" style="fill:#263238"></path><path d="M374.19,157.86c.35.79,3,.14,6.19.26s5.84.83,6.18,0c.15-.37-.37-1.09-1.47-1.78a9.63,9.63,0,0,0-4.72-1.34,9.29,9.29,0,0,0-4.71,1.1C374.56,156.78,374,157.48,374.19,157.86Z" style="fill:#263238"></path><path d="M345.71,158c.46.74,2.62.24,5.14.47s4.6.93,5.17.27c.25-.33,0-1.05-.88-1.79a7.57,7.57,0,0,0-8.31-.59C345.87,157,345.5,157.69,345.71,158Z" style="fill:#263238"></path><path d="M343.11,146.64s5.5-12.2,11.56-14.95c7.33-3.33,10.29,4.62,17.25,2.84s14-5,20.93.47c7.62,6,3.9,9.95,4.2,18.68,1.2,35.4,7.52,45.53,9.72,28.91.24-1.82,5.39-3.16,6.31-10.86,1.19-10,1.83-22.11-.27-29.25-1.78-6-5.14-10.22-11.22-14.9-9.6-7.39-23-7.81-32.11-7.09S342.6,131.21,343.11,146.64Z" style="fill:#263238"></path><path d="M405.52,182a5.37,5.37,0,0,1,5.93-5c3.69.42,7.77,2.59,7.37,10.16-.71,13.43-14.19,10-14.19,9.56S405.17,187.65,405.52,182Z" style="fill:#ffbf9d"></path><path d="M407.85,191.83c.06,0,.23.18.62.38a2.34,2.34,0,0,0,1.76.13c1.46-.45,2.79-2.64,3-5.05a7.64,7.64,0,0,0-.48-3.39,2.7,2.7,0,0,0-1.68-1.88,1.19,1.19,0,0,0-1.43.56c-.2.37-.13.64-.21.66s-.27-.24-.14-.79a1.51,1.51,0,0,1,.58-.81,1.79,1.79,0,0,1,1.33-.27,3.3,3.3,0,0,1,2.36,2.21,7.9,7.9,0,0,1,.62,3.78c-.23,2.7-1.77,5.16-3.76,5.62a2.52,2.52,0,0,1-2.14-.47C407.86,192.16,407.8,191.86,407.85,191.83Z" style="fill:#ff9a6c"></path><path d="M405.8,156c-1.79,1.16-3.68,2.35-5.81,2.51s-4.54-1.09-4.85-3.18c-.14-.94.11-2-.5-2.76s-2.09-.63-3.23-.54a8.65,8.65,0,0,1-8.87-6.33c-1,1.47-3.39,1.36-4.89.36s-2.45-2.62-3.62-4-2.81-2.62-4.61-2.41c-1,.12-2,.7-3,.59-1.78-.2-2.61-2.28-2.84-4s-.4-3.8-1.89-4.79-3.21-.43-4.85-.23-3.76-.22-4.15-1.81a3.2,3.2,0,0,1,.66-2.43,8.84,8.84,0,0,1,10.45-3.08A12,12,0,0,1,385.78,122a12.41,12.41,0,0,1,10.88-2.59,12.28,12.28,0,0,1,8.37,7.35,9.06,9.06,0,0,1,9.1,3.26,8.82,8.82,0,0,1,.52,9.56c2.41,1.43,4.45,3.87,4.45,6.66s-2.81,5.5-5.5,4.71a5,5,0,0,1-2.05,6.27,5.06,5.06,0,0,1-6.45-1.65" style="fill:#263238"></path><path d="M414.59,151a3.19,3.19,0,0,1-.9,2.57,4.42,4.42,0,0,1-2.75,1.55,4.75,4.75,0,0,1-3.85-1.2l.58-.07a13.87,13.87,0,0,1-2.78,3.3,8,8,0,0,1-2.51,1.47,5.39,5.39,0,0,1-2.74.19,5.31,5.31,0,0,1-3.87-2.3,7.7,7.7,0,0,1-1-2.82,2.76,2.76,0,0,1-.09-1.09c.06,0,.17.36.38,1a9,9,0,0,0,1.2,2.58c1.25,2,5.42,3,8.16.36a13.58,13.58,0,0,0,2.65-3.09l.25-.39.33.31a4.12,4.12,0,0,0,3.25,1.1,4,4,0,0,0,2.48-1.23A6.28,6.28,0,0,0,414.59,151Z" style="fill:#455a64"></path><path d="M389.57,119.74c0,.05-.35.09-1,.33a4.69,4.69,0,0,0-2.14,1.73l-.17.26-.18-.26a16.88,16.88,0,0,0-6.46-5.39,13.26,13.26,0,0,0-5.32-1.27,11.29,11.29,0,0,0-9.28,4.65,9.14,9.14,0,0,0-1.58,4l-.05.42-.41-.12a7.71,7.71,0,0,0-5.65.57,7.35,7.35,0,0,0-3.16,3.21,10.11,10.11,0,0,0-.93,4,2.77,2.77,0,0,1-.14-1.1,7.38,7.38,0,0,1,.67-3,7.75,7.75,0,0,1,3.27-3.55,8.27,8.27,0,0,1,6.15-.72l-.46.3a9.68,9.68,0,0,1,1.66-4.37,11.91,11.91,0,0,1,9.93-5,13.73,13.73,0,0,1,5.6,1.41,16.46,16.46,0,0,1,6.51,5.77h-.35a4.56,4.56,0,0,1,2.42-1.71A2.14,2.14,0,0,1,389.57,119.74Z" style="fill:#455a64"></path><path d="M371.58,193.4s3.92,8.1-4.47,10a4,4,0,0,1-2.2-.12h0a4,4,0,0,1-2.63-2.8l-1.16-4.41C361.51,196.22,371.58,193.4,371.58,193.4Z" style="fill:#ff9a6c"></path><path d="M364,203.42a8.45,8.45,0,0,1,1.09.1,7.22,7.22,0,0,0,2.87-.43,6.3,6.3,0,0,0,4-7.67,6,6,0,0,0-.86-1.89l.28.1c-3.24.82-6.1,1.52-8.16,2l-2.42.55a3.67,3.67,0,0,1-.9.13,3.76,3.76,0,0,1,.85-.31l2.39-.7c2-.57,4.87-1.33,8.1-2.17l.18,0,.1.14a6.56,6.56,0,0,1,.94,2.06,6.92,6.92,0,0,1-.8,5.42,6.83,6.83,0,0,1-6.59,3A2.86,2.86,0,0,1,364,203.42Z" style="fill:#263238"></path><path d="M304.4,254s-14.21,7.61-17.11,27.54c-2.48,17.12-17.45,108.9-17.45,108.9L256.5,447h34.58L309.89,346.7Z" style="fill:#057D1D"></path><polygon points="314.54 447.15 333.98 271.11 350.94 232.29 356.62 228.36 360.71 245.64 366.2 265.18 381.2 246.33 404.89 227.97 405.44 237.03 416.81 270.29 407.38 357.07 407.38 446.96 314.54 447.15" style="fill:#fff"></polygon><path d="M357,447a2.48,2.48,0,0,0,.05-.47c0-.34,0-.79.07-1.37,0-1.25.11-3,.19-5.27.16-4.63.38-11.25.66-19.41.58-16.39,1.49-39,2.79-64s2.77-47.6,3.9-64c.58-8.15,1-14.75,1.37-19.37.15-2.25.27-4,.36-5.27,0-.57,0-1,.07-1.37a1.4,1.4,0,0,0,0-.47,3.58,3.58,0,0,0-.07.47c0,.34-.08.79-.14,1.36-.12,1.25-.28,3-.49,5.26-.41,4.57-.95,11.18-1.58,19.36-1.27,16.35-2.8,39-4.11,63.95s-2.14,47.63-2.59,64c-.22,8.2-.37,14.83-.44,19.42,0,2.26-.05,4-.06,5.28v1.37A2.42,2.42,0,0,0,357,447Z" style="fill:#263238"></path><path d="M436.18,351.81l27.23-84.31-48.19-25.9-10.06-10.9s-2.15,45.23-2.48,57.21-5.61,57.39-8,85c-1.25,14.75-.45,39.4.29,53.29.85,15.93.67,21.2.67,21.2l47.15-.26-15.6-62.08Z" style="fill:#057D1D"></path><path d="M337.25,241.4,304.4,254l-5.1,122.16-12.69,71,36.24.68c.33-8.65,9.55-80.73,9.55-80.73l12.11-112.8L354,230.2Z" style="fill:#057D1D"></path><path d="M337.85,240.73a4.53,4.53,0,0,0-.6.67l-1.66,2-6.17,7.65-.13.16.17.13,5.23,3.93.07-.43-6.13,1.92-.2.06v.2c.12,10.82.27,24.45.43,39.22.26,18,.5,34.34.68,46.21.12,5.87.21,10.64.28,14,.05,1.61.09,2.88.12,3.8,0,.4,0,.73,0,1a1.73,1.73,0,0,0,0,.34,1.44,1.44,0,0,0,0-.34c0-.26,0-.59,0-1,0-.92,0-2.2,0-3.81,0-3.36,0-8.13-.06-14-.13-11.88-.3-28.2-.48-46.22-.21-14.77-.41-28.39-.57-39.21l-.19.26,6.12-2,.46-.14-.39-.29L329.71,251l0,.29,6-7.76,1.58-2.08A5.35,5.35,0,0,0,337.85,240.73Z" style="fill:#263238"></path><path d="M397.65,358.78s.06-.11.13-.33.19-.57.32-1l1.23-3.73c1.07-3.23,2.66-7.9,4.71-13.64,1-2.87,2.17-6,3.39-9.38a111,111,0,0,0,3.44-10.93A243.35,243.35,0,0,0,415.69,294c1.67-12,2.74-23.31,3.4-33v-.13l-.1-.1-5.29-5,0,.41,5-3.77.19-.15-.14-.19-9.05-12.15-2.49-3.28-.66-.84c-.16-.19-.24-.28-.25-.27a2.22,2.22,0,0,0,.19.31c.16.23.36.52.6.89l2.39,3.35c2.12,2.95,5.15,7.13,8.87,12.27l0-.34-5,3.73-.25.19.23.23,5.25,5.08-.09-.23c-.71,9.7-1.82,21-3.48,33a255.58,255.58,0,0,1-4.75,25.72q-1.51,5.85-3.37,10.9L403.58,340c-2,5.77-3.51,10.46-4.51,13.72-.5,1.64-.87,2.91-1.1,3.77-.1.41-.19.73-.26,1A1.48,1.48,0,0,0,397.65,358.78Z" style="fill:#263238"></path><g style="opacity:0.30000000000000004"><polygon points="436.18 421.32 410.08 431.44 408.34 425.69 395.41 436.36 394.7 420.44 406.07 404.67 434.27 413.71 436.18 421.32"></polygon></g><path d="M482,393.73a9.81,9.81,0,0,0,4.67-8,88.17,88.17,0,0,0-.79-13.63c-1.87-15.37-22.48-104.6-22.48-104.6L433,337l8.78,30.27-44.73,21.2,12.45,34.78S469,401.76,482,393.73Z" style="fill:#057D1D"></path><path d="M451.51,288.07a3.67,3.67,0,0,0-.28.78l-.69,2.27c-.59,2.06-1.4,4.9-2.4,8.38-2,7.09-4.73,16.88-7.51,27.77s-5,20.82-6.37,28.05c-.7,3.62-1.22,6.55-1.53,8.59-.15,1-.27,1.73-.36,2.34a4.6,4.6,0,0,0-.08.82,3.1,3.1,0,0,0,.22-.8c.12-.6.28-1.37.48-2.32.43-2.1,1-5,1.75-8.53,1.5-7.2,3.78-17.11,6.56-28s5.44-20.69,7.32-27.8c.9-3.5,1.65-6.36,2.18-8.44.23-.95.42-1.71.56-2.31A3.27,3.27,0,0,0,451.51,288.07Z" style="fill:#263238"></path><path d="M467.2,400.88a1.19,1.19,0,0,0-.29.08l-.84.29-3.22,1.2-12,4.57-41.41,16,.43.2-8.34-23.34c-1.39-3.9-2.77-7.73-4.1-11.45l-.17.42,44.21-21.12h0a25.92,25.92,0,0,1,18.17.76,32.63,32.63,0,0,1,4.48,2.34l1.11.72a1.69,1.69,0,0,0,.39.22,3,3,0,0,0-.35-.28l-1.07-.78a29.74,29.74,0,0,0-4.46-2.46,25.77,25.77,0,0,0-7.79-2.08,26.73,26.73,0,0,0-10.63,1.1h0l-44.3,20.95-.28.13.11.29,4.09,11.45,8.37,23.33.11.32.32-.13L451,407.4l11.95-4.75,3.18-1.29.82-.35Z" style="fill:#263238"></path><path d="M366.76,264.48a9.08,9.08,0,0,0,1.26-1.13l3.33-3.28c2.89-2.91,6.79-6.86,11.26-11.38l-.48,0a14.31,14.31,0,0,1,3.18,9.69l-.05.77.6-.48c5.7-4.57,10.31-9,13.77-12.11,1.71-1.54,3.1-2.77,4.06-3.6a13.44,13.44,0,0,0,1.47-1.34,11.23,11.23,0,0,0-1.63,1.15c-1,.77-2.45,1.95-4.21,3.45-3.53,3-8.22,7.41-13.88,11.92l.55.29a13.78,13.78,0,0,0-.28-3.76,14.11,14.11,0,0,0-3.08-6.41l-.24-.28-.25.26-11.09,11.55q-1.95,2.1-3.2,3.42A9.49,9.49,0,0,0,366.76,264.48Z" style="fill:#263238"></path><path d="M351.69,239.58a3.46,3.46,0,0,0-.05,1c0,.68,0,1.68.13,2.92a62.11,62.11,0,0,0,1.67,10l.21.83.4-.76a24.48,24.48,0,0,1,4.36-6c.5-.5,1-1,1.51-1.4l-.55-.19a90.92,90.92,0,0,0,4.07,13.31c.64,1.64,1.21,2.94,1.63,3.83a6.64,6.64,0,0,0,.71,1.34,7.53,7.53,0,0,0-.48-1.44c-.38-1-.86-2.34-1.42-3.89A113.4,113.4,0,0,1,360,246l-.13-.56-.43.37c-.52.44-1.05.92-1.56,1.44a23.89,23.89,0,0,0-4.45,6.15l.6.07a74.23,74.23,0,0,1-1.9-9.93C351.87,241,351.77,239.58,351.69,239.58Z" style="fill:#263238"></path><g style="opacity:0.30000000000000004"><path d="M328.71,257,325,262.14s1.05,77.45,5,96.68Z"></path></g><path d="M286.61,447.15s0-.13.05-.37.11-.62.19-1.08c.17-1,.43-2.37.75-4.16.69-3.63,1.67-8.87,2.9-15.36,2.5-13.05,6-31.16,9.89-51.53v.05c0-2.73-.06-5.63-.09-8.56-.22-22.74-.42-43.32-.57-58.24,0-7.44-.08-13.46-.11-17.65v-4.8c0-.53,0-.94,0-1.25a1.91,1.91,0,0,1,0-.42,2.24,2.24,0,0,1,0,.42l0,1.25c0,1.12.06,2.73.1,4.8.07,4.19.16,10.21.28,17.65.18,14.92.44,35.5.72,58.23,0,2.94.06,5.83.09,8.56v.06c-4,20.36-7.51,38.46-10.06,51.49l-3,15.34c-.36,1.78-.65,3.17-.85,4.14l-.23,1.07A1.39,1.39,0,0,1,286.61,447.15Z" style="fill:#263238"></path><path d="M290.88,371.78c0,.15-2.6-.07-5.77.16s-5.71.78-5.74.63a16.56,16.56,0,0,1,5.7-1.15A16.8,16.8,0,0,1,290.88,371.78Z" style="fill:#263238"></path><path d="M397.56,390.83s-25.22,5.26-29,6.08-18.55,11.94-20,12.76-5.74,3.53-5.74,3.53,2.75,4.52,7.64,2.88a26.38,26.38,0,0,0,8.12-4.44l-10.43,9.51-11.88,7.26a3.5,3.5,0,0,0-1.48,4.29,2.07,2.07,0,0,0,2.49,1.32c3.37-.6,14.32-4.87,14.32-4.87s.51,6.61,6.54,7.43c0,0,1.3,5.67,6.55,4.46,0,0,5.16,4.23,9.72,1.81s16.43-7.26,18.88-12.18a72.86,72.86,0,0,1,5.54-9.19L408,419.9Z" style="fill:#ffbf9d"></path><path d="M351.61,429.15c.08.18,3.24-1.09,6.92-3.13s6.31-4.29,6.17-4.46-2.9,1.78-6.55,3.78S351.51,428.94,351.61,429.15Z" style="fill:#ff9a6c"></path><path d="M370.85,428.17c-.12-.2-3.24,1.56-6.82,4.07s-6.52,4.48-6.42,4.66,3.26-1.49,6.86-4S371,428.35,370.85,428.17Z" style="fill:#ff9a6c"></path><path d="M375.56,433.24c-.14-.14-2.43,1.78-5.5,3.86s-5.49,3.89-5.36,4.08,2.72-1.33,5.8-3.44S375.73,433.4,375.56,433.24Z" style="fill:#ff9a6c"></path><path d="M372.52,401.17a6.53,6.53,0,0,0-2.65.58,20.26,20.26,0,0,0-5.7,3.2,27.36,27.36,0,0,0-4.58,4.67,8,8,0,0,0-1.44,2.3c.21.17,2.58-3.24,6.5-6.35S372.59,401.4,372.52,401.17Z" style="fill:#ff9a6c"></path></g><g id="freepik--character-3--inject-17"><path d="M505,303.27c.14,1.15-10.35,29.62-10.35,29.62L480,279.79,459.81,284s5.48,73.39,9,83.31c3.79,10.59,25.94,18.51,38.33,4.15,3.54-4.11,14.85-30.33,14.85-30.33Z" style="fill:#a26760"></path><path d="M480,279.79s2.46-6.59.51-12.28S472,257.4,472.4,254s-3.09-11.62-6.26-11-5.5,3.73-2.83,9a67.46,67.46,0,0,1,4.23,10.71s-33-17-35.65-17.36-5.38-.73-6.08,1.39,5.88,4.84,5.88,4.84L440.54,263a49.56,49.56,0,0,0,6.15,12.26c3.8,5.09,11.29,8.49,11.29,8.49l9.61,11.45S482.16,290.27,480,279.79Z" style="fill:#a26760"></path><path d="M432.25,252.05c.05,0,.29-.2.81-.44a3.91,3.91,0,0,1,2.34-.28c2,.36,4.55,2.06,6.64,4.45a35,35,0,0,1,4.45,6.94,14.71,14.71,0,0,0,1.71,3,12.33,12.33,0,0,0-1.13-3.3,27.32,27.32,0,0,0-4.35-7.25c-2.21-2.51-4.92-4.25-7.24-4.5a3.84,3.84,0,0,0-2.6.61C432.36,251.68,432.21,252,432.25,252.05Z" style="fill:#7b4b45"></path><path d="M444.33,256.31c-.13.22,2,1.65,4.74,3.21s5.07,2.64,5.2,2.43-2-1.65-4.75-3.21S444.45,256.1,444.33,256.31Z" style="fill:#7b4b45"></path><path d="M461.79,263.64c.11-.21-2.49-1.08-5.54-.05s-4.6,3.25-4.38,3.35,1.88-1.6,4.67-2.5S461.75,263.91,461.79,263.64Z" style="fill:#7b4b45"></path><path d="M542.6,252.66,554,247.72l39.28,1,14.75,6.2,3,37.72s-55.86,19.88-56.08,19.88-33.26-32.41-33.26-32.41Z" style="fill:#a26760"></path><path d="M529.32,274.91a81.29,81.29,0,0,0,9.31,2.36A88.61,88.61,0,0,0,587,274.51l15.14-5.26s25,50,25.45,51.73S605.86,447.5,605.86,447.5H516.92l2.17-71.72s-1.5-65.91-1.25-66.65Z" style="fill:#263238"></path><path d="M553,243.07l-11.54,8.15c-8.88,2.82-24.66,8.21-29.45,13-7.24,7.16-16.72,55.27-16.72,55.27s-1.66-4.13-5.43-4.13L464,355.87s2.62,21.19,8.86,23.41,23.39,1,23.64,1H507.2l-4,67.13,20.84.09h0l.84-74.62,3.88-46.52L539.57,283Z" style="fill:#455a64"></path><path d="M509.65,292.66a5.12,5.12,0,0,1,.08.91l.12,2.6c.09,2.27.18,5.54.25,9.59.15,8.09.15,19.27-.22,31.62S508.83,360.9,508.2,369c-.31,4-.6,7.3-.82,9.55-.12,1.08-.21,1.94-.28,2.59a6,6,0,0,1-.13.9,4.85,4.85,0,0,1,0-.91c0-.65.1-1.51.17-2.6.15-2.32.37-5.57.64-9.56.52-8.07,1.13-19.24,1.5-31.58s.43-23.51.39-31.6c0-4,0-7.26-.06-9.58,0-1.09,0-2,0-2.61A5.9,5.9,0,0,1,509.65,292.66Z" style="fill:#263238"></path><path d="M509.39,289.16a30.37,30.37,0,0,1-1.63-5.54,28.27,28.27,0,0,1-1.05-5.67,55.6,55.6,0,0,1,2.68,11.21Z" style="fill:#263238"></path><g style="opacity:0.30000000000000004"><path d="M509.74,294.74c-.11.53-.21,1.05-.32,1.58-5.25,26.2-5.57,57.46-2.22,84,1,.13,4.62-81.5,2.43-85"></path></g><path d="M654.59,282.66c-2.54-10.3-8.48-15.2-8.48-15.2l-26,33.73,9.76,146.22h37.52l-4.29-74.23S657.13,293,654.59,282.66Z" style="fill:#455a64"></path><path d="M643.34,276l5.09-6.38a76.65,76.65,0,0,0-25.31-16.38c-7.32-2.77-18.53-7.82-18.53-7.82l-8.05-9.93-1.95,28.66s-1.42,63.31-2.42,74.78c-1,11-12.54,61.24-12.39,108.54l56.14-.09-12.48-73.55s5.1-46.88,5.42-48.41S643.34,276,643.34,276Z" style="fill:#455a64"></path><path d="M646.1,275.64c.13.1-3.94,5-9.08,10.93s-9.41,10.65-9.53,10.55,3.94-5,9.08-10.93S646,275.53,646.1,275.64Z" style="fill:#263238"></path><path d="M532.83,291.84a2.76,2.76,0,0,1-.09-.49c0-.38-.09-.85-.16-1.43-.13-1.33-.31-3.15-.53-5.41l.31.11a82.17,82.17,0,0,0-9.72,13.68l-.62,1.1.1-1.26a81.15,81.15,0,0,1,11.69-36.26c1.66-2.88,3.12-5.14,4.13-6.7l1.2-1.77a3.79,3.79,0,0,1,.45-.6,5,5,0,0,1-.35.66c-.29.47-.65,1.08-1.1,1.83-1,1.59-2.35,3.89-4,6.78a90.47,90.47,0,0,0-9.6,23.89,87.23,87.23,0,0,0-1.9,12.22l-.52-.16a78.17,78.17,0,0,1,9.93-13.65l.29-.3,0,.41c.16,2.26.28,4.08.37,5.41,0,.59.05,1.06.07,1.44A1.73,1.73,0,0,1,532.83,291.84Z" style="fill:#263238"></path><path d="M485.74,375.16a2.39,2.39,0,0,1,.22-.55l.71-1.55c.32-.67.71-1.49,1.11-2.46s.92-2.05,1.38-3.29,1-2.58,1.5-4.06,1-3.05,1.51-4.72a104.86,104.86,0,0,0,2.51-11.08,103,103,0,0,0,1.16-11.3c.05-1.75.12-3.41.08-5s-.07-3-.13-4.32-.18-2.52-.26-3.56-.17-1.95-.27-2.69-.13-1.25-.18-1.69a2.27,2.27,0,0,1,0-.6,2.65,2.65,0,0,1,.13.58c.08.44.17,1,.28,1.69s.26,1.63.36,2.68.27,2.24.33,3.56.19,2.78.2,4.34,0,3.23,0,5a90,90,0,0,1-3.69,22.49c-.53,1.68-1,3.28-1.56,4.74s-1.06,2.82-1.57,4.05-1,2.31-1.45,3.27-.84,1.77-1.2,2.43l-.8,1.51A2.2,2.2,0,0,1,485.74,375.16Z" style="fill:#263238"></path><path d="M604.59,245.45a4.35,4.35,0,0,1,.06.82c0,.59,0,1.38.07,2.37,0,2.11.08,5.07.13,8.71.08,7.36.17,17.52.12,28.75,0,2.52-.05,5-.08,7.37,0,1.19,0,2.37-.11,3.53,0,.29,0,.57-.06.87l0,.23a.44.44,0,0,1,0,.14.59.59,0,0,1,0,.08v0l-.07.06a.22.22,0,0,1-.15,0,.31.31,0,0,1-.13,0,1.76,1.76,0,0,1-.42-.3c-.43-.39-.82-.8-1.2-1.2-3-3.26-5.63-6.35-7.9-9l.35-.1c-.69,4.34-1.26,7.88-1.66,10.4-.2,1.19-.36,2.13-.48,2.83l-.14.74a1,1,0,0,1-.06.25.75.75,0,0,1,0-.26c0-.2,0-.45.08-.75.09-.7.22-1.65.38-2.85.35-2.52.86-6.07,1.48-10.42l.06-.43.28.33c2.29,2.63,4.93,5.71,8,8.93.38.4.77.8,1.18,1.17l.25.2s0,.08,0,.18-.1-.06-.2-.05l0-.06,0-.2c0-.27,0-.56.06-.84.05-1.15.08-2.32.1-3.51,0-2.39,0-4.85.07-7.36,0-11.2,0-21.34,0-28.74,0-3.64,0-6.61,0-8.72,0-1,0-1.78,0-2.37A6.47,6.47,0,0,1,604.59,245.45Z" style="fill:#263238"></path><path d="M627.49,304.64a3,3,0,0,1,0,.34c0,.25,0,.58,0,1,0,.91-.11,2.2-.19,3.85-.19,3.38-.47,8.23-.81,14.23-.74,12.06-1.76,28.77-2.9,47.46v-.06c.27,1.59.57,3.28.86,5,3.37,19.6,6.43,37.35,8.64,50.22,1.08,6.41,2,11.61,2.56,15.23.28,1.78.51,3.17.67,4.15.06.45.12.81.16,1.08a1.71,1.71,0,0,1,0,.37l-.09-.36c0-.27-.12-.62-.21-1.07-.18-1-.43-2.36-.76-4.13-.65-3.62-1.58-8.81-2.72-15.2-2.26-12.87-5.36-30.61-8.79-50.2-.29-1.71-.59-3.4-.86-5v-.06c1.21-18.69,2.28-35.39,3.06-47.46.41-6,.74-10.83,1-14.21.13-1.65.22-2.94.29-3.84l.09-1A1.26,1.26,0,0,1,627.49,304.64Z" style="fill:#263238"></path><path d="M540.69,149.17c-8.94.19-16.6,13.32-15.28,20.72.65,3.59,2.29,7.72-.65,10.38s-9,2.41-11.8,5.12c0,0-3.55,3.5-3.16,8s-.36,10.58-4,12.19L523.92,212c1.87-1.87,2.62-4.83,4.49-6.7-2.14,2-4.22,9,5.48,9.76l6-5.26c16.49,4.2,33.83,9.43,47,2.34" style="fill:#263238"></path><path d="M624.7,188.51c-1.19-3.39-3.14-6.53-4-10-1.77-7.53,1.79-16.11-2-22.85-2.72-4.79-8.38-7.07-13.73-8.59s-10.45-2.43-14.48-6.22c-3-2.78-4.68-6.64-7.63-9.43-4.2-4-10.32-5.24-16.12-5.49-6-.26-12.12.42-17.42,3.12s-9.68,7.66-10.52,13.5c-.42,2.85,0,5.83-.87,8.58-.94,3-3.28,5.41-4.7,8.25a15,15,0,0,0,4.15,18.08L579.22,229c8.65,3.06,18.07-7.81,24.6-14.21S627.71,197.1,624.7,188.51Z" style="fill:#263238"></path><path d="M538.34,171.33c1.47-11.9,10.34-26.08,22.29-24.13l37,11.58c3.63.6,5.58,3.47,5.29,7.1l-7.63,88.36c.09,0-.92,1.42-.83,1.44s-10,24.79-34.38,15.68c-4.83-1.8-7-.13-7.68-5.66h0c-1.06-.42-6.09-2.16-6.06-2.78L553,243.07h0c.34-7.24.56-9.43.55-9.37s-15.27-2.87-17.28-23C535.24,200.75,536.71,184.55,538.34,171.33Z" style="fill:#a26760"></path><path d="M567.53,188.45a2.57,2.57,0,0,0,2.34,2.72,2.47,2.47,0,0,0,2.8-2.14,2.58,2.58,0,0,0-2.34-2.73A2.48,2.48,0,0,0,567.53,188.45Z" style="fill:#263238"></path><path d="M541.82,187.79a2.56,2.56,0,0,0,2.33,2.72,2.47,2.47,0,0,0,2.8-2.14,2.58,2.58,0,0,0-2.33-2.73A2.47,2.47,0,0,0,541.82,187.79Z" style="fill:#263238"></path><path d="M540.71,179.87c.29.46,2.66-1.08,5.67-.7s5,2.38,5.36,2c.18-.17-.06-1-.91-1.9a7,7,0,0,0-4.22-2.11,6.91,6.91,0,0,0-4.58,1.08C541,178.94,540.57,179.66,540.71,179.87Z" style="fill:#263238"></path><path d="M568.23,182.38c.36.43,2.69-1.31,5.92-1.23s5.55,1.84,5.91,1.43c.18-.18-.18-.94-1.19-1.76a8,8,0,0,0-4.72-1.66,7.68,7.68,0,0,0-4.72,1.5C568.41,181.45,568.05,182.19,568.23,182.38Z" style="fill:#263238"></path><path d="M557.37,201.31c0-.16-1.69-.55-4.46-1.07-.71-.11-1.37-.29-1.46-.78a3.49,3.49,0,0,1,.6-2.05c.76-1.66,1.57-3.4,2.41-5.22,3.36-7.43,5.84-13.56,5.54-13.7s-3.28,5.79-6.64,13.23L551,197a4.08,4.08,0,0,0-.53,2.74,1.8,1.8,0,0,0,1.1,1.09,5.64,5.64,0,0,0,1.2.24C555.6,201.35,557.35,201.46,557.37,201.31Z" style="fill:#263238"></path><path d="M553.52,233.7a51.76,51.76,0,0,0,27.36-5.54s-7.63,14.18-27.65,11.15Z" style="fill:#7b4b45"></path><path d="M568.32,173c.23.77,3,.57,6.26,1.15s5.82,1.61,6.29,1c.21-.31-.21-1-1.23-1.83a10.47,10.47,0,0,0-4.59-1.89,10.58,10.58,0,0,0-5,.28C568.86,172.12,568.23,172.67,568.32,173Z" style="fill:#263238"></path><path d="M541.57,170c.53.66,2.75.14,5.38.26s4.83.7,5.38.08c.24-.31-.07-1-1-1.6a8.37,8.37,0,0,0-4.31-1.28,8.2,8.2,0,0,0-4.35,1C541.69,169,541.35,169.64,541.57,170Z" style="fill:#263238"></path><path d="M636.6,184.7c-1.9-3.47,1.77-7.35-1.15-10.55-2.66-2.93-9.67-3-12.16-6-2-2.33-2-2.94-2.1-5.12-.08-2.74-1.33-14.22-18.27-16.56l-2.35,10.44c-1.06-.49-2.16-.92-3.24-1.31a186.78,186.78,0,0,0-42.77-10c-1.76,3,0,7,2.76,9.09s6.31,2.89,9.6,4,6.69,3,8.09,6.13c1.5,3.37.36,7.41,1.69,10.85,2.27,5.91,10.7,7.68,12.95,13.61,1.69,4.49-.86,9.34-1.44,14.09a17.38,17.38,0,0,0,5.51,14.7c3.18,2.89,8.6,8.13,9,7.08L648,197.15C650.65,190.85,639.21,189.46,636.6,184.7Z" style="fill:#263238"></path><path d="M537.13,218.72a2.47,2.47,0,0,1-.46.23,9.62,9.62,0,0,1-1.4.53,13.31,13.31,0,0,1-5.47.39,13.72,13.72,0,0,1-7.34-3.39,12.18,12.18,0,0,1-2.82-3.89,13.93,13.93,0,0,1-1.17-5,12.91,12.91,0,0,1,3.24-9.21,13,13,0,0,1,7-4,12.59,12.59,0,0,1,5.48.1,10.11,10.11,0,0,1,1.42.47,3.81,3.81,0,0,1,.48.21,2.32,2.32,0,0,1-.51-.14,13.74,13.74,0,0,0-1.42-.38,13,13,0,0,0-5.39,0,12.89,12.89,0,0,0-6.81,3.94,12.62,12.62,0,0,0-3.1,8.95,13.77,13.77,0,0,0,1.12,4.86,12,12,0,0,0,2.72,3.78,13.6,13.6,0,0,0,7.12,3.38,13.74,13.74,0,0,0,5.39-.26,12.7,12.7,0,0,0,1.41-.45A2,2,0,0,1,537.13,218.72Z" style="fill:#e0e0e0"></path><path d="M626.82,209.72a1.61,1.61,0,0,1,.11-.3,6.61,6.61,0,0,0,.31-.91,8,8,0,0,0,.15-3.62,8.87,8.87,0,0,0-2.73-5,7.54,7.54,0,0,0-3.14-1.72c-1.24-.35-2.62-.46-4-.94a5.5,5.5,0,0,1-2-1.13,5.25,5.25,0,0,1-1.31-1.95,11.59,11.59,0,0,1-.58-4.86,27,27,0,0,0,.07-5.17,6.59,6.59,0,0,0-.86-2.5,6.14,6.14,0,0,0-1.91-1.92,17.7,17.7,0,0,0-5.43-1.93,18,18,0,0,1-5.78-2.12,6.92,6.92,0,0,1-2.19-2.31,9.74,9.74,0,0,1-1.06-3c-.41-2.12-.41-4.29-.81-6.41a12.46,12.46,0,0,0-7.82-9.19,22.39,22.39,0,0,0-6-1,13.54,13.54,0,0,1-3-.54,6.26,6.26,0,0,1-2.55-1.49c-1.41-1.42-1.9-3.31-2.52-5a12.42,12.42,0,0,0-2.6-4.41,13.27,13.27,0,0,0-8.14-4.12,12,12,0,0,0-7.41,1.58,13.74,13.74,0,0,0-4.26,3.9,12.06,12.06,0,0,0-1.63,3.28,9.07,9.07,0,0,0-.27.91,1.93,1.93,0,0,1-.1.32,10,10,0,0,1,.29-1.26,11.92,11.92,0,0,1,1.58-3.34,13.74,13.74,0,0,1,4.27-4,12.31,12.31,0,0,1,7.56-1.68,13.54,13.54,0,0,1,8.36,4.19,12.66,12.66,0,0,1,2.69,4.51c.62,1.67,1.12,3.51,2.45,4.83s3.32,1.74,5.27,1.91a21.91,21.91,0,0,1,6.07,1,12.79,12.79,0,0,1,8.07,9.47c.41,2.18.41,4.35.81,6.41a9.38,9.38,0,0,0,1,2.92,6.38,6.38,0,0,0,2.07,2.19c3.45,2.22,7.85,1.94,11.19,4.06a6.66,6.66,0,0,1,2,2,7.12,7.12,0,0,1,.89,2.64,26.7,26.7,0,0,1-.08,5.23,11.25,11.25,0,0,0,.54,4.74,4.94,4.94,0,0,0,1.22,1.84A5.05,5.05,0,0,0,617.6,197c1.34.47,2.73.6,4,1a8,8,0,0,1,3.22,1.8,9.09,9.09,0,0,1,2.74,5.12,7.84,7.84,0,0,1-.23,3.67,6.08,6.08,0,0,1-.35.89Z" style="fill:#455a64"></path><path d="M567.14,205.41a1.44,1.44,0,0,0-.71-.56,1.63,1.63,0,0,0-1,.17l-8.22,3.25h0c.22,4.56,3.11,6.32,5.28,6.36a5.94,5.94,0,0,0,5.28-3.15A5.82,5.82,0,0,0,567.14,205.41Z" style="fill:#7b4b45"></path><path d="M561.34,214.47a8.32,8.32,0,0,0,3.56-.57,4.87,4.87,0,0,0,2.71-2.57,6.54,6.54,0,0,0,0-4.63,6.38,6.38,0,0,0-1-1.71l.29.07c-2.79,1.12-5.31,2-7.12,2.51a16.63,16.63,0,0,1-3,.75,21.79,21.79,0,0,1,2.84-1.07c1.78-.63,4.26-1.53,7-2.66l.17-.07.12.14a6.52,6.52,0,0,1,1.08,1.85,6.87,6.87,0,0,1,0,5,5.15,5.15,0,0,1-3,2.74,6.54,6.54,0,0,1-2.71.44A2.27,2.27,0,0,1,561.34,214.47Z" style="fill:#263238"></path></g><g id="freepik--character-1--inject-17"><path d="M201.54,339.4l13.84-4,17.16-6.48,13.63-7.39s1.19-1.18-.48-2.65-9.08,2.64-9.08,2.64l-5.87,2.19s-5,.4-4.67-.06,8-4.18,8-4.18l13.09-7.12s3.69-1.91,2.55-4.36c-.55-1.16-1.91-1.85-4.42-.89s-6.47,3.45-7.89,4-9.51,4.21-9.51,4.21l16.76-11.48s5.46-3.25,3.71-5.55-5.08.23-7,1-12.43,7.46-16.53,9.32c-3.51,1.6-2.66.27-2.66.27l9.94-6.14c4.39-2.71,7.72-5.4,4.86-7.18-1.86-1.16-10.27,3.32-10.27,3.32l-12.42,6.94-5.92,2.62,4.93-4.42a16.77,16.77,0,0,0,5.4-6.72c1.73-4.27-1.78-4.41-1.78-4.41l-20.26,13.86c-3.15,2.75-6.87,16-6.87,16L150.65,338.4l16.22,23.73Z" style="fill:#ffbf9d"></path><path d="M207.81,308s.25.22.61.71a13.64,13.64,0,0,1,1.27,2.2,14.89,14.89,0,0,1-2.18,15.85,12.31,12.31,0,0,1-1.81,1.79,3.14,3.14,0,0,1-.77.52c-.06-.08,1-.87,2.3-2.54A15.38,15.38,0,0,0,209.35,311C208.55,309.06,207.73,308,207.81,308Z" style="fill:#ff9a6c"></path><path d="M206.74,253.92c.3-1.43,1.76-2.27,3-3.13a14.41,14.41,0,0,0,5.79-13.74,14.77,14.77,0,0,0-9.87-11.35,11.36,11.36,0,0,1-3.63-1.47c-2.56-2-1.74-5.94-2.71-9-2.06-6.48-11.53-7.76-14.93-13.68-2.07-3.61-1.38-8-1.19-12.17s-.62-8.95-4.29-11c-2-1.11-4.45-1.18-6.38-2.37-4-2.45-3.82-8-5.29-12.38-2.32-6.87-10.23-11.47-17.53-10.2,0,0,2.91-6.22-4.78-9.41-9.29-3.84-9.88,2.66-14.16-1.39a14.26,14.26,0,0,0-17.43-1.21c-1.6,1.13-2.94,2.61-4.69,3.5-2.13,1.1-4.62,1.21-7,1.72-9,1.93-16,10.44-15.91,19.39l58.64,99.82c2,9.49-3.91,13.75,4.41,19.08,1.74,1.11,14.23,4.41,16.29,4.76,2.56.44,8.73.66,11.11-.37,5.17-2.23,13-5.62,15-10.75a14.73,14.73,0,0,0,16.56-3.72,13.86,13.86,0,0,0,.82-16.56C207.65,256.94,206.4,255.5,206.74,253.92Z" style="fill:#263238"></path><path d="M86.81,181,86,174.13l41.41-11.71c12.88-2.54,28.19,8.88,30.27,21.53,2.3,14.06,4.55,31.32,3.87,42-1.37,21.54-17.78,25.77-17.78,25.77l3.79,36.63-.65,9.42-41-35.83Z" style="fill:#ffbf9d"></path><path d="M153.46,201.57a2.74,2.74,0,0,1-2.42,3,2.69,2.69,0,0,1-3.12-2.19,2.76,2.76,0,0,1,2.42-3A2.68,2.68,0,0,1,153.46,201.57Z" style="fill:#263238"></path><path d="M154,193.39c-.31.39-2.57-.94-5.57-.66s-5.06,2-5.42,1.62c-.18-.14.11-.81,1-1.58a7.74,7.74,0,0,1,4.3-1.74,7.51,7.51,0,0,1,4.48,1C153.74,192.6,154.12,193.22,154,193.39Z" style="fill:#263238"></path><path d="M126,204.2a2.75,2.75,0,0,1-2.42,3,2.67,2.67,0,0,1-3.12-2.19,2.73,2.73,0,0,1,2.41-3A2.7,2.7,0,0,1,126,204.2Z" style="fill:#263238"></path><path d="M124.5,196.66c-.31.38-2.58-.95-5.58-.66s-5.06,1.95-5.42,1.62c-.17-.15.11-.82,1-1.59a7.85,7.85,0,0,1,4.29-1.74,7.63,7.63,0,0,1,4.49,1C124.28,195.87,124.65,196.48,124.5,196.66Z" style="fill:#263238"></path><path d="M137.53,217.37c0-.16,1.81-.65,4.8-1.31.76-.14,1.47-.36,1.55-.88a3.86,3.86,0,0,0-.73-2.17l-2.83-5.49c-3.95-7.82-6.88-14.27-6.56-14.42s3.79,6.06,7.73,13.88l2.74,5.52a4.32,4.32,0,0,1,.69,2.9,1.91,1.91,0,0,1-1.16,1.21,5.66,5.66,0,0,1-1.28.3C139.45,217.35,137.56,217.54,137.53,217.37Z" style="fill:#263238"></path><path d="M143.76,251.81a59.31,59.31,0,0,1-30.63-4.87s8.94,14.91,31.27,10.89Z" style="fill:#ff9a6c"></path><path d="M124.15,185.11c-.22.82-3.26.72-6.74,1.46s-6.24,1.94-6.78,1.26c-.24-.32.18-1.11,1.25-2a12.23,12.23,0,0,1,10.3-2.08C123.52,184.15,124.24,184.72,124.15,185.11Z" style="fill:#263238"></path><path d="M152,185c-.47.71-2.6.21-5.09.41s-4.55.87-5.11.22c-.24-.32,0-1,.88-1.73a7.06,7.06,0,0,1,4-1.47,7.16,7.16,0,0,1,4.18,1C151.87,184,152.23,184.67,152,185Z" style="fill:#263238"></path><path d="M158.49,168.19A37.45,37.45,0,0,0,138,156.87l-35.07,5.54-9.35,5.76c-.77-2-1.27-3.29-1.27-3.29-3.44-2.21-12.81-6.67-20.4,1.39-2.73,2.91-4.75,10.43-4.61,14.29.06,1.47.3,3.24-1,4.1a4.62,4.62,0,0,1-1.54.54c-8.87,2.19-14.75,11.65-12.32,19.86a4.18,4.18,0,0,1,.28,1.66,4.49,4.49,0,0,1-1.46,2.22,13.52,13.52,0,0,0-1.61,16.12c1,1.54,2.26,3,2.66,4.71.71,3.11-1.62,6-3.4,8.72-5.33,8.14-6,19.67,1.19,26.58,1.74,1.68,3.94,3.15,4.68,5.37a12.35,12.35,0,0,1,.37,3.38c.27,5.74,3.89,12,10,13,3.4.54,7.45-.51,10,1.68A13.53,13.53,0,0,1,77.46,292c2.79,4.64,9.42,7,14.82,5.17s8.89-7.46,7.81-12.67c6.51-2.5,10.83-9.15,10.17-15.65,0,0-3.85-20-2.18-25.59s-2.89-17-5.44-22.56-.58-18.8-.26-24a17.64,17.64,0,0,0-.7-4.45h0c-.31-1.26-.71-2.68-1.17-4.2a36.4,36.4,0,0,1-.35-4.2c-.18-4.94,5-8.7,10.15-7.34a14.19,14.19,0,0,0,3.84.48,13.85,13.85,0,0,0,10.64-5.22,20.73,20.73,0,0,0,19.48,4.07c2.92,3.4,5.88,6.85,9.65,9.43s8.52,4.25,13.14,3.58A32.51,32.51,0,0,0,158.49,168.19Z" style="fill:#263238"></path><path d="M155.1,175.1c-.06,0,0-.78-.18-2.16a13.78,13.78,0,0,0-2.08-5.53,13,13,0,0,0-7-5.35,13.94,13.94,0,0,0-10.95,1.16l-.24.14-.2-.21a20.29,20.29,0,0,0-5-3.89A20.94,20.94,0,0,0,116.16,157a20.24,20.24,0,0,0-10,4.75,20.67,20.67,0,0,0-4.64,5.82c-.82,1.56-1.12,2.5-1.19,2.48a3,3,0,0,1,.18-.69,15.94,15.94,0,0,1,.75-1.91,19.9,19.9,0,0,1,4.56-6.07,20.43,20.43,0,0,1,10.18-5,21.41,21.41,0,0,1,13.72,2.33,20.7,20.7,0,0,1,5.19,4l-.45-.06a14.48,14.48,0,0,1,11.5-1.15,13.26,13.26,0,0,1,7.23,5.69,12.92,12.92,0,0,1,1.93,5.74,8.18,8.18,0,0,1,0,1.63A1.93,1.93,0,0,1,155.1,175.1Z" style="fill:#455a64"></path><path d="M54.52,208.23a47.79,47.79,0,0,0,8.41-1.44,33.41,33.41,0,0,0,16.76-11l.75-.95.1-.13.16,0a19,19,0,0,0,9.9-3.8,20,20,0,0,0,5.65-6.5,21.29,21.29,0,0,0,2.29-7.54s0,.19,0,.55a12,12,0,0,1-.1,1.6,16.92,16.92,0,0,1-1.78,5.61A20,20,0,0,1,91,191.36a19.23,19.23,0,0,1-10.25,4l.27-.14-.76,1a32,32,0,0,1-8.58,7.45,33,33,0,0,1-8.61,3.63,31.12,31.12,0,0,1-6.24,1c-.74.05-1.32,0-1.72,0A2.08,2.08,0,0,1,54.52,208.23Z" style="fill:#455a64"></path><path d="M59.49,268.72a12.09,12.09,0,0,0,1.3.92,7.16,7.16,0,0,0,1.77.7,7.94,7.94,0,0,0,2.59.16,7.21,7.21,0,0,0,3-1,6.14,6.14,0,0,0,1.39-1.18,6,6,0,0,0,1-1.67,7.23,7.23,0,0,0,.33-4.25,6.75,6.75,0,0,0-2.57-4l-.38-.27h.47A14.66,14.66,0,0,0,75.77,256a19.48,19.48,0,0,0,6-5.92c.43-.6.77-1.27,1.15-1.92s.69-1.35,1-2.07a21.14,21.14,0,0,0,1.28-4.48,34,34,0,0,0,.21-9.73,95.53,95.53,0,0,0-3.06-14.23l0-.13.11-.07a35.88,35.88,0,0,0,11.33-12.83,38.15,38.15,0,0,0,2.8-6.79c.28-1.11.63-2.16.8-3.2.1-.52.2-1,.29-1.52s.13-1,.2-1.46a35.51,35.51,0,0,0,0-9c-.11-1.05-.33-1.84-.4-2.38-.05-.26-.08-.46-.11-.62l0-.21a31.89,31.89,0,0,1,.67,3.19,34.06,34.06,0,0,1,.13,9c-.06.48-.08,1-.18,1.48s-.19,1-.28,1.53c-.16,1.05-.51,2.11-.79,3.23a38.14,38.14,0,0,1-2.78,6.86,36,36,0,0,1-11.41,13l.08-.2a95.25,95.25,0,0,1,3.07,14.29,34,34,0,0,1-.21,9.83,21.74,21.74,0,0,1-1.31,4.56c-.27.73-.65,1.41-1,2.1s-.74,1.34-1.18,2a19.82,19.82,0,0,1-6.17,6,14.9,14.9,0,0,1-7.49,2.12l.09-.27a7,7,0,0,1,2.66,4.16,7.47,7.47,0,0,1-.37,4.4,6.55,6.55,0,0,1-1.07,1.73,6.86,6.86,0,0,1-1.46,1.21,7.35,7.35,0,0,1-3.14,1,8.13,8.13,0,0,1-2.64-.2,7.46,7.46,0,0,1-1.79-.75,5.1,5.1,0,0,1-1-.72Z" style="fill:#455a64"></path><path d="M179.74,281s.07-.06.21-.15l.63-.4a11.57,11.57,0,0,0,1-.69,15,15,0,0,0,1.33-1,24.07,24.07,0,0,0,6.49-8.47,23.55,23.55,0,0,0,2-7.18,21.59,21.59,0,0,0-.8-8.56,23.66,23.66,0,0,0-4.59-8.46,23.13,23.13,0,0,0-8.36-6.33l-.25-.11.2-.2a21.34,21.34,0,0,0,5.82-10.91,20.12,20.12,0,0,0,.43-4.08,19.06,19.06,0,0,0-.37-4,18.66,18.66,0,0,0-1.14-3.79,19.88,19.88,0,0,0-1.8-3.42,21.72,21.72,0,0,0-11.16-8.76l-.18-.06.08-.17a19.28,19.28,0,0,0,1.26-13.16,18.83,18.83,0,0,0-5.31-8.86,19.68,19.68,0,0,0-5.63-3.74c-.72-.32-1.29-.53-1.68-.66l-.43-.15q-.15,0-.15-.06a14.6,14.6,0,0,1,2.3.77,19.45,19.45,0,0,1,5.73,3.7,18.92,18.92,0,0,1,5.44,8.93,19.4,19.4,0,0,1-1.23,13.37l-.09-.23A22.11,22.11,0,0,1,180.88,213a20.67,20.67,0,0,1,1.83,3.49,19.48,19.48,0,0,1,1.17,3.85,19.28,19.28,0,0,1,.37,4.09,20.19,20.19,0,0,1-.43,4.16,21.58,21.58,0,0,1-5.94,11.1l0-.31a23.48,23.48,0,0,1,8.48,6.45,24,24,0,0,1,4.63,8.59,21.69,21.69,0,0,1,.77,8.69A23.78,23.78,0,0,1,183,278.84a15.91,15.91,0,0,1-1.36,1,9.86,9.86,0,0,1-1,.66l-.65.38Z" style="fill:#455a64"></path><path d="M129.45,222.45a35.47,35.47,0,0,1,8.16,2.22l0,.07c-.24,1.89-.72,4-2.32,5a4.1,4.1,0,0,1-4.08.14,4.53,4.53,0,0,1-2.38-3.15A9.27,9.27,0,0,1,129.45,222.45Z" style="fill:#ff9a6c"></path><path d="M133.65,230.15s-.22.23-.75.31a3.46,3.46,0,0,1-2.17-.43,4.43,4.43,0,0,1-2.1-2.51,6.83,6.83,0,0,1,0-4,5.64,5.64,0,0,1,.37-1.06.89.89,0,0,1,.89-.4,5,5,0,0,1,.51.14l1.76.49,3,.89a9.31,9.31,0,0,1,2.68,1,9,9,0,0,1-2.85-.41l-3-.7-1.78-.45-.42-.1c0,.07,0-.18,0-.15s.16.15.1.12a7.89,7.89,0,0,0-.26.81,6.51,6.51,0,0,0-.05,3.47,4,4,0,0,0,1.63,2.21A4.87,4.87,0,0,0,133.65,230.15Z" style="fill:#263238"></path><path d="M74.08,447.41H193.32l-2.81-47.47L186.29,343a58.53,58.53,0,0,0-10.84-29.79l-9.07-12.62-11.21-15-6.9-13.52-42.81-17.5-5.29,10.92s-6.23,4.47-10.22,7.88c-7.76,6.63-12.3,15.36-14.89,25.17,0,.09,0,.19-.07.29-2.5,9.63-.55,23.55-.55,23.55L88.67,390.8a128.35,128.35,0,0,0-10.79,31.53C77.27,425.37,75.35,437.49,74.08,447.41Z" style="fill:#455a64"></path><path d="M150.16,279.19a7.72,7.72,0,0,1-1-1.69l-2.39-4.82h.6c-1.29,3.18-2.89,7.13-4.69,11.55l-.17.42-.44-.17-6.77-2.75c-7-2.84-13.25-5.47-17.78-7.41L112.2,272a8.46,8.46,0,0,1-1.91-1,9.52,9.52,0,0,1,2,.64l5.46,2.07c4.6,1.78,10.93,4.31,17.89,7.15l6.76,2.78-.61.25,4.95-11.45.3-.7.3.69c.84,2,1.54,3.6,2.12,4.94A8.36,8.36,0,0,1,150.16,279.19Z" style="fill:#263238"></path><path d="M147.18,417.59a8.31,8.31,0,0,1-2.06-.37c-1.31-.29-3.19-.79-5.49-1.48a136.2,136.2,0,0,1-34-15.58c-2-1.3-3.61-2.39-4.68-3.19a9.2,9.2,0,0,1-1.62-1.31,8.06,8.06,0,0,1,1.83,1l4.83,2.93a182.68,182.68,0,0,0,16.49,8.66,180.32,180.32,0,0,0,17.34,6.85l5.38,1.76A9,9,0,0,1,147.18,417.59Z" style="fill:#263238"></path><path d="M79.19,323.27s22,60.3,29.2,71.22,10.8,14,21.83,12.13,59.46-17.8,59.46-17.8l-.71-9.88-44.83,9.48-25.87-5.31L94.65,346.73Z" style="opacity:0.30000000000000004"></path><path d="M173.42,346.73l-2.44-4-11.84,2.82-17.91,4s-10.39-60.58-25.41-70.3-26-8-35.23,9.15-4.26,27.13-4.26,27.13,23.9,66.77,39.49,80.4,67-12.09,67-12.09l10.42-8.65Z" style="fill:#455a64"></path><path d="M173.42,346.73a4.87,4.87,0,0,1,.36.46l1,1.41,3.92,5.5,14.74,21,.14.2-.19.16L183,384.1l0,0,0,0a216,216,0,0,1-27.54,11.2,119.43,119.43,0,0,1-16.57,4.16,60.35,60.35,0,0,1-9,.84,27.69,27.69,0,0,1-9.31-1.29,14.5,14.5,0,0,1-2.23-.95l-1.08-.58c-.34-.23-.66-.48-1-.73a10.41,10.41,0,0,1-1.79-1.65l-1.7-1.77c-1-1.24-2-2.59-3-3.89s-1.8-2.75-2.72-4.13a190.81,190.81,0,0,1-9.65-17.86c-6-12.43-11.54-25.7-16.88-39.44-1.61-4.17-3.18-8.3-4.64-12.34l0,.05a23.47,23.47,0,0,1-1.16-11.46,42.08,42.08,0,0,1,3-10.86,54.45,54.45,0,0,1,5.21-9.74,28.45,28.45,0,0,1,7.47-7.87,16.56,16.56,0,0,1,10.23-2.89,27.06,27.06,0,0,1,10,2.85c1.5.79,3,1.56,4.4,2.47a16.72,16.72,0,0,1,3.92,3.13,39,39,0,0,1,5.33,8.05A116.86,116.86,0,0,1,131,306.25c1.79,5.5,3.29,10.83,4.59,15.92,2.6,10.19,4.49,19.39,5.89,27.35l-.33-.21,18.29-4L171,342.66l.08,0,0,.06,1.79,3c.39.67.56,1,.56,1s-.23-.3-.65-1l-1.88-3,.11,0-11.45,2.82-18.26,4.16-.27.07-.06-.29c-1.45-7.92-3.4-17.11-6-27.26-1.32-5.08-2.84-10.39-4.65-15.86a116.49,116.49,0,0,0-6.78-16.67,38.63,38.63,0,0,0-5.22-7.86,16.06,16.06,0,0,0-3.75-3c-1.39-.89-2.86-1.65-4.33-2.42a26.34,26.34,0,0,0-9.63-2.74,15.65,15.65,0,0,0-9.67,2.76,27.38,27.38,0,0,0-7.21,7.63,53.83,53.83,0,0,0-5.12,9.57,41.55,41.55,0,0,0-2.89,10.62,22.71,22.71,0,0,0,1.08,10.93l0,.05c1.45,4,3,8.16,4.63,12.32,5.33,13.72,10.83,27,16.83,39.38a188.59,188.59,0,0,0,9.58,17.78c.9,1.37,1.71,2.8,2.68,4.1s1.89,2.61,2.92,3.83l1.63,1.71a10.25,10.25,0,0,0,1.71,1.59c.31.23.61.47.92.68l1,.55a14.13,14.13,0,0,0,2.11.91,27.19,27.19,0,0,0,9,1.26,59.23,59.23,0,0,0,8.89-.81,116.14,116.14,0,0,0,16.46-4.08,216,216,0,0,0,27.49-11l-.06,0L193.06,375l-.05.36c-6.24-9.07-11.15-16.21-14.53-21.11l-3.8-5.58c-.41-.62-.72-1.09-1-1.44A3.24,3.24,0,0,1,173.42,346.73Z" style="fill:#263238"></path><path d="M132.76,380.09c-.12,0-.34-1.78-.28-4.69a49.28,49.28,0,0,1,1.64-11.24,49.86,49.86,0,0,1,4.13-10.58,17.41,17.41,0,0,1,2.56-4c.14.08-.74,1.64-1.94,4.25a64,64,0,0,0-3.82,10.54,65,65,0,0,0-1.89,11A37,37,0,0,1,132.76,380.09Z" style="fill:#263238"></path><path d="M182.82,383.86c0,.05-.52-.38-1.32-1.19s-1.92-2-3.27-3.54a105.59,105.59,0,0,1-9.61-12.66,65.93,65.93,0,0,1-7-14.26,38.46,38.46,0,0,1-1.29-4.64,6.41,6.41,0,0,1-.26-1.74c.17,0,.76,2.39,2.19,6.15a78.84,78.84,0,0,0,7.16,14,143.28,143.28,0,0,0,9.31,12.74A61.1,61.1,0,0,1,182.82,383.86Z" style="fill:#263238"></path><path d="M224.31,347.74l13.83-4,17.17-6.48,13.62-7.39s1.19-1.18-.48-2.65-9.08,2.64-9.08,2.64l-5.86,2.18s-4.95.41-4.68-.05,7.95-4.18,7.95-4.18l13.09-7.12s3.7-1.91,2.55-4.36c-.54-1.17-1.9-1.86-4.42-.89s-6.47,3.45-7.89,4-9.5,4.21-9.5,4.21l16.75-11.48s5.46-3.25,3.71-5.56-5.07.24-7,1-12.43,7.46-16.53,9.32c-3.52,1.6-2.67.27-2.67.27l10-6.14c4.38-2.71,7.71-5.4,4.86-7.18-1.86-1.17-10.28,3.32-10.28,3.32L237,314.16l-5.92,2.62,4.94-4.42a16.7,16.7,0,0,0,5.39-6.72c1.73-4.27-1.77-4.41-1.77-4.41l-20.26,13.86c-3.16,2.75-6.87,16-6.87,16l-39.09,15.06,16.63,24Z" style="fill:#ffbf9d"></path><path d="M224.31,347.74l-.58.4L222,349.3l-6.7,4.43-25.18,16.6-.13.09-.08-.13-16.66-24-.14-.2.23-.09,39.07-15.09-.14.15c.77-2.66,1.65-5.39,2.69-8.15.52-1.37,1.08-2.76,1.73-4.12a13.66,13.66,0,0,1,2.52-3.86h0L239.5,301l.07,0h.08a3,3,0,0,1,1.73.71,2.42,2.42,0,0,1,.75,1.74,7.5,7.5,0,0,1-1.06,3.53,17.13,17.13,0,0,1-4.91,5.62l0,0L231.26,317l-.28-.43,5.92-2.62h0l10.5-5.86a55.2,55.2,0,0,1,5.53-2.82c1-.42,1.92-.82,2.92-1.16a9.72,9.72,0,0,1,3.16-.64,1.78,1.78,0,0,1,.81.21,3.55,3.55,0,0,1,.62.48,1.77,1.77,0,0,1,.58,1.5,3,3,0,0,1-.63,1.42,7.5,7.5,0,0,1-1,1.09,31.62,31.62,0,0,1-4.7,3.34L245,317.44l.08-.08c-.37.23.53.1,1-.12a16.12,16.12,0,0,0,1.72-.73c1.12-.55,2.22-1.15,3.31-1.77,2.19-1.23,4.33-2.5,6.46-3.77l3.19-1.88a35.12,35.12,0,0,1,3.27-1.75c1.09-.46,2.15-1.12,3.32-1.53a4.94,4.94,0,0,1,1.88-.34,2.53,2.53,0,0,1,1.76.81,2,2,0,0,1,.53,1.88,4.13,4.13,0,0,1-.93,1.65,12.89,12.89,0,0,1-2.77,2.35c-2,1.32-3.9,2.66-5.83,4l-11.33,7.76-.23-.42,7.4-3.27c1.22-.56,2.43-1,3.57-1.67l3.44-1.87a23.67,23.67,0,0,1,3.55-1.61,5.41,5.41,0,0,1,2-.27,2.62,2.62,0,0,1,1.82.88,2.57,2.57,0,0,1,.59,1.92,3.3,3.3,0,0,1-.87,1.76,7.75,7.75,0,0,1-1.46,1.24c-.54.35-1.09.61-1.63.91-4.3,2.32-8.44,4.61-12.49,6.75-2.06,1-4.07,2-6,3a12.13,12.13,0,0,0-1.34.81s0,.05,0-.05a.11.11,0,0,0,0-.09h0l.14,0,.38,0h.8c1.07,0,2.14-.08,3.19-.16h-.05l5.87-2.18,0,0a32.49,32.49,0,0,1,6.08-2.63,9.41,9.41,0,0,1,1.58-.32,2.24,2.24,0,0,1,1.61.34,2.75,2.75,0,0,1,.91,1.33,1.7,1.7,0,0,1-.41,1.57h0l0,0-13.64,7.36h0l-17.19,6.44h0l-10.34,2.93-2.63.74-.89.23.87-.28,2.61-.78,10.32-3h0l17.15-6.52h0l13.61-7.41,0,0a1.34,1.34,0,0,0,.32-1.24,2.42,2.42,0,0,0-.8-1.16,1.91,1.91,0,0,0-1.36-.25,9.32,9.32,0,0,0-1.52.31,33.19,33.19,0,0,0-6,2.61h0l-5.87,2.19h0c-1.06.08-2.13.15-3.22.16-.27,0-.54,0-.82,0a3.34,3.34,0,0,1-.43,0,.68.68,0,0,1-.25-.07l-.09-.06a.27.27,0,0,1-.08-.18c0-.18.07-.17.1-.21a9.9,9.9,0,0,1,1.46-.91c1.95-1,4-2,6-3.05,4-2.14,8.17-4.44,12.47-6.77.53-.3,1.09-.57,1.59-.89a6.58,6.58,0,0,0,1.36-1.16,2.84,2.84,0,0,0,.77-1.52,2.16,2.16,0,0,0-.49-1.58,2.13,2.13,0,0,0-1.51-.72,5.09,5.09,0,0,0-1.8.25,23.43,23.43,0,0,0-3.47,1.59l-3.43,1.87c-1.15.66-2.41,1.14-3.61,1.69l-7.38,3.28-.24-.41,11.33-7.78c1.93-1.31,3.86-2.66,5.83-4a13.11,13.11,0,0,0,2.66-2.26,3.73,3.73,0,0,0,.82-1.44,1.45,1.45,0,0,0-.41-1.42c-.73-.87-2-.76-3.1-.34s-2.14,1-3.3,1.52c-2.16,1-4.26,2.37-6.39,3.6s-4.27,2.55-6.46,3.78c-1.1.62-2.2,1.23-3.35,1.79a17.4,17.4,0,0,1-1.77.75,4.75,4.75,0,0,1-1,.25.83.83,0,0,1-.66-.13.47.47,0,0,1-.15-.44.87.87,0,0,1,.12-.33l0,0,.06,0,9.62-5.95a32.24,32.24,0,0,0,4.63-3.28,7.53,7.53,0,0,0,.94-1,2.31,2.31,0,0,0,.53-1.16,1.24,1.24,0,0,0-.43-1.08,3.2,3.2,0,0,0-.51-.4A1.31,1.31,0,0,0,259,304a9.22,9.22,0,0,0-3,.62c-1,.33-1.94.72-2.88,1.14a55.42,55.42,0,0,0-5.49,2.79l-10.5,5.87h0L231.19,317l-1.49.66,1.21-1.08,4.94-4.42h0a16.85,16.85,0,0,0,4.76-5.44,7.15,7.15,0,0,0,1-3.27,1.91,1.91,0,0,0-.59-1.39,2.45,2.45,0,0,0-1.41-.57l.15-.05-20.27,13.86,0,0a13.67,13.67,0,0,0-2.4,3.71c-.64,1.34-1.2,2.71-1.72,4.08-1,2.74-1.92,5.47-2.68,8.1l0,.12-.11,0-39.1,15,.09-.29,16.59,24.07-.21-.05,25.28-16.48,6.73-4.37,1.74-1.12Z" style="fill:#ff9a6c"></path></g></svg>