<svg xmlns="http://www.w3.org/2000/svg" viewBox="0 0 500 500"><g id="freepik--background-complete--inject-184"><g style="opacity:0.7000000000000001"><path d="M189,297.65a.58.58,0,0,0-.73.39,2.78,2.78,0,0,0,0,1.59,1.54,1.54,0,0,0,1,1,1.14,1.14,0,0,0,1.49-1.05.81.81,0,0,0-.21-.57,1.3,1.3,0,0,0-.21-.18l-.15,0c0-.06-.05-.13-.09-.2A2.16,2.16,0,0,0,189,297.65Z" style="fill:#ebebeb"></path><path d="M190.68,323.45a.9.9,0,0,0-.72.77,1.59,1.59,0,0,0,.14.83,2,2,0,0,0,.42.75,1.15,1.15,0,0,0,1,.32,1,1,0,0,0,.69-.51,1,1,0,0,0,.09-.84,1.42,1.42,0,0,0-.36-.54,1,1,0,0,0-.17-.35.8.8,0,0,0-.27-.28,1,1,0,0,0-.24-.11A1,1,0,0,0,190.68,323.45Z" style="fill:#ebebeb"></path><path d="M185.53,331.18a4,4,0,0,0,1.72,2.22,2.78,2.78,0,0,1,.7.71,3.85,3.85,0,0,1,.33.87,2,2,0,0,0,.67,1,1.29,1.29,0,0,0,1.31.11,2.29,2.29,0,0,0,1-2.22,3.93,3.93,0,0,0-.82-2.19,2.2,2.2,0,0,0,0-.36,3.4,3.4,0,0,0-1.45-2.3,2.55,2.55,0,0,0-2.34-.1A2,2,0,0,0,185.53,331.18Z" style="fill:#ebebeb"></path><path d="M195.1,296a3.08,3.08,0,0,0-.16-2.55,2.38,2.38,0,0,0-.51-.79,2.89,2.89,0,0,0-.19-1.16,3.39,3.39,0,0,0-1.89-1.95,3.15,3.15,0,0,0-2.65.12,1.56,1.56,0,0,0-.82,1.24,1.86,1.86,0,0,0,.6,1.34,15.2,15.2,0,0,1,1.67,2,8.45,8.45,0,0,0,1.56,2.17A1.58,1.58,0,0,0,195.1,296Z" style="fill:#ebebeb"></path><path d="M192.33,347.89a27.09,27.09,0,0,0,4.26,5.35c1.19,1.23,2.47,2.42,3.68,3.68a62.35,62.35,0,0,0,3.76,8.13,72.74,72.74,0,0,0,5.45,8.29,83.62,83.62,0,0,0,6.26,7.25,107.41,107.41,0,0,0,13.52,11.51c9.14,6.57,18,11.43,26,16.14q6,3.48,11.23,6.95c.89.58,1.74,1.17,2.57,1.76s1.65,1.2,2.46,1.81,1.55,1.23,2.35,1.84l2.38,2a105.09,105.09,0,0,1,17.47,19.5c1.34,1.91,2.66,3.88,3.93,5.91s2.51,4.13,3.77,6.28c2.42,4.34,4.77,8.87,7,13.82a53.24,53.24,0,0,0,3.68-15.94,74.34,74.34,0,0,0-.39-16.65,79.28,79.28,0,0,0-4.14-16.62,82.84,82.84,0,0,0-7.89-15.75c-.83-1.23-1.65-2.47-2.56-3.68s-1.83-2.46-2.82-3.57a88.33,88.33,0,0,0-6.05-6.54,129.34,129.34,0,0,0-12.78-11c-8.56-6.51-17-11.79-24-16.93-1.81-1.27-3.46-2.54-5.06-3.81-.82-.62-1.55-1.27-2.34-1.88s-1.46-1.27-2.14-1.91c-.33-.29-.65-.58-1-.88s-.54-.73-.8-1.1c-3.65-5.25-7.15-11.28-8.32-17.73a24,24,0,0,1-.38-4.86c0-1.76.24-3.52.11-5.28a12.45,12.45,0,0,0-1.39-4.78c-.63-1.3-1.52-2.72-1.46-4.22.13-2.53,2.88-4,4.32-5.73a6.73,6.73,0,0,0,1.64-3.55c.24-1.78-.23-3.6.15-5.34.63-2.93,3.23-4.9,5.64-6.22,2.71-1.52,5.71-2.65,7.95-4.93A8.82,8.82,0,0,0,251,281.6a6,6,0,0,0-5.47-4.72c-2.7-.35-5.28.5-7.89,1-2.16.44-5,.77-6.91-.73-1.06-.86-1.24-2.29-2.07-3.33a4,4,0,0,0-3.26-1.4c-2.92.1-5.2,2.21-7,4.44-3.66,4.69-5.79,11.74-11.63,14.13-1.44.6-3,.52-4.47,1.15a5,5,0,0,0-2.59,3,17.93,17.93,0,0,0-.73,4.5c-.16,1.89-.36,3.78-.48,5.67-.14,2.29-.32,4.54-.49,6.83a23.82,23.82,0,0,0-1.82-4.19,21.94,21.94,0,0,0-2-2.91,4.78,4.78,0,0,0-2.51-2.06c-1.92-.41-2.87,1.51-3,3.11-.19,2.15.93,4.42,1.79,6.33,1,2.23,2.18,4.39,3.16,6.63a20.2,20.2,0,0,1,1.74,7.5c.05,2.7-.29,5.4-.14,8.1a21.07,21.07,0,0,0,.92,4.72,61.73,61.73,0,0,0,1,6.89c.13.66.28,1.35.43,2-.85-1.36-1.68-2.72-2.52-4.08-.67-1.08-1.57-2.4-3-2.06C189.57,342.74,191.59,346.58,192.33,347.89Z" style="fill:#ebebeb"></path></g><path d="M197.11,330.14c0-.16.31-.11.29.05A26.76,26.76,0,0,0,201.69,349a42.37,42.37,0,0,0,7.26,7.58,43.66,43.66,0,0,1,7,8,60.8,60.8,0,0,0,6.29,8.26,35.17,35.17,0,0,0,7.61,5.91,35.53,35.53,0,0,0,8.89,3.71c3.4.91,6.92,1.15,10.35,1.89a21.94,21.94,0,0,1,8.53,3.75,34.93,34.93,0,0,1,6.05,6c1.85,2.27,3.57,4.64,5.39,6.94.93,1.17,1.9,2.32,2.91,3.42s2.05,2.53,3.46,2.69c1.2.15,2.13-1.09,2.87-1.85a7,7,0,0,1,3.47-2.24c3.16-.66,6.08,1.63,8,3.85a59.81,59.81,0,0,1,5.77,8.34,97.8,97.8,0,0,1,14.27,48.58c0,1.71,0,3.42,0,5.13a.12.12,0,1,1-.24,0,103.65,103.65,0,0,0-19.71-58c-1.62-2.21-3.73-5.26-6.7-5.66-2.8-.37-4,3.16-6.53,3.82-3.09.82-5.53-2.41-7.24-4.49-1.89-2.31-3.59-4.76-5.35-7.17-3.5-4.76-7.44-9.34-13.24-11.24-3.38-1.11-6.93-1.46-10.39-2.2a37.43,37.43,0,0,1-9-3.15,38.66,38.66,0,0,1-14.26-12.74,74.84,74.84,0,0,0-6.48-8.74c-2.45-2.58-5.29-4.78-7.6-7.49a27.06,27.06,0,0,1-6.36-17.2A26.15,26.15,0,0,1,197.11,330.14Z" style="fill:#dbdbdb"></path><path d="M278.29,412.35a35.52,35.52,0,0,1,14.29,10.53c4.34,5.25,6.83,11.94,9.29,18.2,1.41,3.61,2.72,7.33,2.77,11.25,0,.13-.19.12-.2,0a26.24,26.24,0,0,0-2.91-9.87c-1.38-3-2.81-5.93-4.37-8.82s-3.33-5.63-5.15-8.37a48,48,0,0,0-5.5-7,25.33,25.33,0,0,0-8.29-5.7C278.07,412.53,278.14,412.29,278.29,412.35Z" style="fill:#dbdbdb"></path><path d="M214,367.67a38.87,38.87,0,0,0,15.77,15.26A51.12,51.12,0,0,0,239.8,387c4.16,1.18,8.53,1.92,12.44,3.84,3.58,1.76,6.77,4.25,8.38,8,.05.12-.12.22-.17.1-1.59-3.45-5.09-5.76-8.61-6.9-4.24-1.38-8.71-1.74-13-3a39.53,39.53,0,0,1-17.94-11.55,47,47,0,0,1-7-9.8A0,0,0,0,1,214,367.67Z" style="fill:#dbdbdb"></path><path d="M200.74,354.35a19.92,19.92,0,0,1,8.29,7.41A61.45,61.45,0,0,1,213.85,372c.05.11-.12.21-.17.09-3-6.71-6.63-13.47-13.1-17.45C200.41,354.51,200.57,354.27,200.74,354.35Z" style="fill:#dbdbdb"></path><path d="M224.73,301.25a23.2,23.2,0,0,1,7.08-9.23,31.8,31.8,0,0,1,11.24-5.55c.12,0,.17.15,0,.19-7.38,2.16-13.25,8-16.4,14.9A28.82,28.82,0,0,0,224,313.24a25.4,25.4,0,0,0,.72,6.08c.52,2.22,1.23,4.38,1.59,6.63a73.64,73.64,0,0,1,.38,15,.06.06,0,1,1-.12,0c.13-4.79.29-9.7-.67-14.43-.89-4.4-2.73-8.51-3.06-13A25.71,25.71,0,0,1,224.73,301.25Z" style="fill:#dbdbdb"></path><path d="M203.3,322.83a105.47,105.47,0,0,1,4.94-16.66c0-.11.23-.06.19.06a67.63,67.63,0,0,0-3.85,14.87c-.36,2.47-.56,5-.72,7.46a52.42,52.42,0,0,0-.07,7.52c.67,8.33,6.75,14.77,11.8,20.94,2.65,3.25,5.15,6.68,6.5,10.69a0,0,0,1,1-.09,0c-2.77-7.71-9.42-12.72-14.32-19a25.07,25.07,0,0,1-5-11.12A39.92,39.92,0,0,1,203.3,322.83Z" style="fill:#dbdbdb"></path><path d="M223.6,346.43c2.58,7.53,8.21,13.58,14.3,18.5q4.54,3.65,9.38,6.89c3.39,2.28,6.86,4.44,10.13,6.89a36.48,36.48,0,0,1,9.29,9.5c.09.13-.12.24-.2.12-4.76-7.09-12.6-11-19.6-15.42-6.6-4.22-12.93-9-17.69-15.29a37,37,0,0,1-5.8-11.14C223.37,346.36,223.56,346.31,223.6,346.43Z" style="fill:#dbdbdb"></path><path d="M204.78,292.64c1.08-.5,2.24-.78,3.35-1.18a16.33,16.33,0,0,0,3.13-1.56,17.91,17.91,0,0,0,5.08-5c1.33-1.92,2.42-4,3.79-5.91,1.21-1.66,2.82-3.61,5.06-3.65,2.08-.05,3.33,1.68,4.77,2.88,1.74,1.45,4,1.44,6.16,1.16,4.27-.55,9.12-2.24,12.67,1.21.09.09,0,.22-.14.13-1.59-1.52-3.82-1.51-5.87-1.17s-3.9,1-5.88,1.39a10.79,10.79,0,0,1-5.75-.18,7.18,7.18,0,0,1-2.34-1.45,24.24,24.24,0,0,0-2.15-2c-2.1-1.44-4,.83-5.13,2.41-1.26,1.77-2.32,3.65-3.54,5.44a18,18,0,0,1-9.87,7.39,16.52,16.52,0,0,0-3.75,1.31,7.28,7.28,0,0,0-2.31,2.31,19.51,19.51,0,0,0-2.26,6.1c0,.1-.2.08-.18,0C200.14,298.61,201.13,294.34,204.78,292.64Z" style="fill:#fff"></path><path d="M190.66,304.47c.06-.11.26-.06.24.07-.61,4.39,2.68,7.54,4.63,11.08a16.61,16.61,0,0,1,2,5.58,16.81,16.81,0,0,1-.34,5.91c0,.12-.22.06-.19-.06a12.19,12.19,0,0,0-.62-6.57,22.69,22.69,0,0,0-3.35-5.37C190.9,312.19,188.65,308,190.66,304.47Z" style="fill:#fff"></path><path d="M280.72,408.44c.76-1.83,3.4-1.22,4.68-.41a16.21,16.21,0,0,1,4.32,4.22c2.45,3.34,3.76,7.2,5.53,10.9.05.12-.12.21-.17.1a44.21,44.21,0,0,0-5.71-9,29.07,29.07,0,0,0-3.57-3.62,10.75,10.75,0,0,0-2.2-1.54,3.6,3.6,0,0,0-2.44-.18C280.91,409,280.6,408.73,280.72,408.44Z" style="fill:#fff"></path><path d="M231.5,381.39c4.93,3.4,10.79,3.93,16.42,5.45a25.37,25.37,0,0,1,7.78,3.35,27.37,27.37,0,0,1,6.09,6c2,2.55,3.72,5.32,5.53,8,.08.1-.1.19-.17.09-3.29-4.69-7-9.29-11.73-12.67a27.56,27.56,0,0,0-7.49-3.9c-2.71-.91-5.48-1.58-8.22-2.39a23.73,23.73,0,0,1-8.25-3.86S231.46,381.36,231.5,381.39Z" style="fill:#fff"></path><path d="M226.27,315.11c0-.11.22-.08.2,0-.34,2.26.78,4.25,1.6,6.27a19,19,0,0,1,1.3,5.76c.32,4.17-.25,8.43.83,12.52,2,7.37,8.28,12.68,13.76,17.52a61,61,0,0,1,9.11,9.55c.06.09-.09.21-.16.12-5.06-6.38-12.69-10-18.21-15.95a25.91,25.91,0,0,1-5.94-9.58c-1.31-4.09-.76-8.3-.69-12.5a23.7,23.7,0,0,0-.7-7.17C226.74,319.54,225.75,317.39,226.27,315.11Z" style="fill:#fff"></path><path d="M229.63,309.72a3.33,3.33,0,0,0,.88-.27,1.5,1.5,0,0,0,.4-.25l.13-.1s0-.13.07-.19c.15-.26.37-.47.5-.74a4,4,0,0,0,.32-.81,6.17,6.17,0,0,0,.1-2.1c0-.39,0-.78,0-1.17s-.12-.84-.17-1.26a.48.48,0,0,1,.93-.24,14.22,14.22,0,0,1,.42,1.41,7.17,7.17,0,0,1,.29,1.36,5.22,5.22,0,0,1-.54,2.61,3.07,3.07,0,0,1-1.45,1.5c-.28.09-.54.25-.81.35a2.42,2.42,0,0,1-1,.09C229.55,309.9,229.52,309.73,229.63,309.72Z" style="fill:#fff"></path><path d="M191.11,290.15a4.25,4.25,0,0,1,1.26.72,4.12,4.12,0,0,1,.9,1.13,4.36,4.36,0,0,1,.45,1.36,3.11,3.11,0,0,1,0,1.39.18.18,0,0,1-.35,0c-.1-.4-.18-.82-.32-1.21a7.29,7.29,0,0,0-1.27-2,5,5,0,0,0-.9-.83C190.57,290.53,190.76,290,191.11,290.15Z" style="fill:#fff"></path><path d="M190,299.5s0-.07,0-.11,0,0,0,0l.05,0s.07,0,.07.06l0,.12a.71.71,0,0,1,0,.14.09.09,0,0,1,0,.07.08.08,0,0,1-.07,0s0,0-.07,0a.19.19,0,0,1,0-.07v-.09A.13.13,0,0,1,190,299.5Z" style="fill:#fff"></path><path d="M189,330.4c.18.35.37.69.54,1.05s.3.73.45,1.1.28.72.41,1.09c.07.18.14.37.2.55s.08.38.14.57-.13.16-.18.07-.24-.32-.34-.49l-.28-.52c-.19-.34-.37-.69-.55-1s-.37-.7-.51-1.06-.28-.74-.42-1.11S188.8,330.11,189,330.4Z" style="fill:#fff"></path><g style="opacity:0.7000000000000001"><polygon points="169.62 27.61 169.63 27.61 169.62 27.61 169.62 27.61 169.62 27.61" style="fill:#ebebeb"></polygon><path d="M365.45,171.08a3.34,3.34,0,0,0-.74-2,.6.6,0,0,1-.08-.08,2.86,2.86,0,0,0-.84-1.27,2.57,2.57,0,0,0-2.07-.64,1.15,1.15,0,0,0-1,.84c-.06.44-.13.89-.16,1.33a4.66,4.66,0,0,0,.45,2.63,3,3,0,0,0,1.73,1.42,2.08,2.08,0,0,0,2.05-.46A2.39,2.39,0,0,0,365.45,171.08Z" style="fill:#ebebeb"></path><path d="M342.78,146.87a7.07,7.07,0,0,0-.37-2,26.84,26.84,0,0,0-1.71-3.66c-.05-.29-.07-.57-.13-.86-.22-1.07-.43-2.17-.75-3.21a4.31,4.31,0,0,0-1.38-2.24,2.47,2.47,0,0,0-3.58.32A3.69,3.69,0,0,0,335,139c.84,1.43,2.47,2.34,2.85,4s-.08,3.6,1.14,5.13a3.07,3.07,0,0,0,1.73,1.13,1.79,1.79,0,0,0,1.71-.43A3.6,3.6,0,0,0,342.78,146.87Z" style="fill:#ebebeb"></path><path d="M316.7,112.22a2.47,2.47,0,0,0-.27-1.42,3.22,3.22,0,0,0-.46-1.06,3.17,3.17,0,0,0-1.21-1,1.36,1.36,0,0,0-1.08-.1,1.13,1.13,0,0,0-.63.69,2,2,0,0,0-.07.91c0,.12,0,.24.06.35a.48.48,0,0,0,0,.12s0,.06,0,.09,0,0,0,0l-.05,0a.89.89,0,0,0-.28.3,1.11,1.11,0,0,0,.07,1.11,3.71,3.71,0,0,0,1.31,1.3c.55.35,1.27.83,1.86.32A2.76,2.76,0,0,0,316.7,112.22Z" style="fill:#ebebeb"></path><path d="M311.23,108.94a1.09,1.09,0,0,0-.28-.81,1.25,1.25,0,0,0-.77-.39,1,1,0,0,0-.78.28,1,1,0,0,0-.3.78.88.88,0,0,0,.38.71.94.94,0,0,0,.73.11.29.29,0,0,0,.19.21.4.4,0,0,0,.41-.11.85.85,0,0,0,.26-.3A1,1,0,0,0,311.23,108.94Z" style="fill:#ebebeb"></path><path d="M308.34,97.85a1,1,0,0,0,0-.24.86.86,0,0,0-.23-.43,1,1,0,0,0-.44-.22.94.94,0,0,0-.29,0,1.12,1.12,0,0,0-.21-.23.24.24,0,0,0-.18-.38.77.77,0,0,0-.51.15l0,.05a.58.58,0,0,0-.14,0,.51.51,0,0,0-.28.55,2.54,2.54,0,0,0,.42,1.13,1.2,1.2,0,0,0,.93.47,1,1,0,0,0,.61-.18.94.94,0,0,0,.31-.45s0-.06,0-.09a0,0,0,0,1,0,0Z" style="fill:#ebebeb"></path><path d="M189.56,27.32a.92.92,0,0,0-.66-.94.78.78,0,0,0-.26,0,1,1,0,0,0-.29,0,1,1,0,0,0-.35.17.47.47,0,0,0-.18.19.84.84,0,0,0-.14.37.49.49,0,0,0,0,.27.93.93,0,0,0,.37.54,1.23,1.23,0,0,0,.5.2.9.9,0,0,0,.51-.09.71.71,0,0,0,.41-.54h0A.69.69,0,0,0,189.56,27.32Z" style="fill:#ebebeb"></path><path d="M189.12,58.37a.89.89,0,0,0-.46,0,1,1,0,0,0-.64.44.94.94,0,0,0-.15.78.44.44,0,0,0,.11.24l.1.09a.48.48,0,0,0,.18.07.41.41,0,0,0,.19,0h.05l.09,0h0a.45.45,0,0,0,.13-.1.81.81,0,0,0,.35.28.56.56,0,0,0,.34,0,.44.44,0,0,0,.18-.09.43.43,0,0,1,.09-.1,1,1,0,0,0,.13-.78c0-.08-.05-.15-.07-.21a1.22,1.22,0,0,0-.12-.19.77.77,0,0,0-.22-.22A.94.94,0,0,0,189.12,58.37Z" style="fill:#ebebeb"></path><path d="M307,106.85a1.78,1.78,0,0,0-.4-1.57s0,0,0,0a2.73,2.73,0,0,0-1.05-1.14.09.09,0,0,0-.06,0l-.42-.38c-.58-.56-1.21-1.09-1.83-1.62-1.06-.92-2.13-1.89-3.27-2.74a2.1,2.1,0,0,0-2.88.22c-1.86,1.94.24,4.87,1.76,6.27a20.59,20.59,0,0,0,2.85,2.14,3.77,3.77,0,0,0,3.07.91,2.77,2.77,0,0,0,1.77-1.34A1.28,1.28,0,0,0,307,106.85Z" style="fill:#ebebeb"></path><path d="M187,51a1.41,1.41,0,0,0,.22-.34.69.69,0,0,0,0-.49,1.54,1.54,0,0,0-.08-.19h0a.58.58,0,0,0-.11-.18,1.24,1.24,0,0,0-.34-.22h0a.84.84,0,0,0-.3-.08.5.5,0,0,0-.24.06s0,0,0,0l-.18,0a1.13,1.13,0,0,0-.43.29,1.08,1.08,0,0,0-.18.24,1.28,1.28,0,0,0-.11.2c0,.07,0,.14,0,.21a.52.52,0,0,0,.05.28.51.51,0,0,0,.17.21,1.35,1.35,0,0,0,.58.24,1.36,1.36,0,0,0,1-.3Z" style="fill:#ebebeb"></path><path d="M179.67,28.38a1.23,1.23,0,0,0,.06-.57,3.38,3.38,0,0,0-.08-.34c0-.16-.12-.44-.29-.51a.1.1,0,0,1-.07-.05s0,0-.07-.05a.56.56,0,0,0-.17-.09.29.29,0,0,0-.13,0,.12.12,0,0,0-.06-.06,1.19,1.19,0,0,0-1-.17,1.71,1.71,0,0,0-.86.55,1.35,1.35,0,0,0-.31.83,1.32,1.32,0,0,0,.41,1,1.79,1.79,0,0,0,1,.49A1.46,1.46,0,0,0,179.67,28.38Z" style="fill:#ebebeb"></path><path d="M171.28,29.45a1.73,1.73,0,0,0,.11-1.1,1.37,1.37,0,0,0-.18-.5,1.72,1.72,0,0,0-.31-.39h0a1.61,1.61,0,0,0-.92-1,1.29,1.29,0,0,0-1.24.24,1.49,1.49,0,0,0-.5,1.15,2.07,2.07,0,0,0,.55,1.34,4.6,4.6,0,0,0,.52.47,2.31,2.31,0,0,0,.56.38,1.06,1.06,0,0,0,.87,0A1.41,1.41,0,0,0,171.28,29.45Z" style="fill:#ebebeb"></path><path d="M132,58.56a1.43,1.43,0,0,1,0,.29.43.43,0,0,0,.1.29.23.23,0,0,0,.12.1.14.14,0,0,0,.09,0,.29.29,0,0,0,.16,0l.11,0a.31.31,0,0,0,.11-.09.6.6,0,0,0,.09-.13s0,0,0,0,0-.06,0-.08l0-.28s0-.09,0-.14v-.14a.38.38,0,0,0,0-.21.35.35,0,0,1-.05-.08.25.25,0,0,0-.12-.08.11.11,0,0,0-.09,0,.26.26,0,0,0-.15,0l-.1,0a.2.2,0,0,0-.11.09.27.27,0,0,0-.09.12l0,.14A1.85,1.85,0,0,1,132,58.56Z" style="fill:#ebebeb"></path><path d="M141.41,46.28a.55.55,0,0,0,0-.18s0-.13-.07-.16v0a.35.35,0,0,0,0-.11l-.06-.11a1,1,0,0,0-.21-.25,1.13,1.13,0,0,0-.22-.14l0,0,0,0-.15-.06a1.14,1.14,0,0,0-.52,0,.07.07,0,0,0-.05.08v.08a.69.69,0,0,0-.17.1,1.3,1.3,0,0,0-.38.72,1.21,1.21,0,0,0,.07.65.73.73,0,0,0,.62.51,1.19,1.19,0,0,0,.68-.17,2.61,2.61,0,0,0,.27-.22,1.36,1.36,0,0,0,.23-.34A1.3,1.3,0,0,0,141.41,46.28Z" style="fill:#ebebeb"></path><path d="M166.44,33.38a1.41,1.41,0,0,0-1.16-1.58,2.68,2.68,0,0,0-1.73.47c-.75.46-1.45,1-2.17,1.55a5.33,5.33,0,0,0-1.71,1.56,1.38,1.38,0,0,0,.75,2.07,2.71,2.71,0,0,0,2.29-.47,3.64,3.64,0,0,0,1.22-1.51c.33-.15.66-.29,1-.45A2.59,2.59,0,0,0,166.44,33.38Z" style="fill:#ebebeb"></path><path d="M136.51,48.23a2.64,2.64,0,0,0-1.31-2.7,3.46,3.46,0,0,0-3.5.12,4.81,4.81,0,0,0-2.35,4.67,3.88,3.88,0,0,0,1.28,2.49,2.64,2.64,0,0,0,2.87.47,3.53,3.53,0,0,0,1.53-2,10.28,10.28,0,0,1,.43-1.09c.16-.34.52-.75.73-1.16a2.44,2.44,0,0,0,.14-.46A.59.59,0,0,0,136.51,48.23Z" style="fill:#ebebeb"></path><path d="M127.66,51.46a.89.89,0,0,0-.18-.6.52.52,0,0,0-.21-.18,2.35,2.35,0,0,0-.22-.45,1.58,1.58,0,0,0-.27-.31.52.52,0,0,0-.44-.15,1.48,1.48,0,0,0-1,.44,1.83,1.83,0,0,0-.48,1,1.38,1.38,0,0,0,1.8,1.51,1.45,1.45,0,0,0,.78-.48A1.13,1.13,0,0,0,127.66,51.46Z" style="fill:#ebebeb"></path><path d="M122.56,131c10.19,10.8,20.6,21.45,30.94,32.12a76.74,76.74,0,0,0,34.62,21.06c22.69,10.6,48,11.52,72.4,11.73,49.76.44,64.07,35,68.23,48.87,2.9,10.24,1.66,19.83-3,29.69-6.27,13.59-8.42,26.84-16.82,40.93-1.6,2.7-3.45,5.5-5,8.23-.8,1.43-1.62,2.84-2.33,4.32a102.58,102.58,0,0,0-5.83,77.46c.37-22.53,6.48-45.52,19.69-63.83.75-1.1,1.58-2.14,2.4-3.17s1.68-2,2.53-3c1.05-1.25,2.24-2.39,3.34-3.59,20.06-18.69,44-36.27,52.12-64.17,8-12.54,10.81-28.13,6.17-42.42-1.63-5.28-4-10.3-5.55-15.63-1.58-5.13-1.64-10.51-1.84-15.83-.28-5-.8-10.33-3.79-14.47-3.42-4.28-8.3-.48-7.88,4.15.25,3.54,3.09,7.06,1.17,10.56a61.09,61.09,0,0,1-4.63-9.39c-3.23-8.62-4.7-19-12.24-25.18-2.08-1.69-4.56-2.76-6.73-4.32a18.35,18.35,0,0,1-4.92-5.6c-2.67-4.48-4.3-9.52-6.74-14.13A77.79,77.79,0,0,0,315,116.67c-1.63-1.54-5.79-6.23-8.18-4.24-.87.78-.61,2-.27,3,1.26,3.1,3.86,5.37,6.06,7.83,3.7,5.42,8.85,10.85,8.92,17.79-.14,1.3-1.27,1.4-2.3,1-2-.68-3.43-2.65-5.06-3.91-2.47-2.26-7-2.58-8.78.64-1.78,3.88,4.28,6.47,6.55,8.71,3.41,2.61,6.53,6,6.91,10.46a10.45,10.45,0,0,0,1,3.74,108.06,108.06,0,0,0-30-5.37,168.06,168.06,0,0,0-32.79,2.1c-48.13,6.45-91.48-6.05-103.63-58.25a19.41,19.41,0,0,1,1.19-8.81c1.77-4.12,5.46-7.1,7.22-11.22a3.4,3.4,0,0,0,0-3.22c-.63-1-1.38-1.6-1.4-2.86,0-2.42,1.87-4.15,3.62-5.53a69,69,0,0,1,6.41-4.71c4.46-2.89,9.71-4.05,14.44-6.41a5.87,5.87,0,0,0,2.54-1.9,1.49,1.49,0,0,0-.47-2.19c-1-.41-2.19-.1-3.27-.13-2.46.06-6.14,1-3.61-2.78a8.24,8.24,0,0,1,4.93-3c1.2-.26,2.41-.26,3.61-.53,2-.46,4-2.12,3.34-4.36s-3.23-3-4.55-4.8c-1.72-2.57,1.78-2.51,3.26-3.32,1.95-1,2.44-3.65,0-4.45-3.63-1.32-7.29.29-10.4,2.07a3.13,3.13,0,0,1-3.09-.25c-2.27-1.51-4.47-.15-6.14,1.56a22.21,22.21,0,0,0-3.7,4.39c-2,1.08-3.62,3-5.79,3.88-1.5.5-2.94-.18-4.39-.53a10.25,10.25,0,0,0-7.82,1.56c-8.81,6-14.83,15.67-17.37,25.91-.95,3.88-1.89,9.12-5.87,11C122.4,73.65,127.32,67,128.4,61c.92-1.72,1.6-3.93,0-5.26a2.64,2.64,0,0,0-3.19,0,6.66,6.66,0,0,0-2,3.25,49.07,49.07,0,0,0-2.56,9.2A47.72,47.72,0,0,0,118.29,94c1.25,6.54,4.33,13.09,2.32,19.81C118,120.78,117.17,125.09,122.56,131Z" style="fill:#ebebeb"></path></g><path d="M125.64,124a22.29,22.29,0,0,1,.11-8,33.49,33.49,0,0,1,2.85-7.62,15.08,15.08,0,0,0,1.34-3.8,9.7,9.7,0,0,0-.23-4.08c-.66-2.7-2-5.18-2.57-7.9a10.19,10.19,0,0,1,1.29-7.39c1.23-2.09,3-3.84,4.36-5.82a18.38,18.38,0,0,0,2.94-7.49c1-5.19,1.23-10.78,5-14.89A9.28,9.28,0,0,1,147.5,54c2.81-.07,5.63.91,8.43.37,3.89-.75,6.66-4,9-6.95s5-6.55,8.58-8.31a14.79,14.79,0,0,1,2.57-1,.09.09,0,0,1,0,.17c-4,1.08-6.63,4.72-8.89,7.93s-4.56,6.79-8,8.75a11.48,11.48,0,0,1-6.4,1.36c-2.69-.15-5.56-1-8.14.17-4.74,2.08-5.91,8-6.66,12.6a34.67,34.67,0,0,1-2,8,26.72,26.72,0,0,1-4.2,6.19c-1.47,1.81-3,3.8-3.3,6.19-.33,2.68.84,5.26,1.75,7.71s1.74,5.13,1.21,7.83-2,5-3.05,7.5a21.09,21.09,0,0,0-1.58,7.76,31.54,31.54,0,0,0,1.14,7.84,17.51,17.51,0,0,0,4.22,7.1c2,2.21,4.28,4.13,6.41,6.19a73.57,73.57,0,0,1,10.78,14.05q1.2,1.93,2.38,3.89c.07.11-.11.19-.18.08-3.35-5.23-6.71-10.5-11-15-4.06-4.33-9.21-7.57-12.22-12.82-.67-1.18-1.22-2.42-1.8-3.65A14.77,14.77,0,0,1,125.64,124Z" style="fill:#dbdbdb"></path><path d="M297.27,160.11c5-.66,9.82.61,14.34,2.74a36.84,36.84,0,0,1,6.42,4c2,1.51,3.72,3.27,5.58,4.91a19,19,0,0,0,5.9,3.95,6.32,6.32,0,0,0,3.16.39,8.61,8.61,0,0,0,3.37-1.64c4.77-3.09,10.12,1,12.82,5s4,9,5.52,13.64a45.38,45.38,0,0,0,2.79,7,46.36,46.36,0,0,0,4.25,6.57c3.19,4.21,6.82,8.07,9.84,12.41a39.67,39.67,0,0,1,3.94,6.87,31.05,31.05,0,0,1,2.31,8.63,54.7,54.7,0,0,1-1.2,18,85.4,85.4,0,0,1-5.59,16.68c-.57,1.3-1.17,2.58-1.78,3.86-.05.1-.2,0-.16-.06a71.89,71.89,0,0,0,5.42-16.44A77.44,77.44,0,0,0,376.32,239a34.69,34.69,0,0,0-1.29-8.95,29.61,29.61,0,0,0-3.32-7.31c-2.71-4.43-6.28-8.28-9.56-12.28s-6.26-8.11-8.12-12.91c-1.77-4.54-2.75-9.37-4.72-13.84a19.28,19.28,0,0,0-3.72-5.74c-1.66-1.7-4.12-3.41-6.62-3.09-1.41.18-2.44,1.12-3.62,1.8a6.84,6.84,0,0,1-3.29.94,10.58,10.58,0,0,1-6-2.13,38.64,38.64,0,0,1-5.44-4.78,47.09,47.09,0,0,0-5.69-4.86,28.48,28.48,0,0,0-13.81-5.59,21,21,0,0,0-3.8,0A.08.08,0,0,1,297.27,160.11Z" style="fill:#dbdbdb"></path><path d="M298.47,362.11a79,79,0,0,1,8-20.94,61.36,61.36,0,0,1,14.1-16.44c5.52-4.62,11.58-8.52,17.25-12.94A98.37,98.37,0,0,0,346,305a53.08,53.08,0,0,0,7-8.07c.5-.72,1-1.45,1.42-2.19.05-.09.19,0,.13.09-3.55,6-8.46,10.94-13.63,15.59s-11,8.87-16.4,13.44-10.65,9.54-14.73,15.49a78.69,78.69,0,0,0-9.47,20.05,147.27,147.27,0,0,0-5.19,22.23l-.45,2.76a.06.06,0,1,1-.12,0C295.52,376.94,296.7,369.47,298.47,362.11Z" style="fill:#dbdbdb"></path><path d="M164.5,168.12c4.82,3.12,9.61,6.35,15,8.47a30.8,30.8,0,0,0,8.28,2.09c3.15.31,6.14-.29,9.26-.62a17.69,17.69,0,0,1,8.52,1.1c2.67,1,5.15,2.47,7.75,3.64a44.18,44.18,0,0,0,16.48,3.5c11.49.44,22.86-1.92,34.33-1.86a91.59,91.59,0,0,1,32.35,6.2,94.78,94.78,0,0,1,28.18,16.94c.95.83,1.9,1.67,2.83,2.54.08.07,0,.18-.13.1a88.55,88.55,0,0,0-28.25-17.47,97.06,97.06,0,0,0-32.3-6.51c-11.45-.29-22.8,2-34.26,1.78a50.28,50.28,0,0,1-16.41-2.7,68.1,68.1,0,0,1-7.73-3.64,21.81,21.81,0,0,0-8.12-2.76c-3.2-.26-6.39.56-9.6.59a26.79,26.79,0,0,1-8-1.2c-5.38-1.6-10.27-4.54-14.9-7.63-1.15-.77-2.28-1.55-3.4-2.36A.12.12,0,0,1,164.5,168.12Z" style="fill:#dbdbdb"></path><path d="M145.75,98.83A39.32,39.32,0,0,1,151,78.67c.45-.76.91-1.51,1.41-2.25a.08.08,0,0,1,.13.1,37.12,37.12,0,0,0-5.71,20,53.07,53.07,0,0,0,4.28,20.74,61.44,61.44,0,0,0,12.08,18.64,94,94,0,0,0,18.95,15.3,182.25,182.25,0,0,0,22,11.43l2.81,1.26s0,.08,0,.06c-7.67-3.34-15.24-6.91-22.55-11a100.7,100.7,0,0,1-20.25-14.45,60.59,60.59,0,0,1-13.6-18.4A51.31,51.31,0,0,1,145.75,98.83Z" style="fill:#dbdbdb"></path><path d="M375.89,219.81A74.84,74.84,0,0,1,371.51,206c-.87-4.65-.59-9.35-.86-14s-.84-9.7-3.75-13.54c-.11-.13.07-.37.21-.24a18.05,18.05,0,0,1,5.4,11c.71,4.71.15,9.53.74,14.26a62.43,62.43,0,0,0,4,14.27,83.15,83.15,0,0,1,4.1,13.45,33.51,33.51,0,0,1-.05,14.41c0,.1-.18,0-.16-.06C383.3,236.64,379.1,227.84,375.89,219.81Z" style="fill:#fff"></path><path d="M310.44,114a95.14,95.14,0,0,1,12.9,14.66,69.76,69.76,0,0,1,5.06,8.2c1.53,2.88,2.79,5.88,4.12,8.85a40.4,40.4,0,0,0,4.64,8.33,42.18,42.18,0,0,0,7.08,6.6,29.7,29.7,0,0,1,6.29,6.85,43.91,43.91,0,0,1,3.92,7.85c2.55,6.38,4.12,13.22,8,19,.06.09-.06.2-.13.11-3.56-4.85-5.83-10.42-8.3-15.88s-5-10.93-9.39-15.2c-2.31-2.26-5-4.15-7.15-6.56a33.47,33.47,0,0,1-5.09-7.94c-1.42-2.92-2.61-5.94-4-8.88a94.05,94.05,0,0,0-4.47-8.49,83.27,83.27,0,0,0-6.25-9.21,80.25,80.25,0,0,0-7.43-8.11C310.14,114,310.33,113.89,310.44,114Z" style="fill:#fff"></path><path d="M337.71,176.39a13.35,13.35,0,0,1,6.91,3.61,22.25,22.25,0,0,1,4.86,7.74c1.21,2.87,2.37,5.78,3.47,8.69a65.32,65.32,0,0,0,3.55,8.19,35,35,0,0,0,6.07,8.33c.08.08-.05.18-.13.11a56.7,56.7,0,0,1-10.18-14,77.59,77.59,0,0,1-3.74-8.13,49.21,49.21,0,0,0-4.11-8.37,16.68,16.68,0,0,0-2.83-3.43,10.48,10.48,0,0,0-4-2.27A.24.24,0,0,1,337.71,176.39Z" style="fill:#fff"></path><path d="M274.2,157.41c4.12.18,8.23.52,12.32,1.11a89.62,89.62,0,0,1,12,2.65,51.75,51.75,0,0,1,11.22,4.67,49.77,49.77,0,0,1,5.1,3.29,29.71,29.71,0,0,1,4.57,4c1.41,1.62,2.9,3.23,4.46,4.71s3.41,2.8,5.74,2.76c.11,0,.09.16,0,.16-3.75.14-6.63-2.54-9.22-4.88a64.76,64.76,0,0,0-9.76-7.19,77.57,77.57,0,0,0-22.56-9,93.33,93.33,0,0,0-13.91-2.15A.07.07,0,0,1,274.2,157.41Z" style="fill:#fff"></path><path d="M308.22,137.79c2.33-1.28,4.59.41,6.37,1.85a28.18,28.18,0,0,1,3.05,2.73c.83.91,2.28,2.2,3.6,1.43.09-.06.16.09.07.15a3.06,3.06,0,0,1-2.95.08,19,19,0,0,1-3.26-2c-1.07-.8-2.1-1.63-3.11-2.51s-2.24-1.79-3.54-1.28A.26.26,0,0,1,308.22,137.79Z" style="fill:#fff"></path><path d="M298.36,99.79a8.64,8.64,0,0,0,2,1.89c.77.47,1.58.88,2.34,1.37a7.93,7.93,0,0,1,2.07,1.75,3.4,3.4,0,0,1,.91,2.28.09.09,0,0,1-.15,0c-.31-.29-.49-.65-.78-1a10,10,0,0,0-1-.87c-.7-.58-1.44-1.09-2.18-1.61a20.2,20.2,0,0,1-2.06-1.63,5.26,5.26,0,0,1-1.53-2C298,99.81,298.21,99.6,298.36,99.79Z" style="fill:#fff"></path><path d="M336.7,135.28c2.22.52,2.53,3.27,2.93,5.09.49,2.27,2,4.67,1.5,7.06a.13.13,0,0,1-.25,0,18.08,18.08,0,0,0-1.1-3,14.74,14.74,0,0,1-1.15-3c-.39-1.93.13-4.74-2.07-5.72A.21.21,0,0,1,336.7,135.28Z" style="fill:#fff"></path><path d="M313.82,110.09a3,3,0,0,1,.32-.08.43.43,0,0,1,.18-.05.85.85,0,0,1,.62.15,1.55,1.55,0,0,1,.54.54,1.84,1.84,0,0,1,.22.92,1.62,1.62,0,0,1,0,.22.9.9,0,0,1,0,.16l-.06.14v0a1,1,0,0,0,0,.1.88.88,0,0,1-.12.21.3.3,0,0,1-.51,0,1.2,1.2,0,0,1-.13-.36c0-.06,0-.06,0,0a.47.47,0,0,1-.06-.15c0-.06,0-.12,0-.18a5.31,5.31,0,0,0-.1-.68.83.83,0,0,0,0-.15s0,0,0-.06a1.17,1.17,0,0,0-.05-.11l-.05-.07-.15-.18s0,0,0,0l-.08-.07s0,0,0-.05l-.06,0s-.06-.07-.06-.06-.15,0-.2,0S313.73,110.12,313.82,110.09Z" style="fill:#fff"></path><path d="M363.24,171h0l0-.1,0-.09s0-.05,0-.07a.25.25,0,0,0,0-.07,1.93,1.93,0,0,0,0-.72,1.49,1.49,0,0,0-.23-.68,1.47,1.47,0,0,0-.55-.56c-.09,0,0-.17.07-.14a1.92,1.92,0,0,1,.76.46,2.67,2.67,0,0,1,.53.73,2.49,2.49,0,0,1,.18,1,1.73,1.73,0,0,1-.33,1,.37.37,0,0,1-.46.11.36.36,0,0,1-.17-.44A2.35,2.35,0,0,0,363.24,171Z" style="fill:#fff"></path><path d="M246.84,189.19a85,85,0,0,1,14.39-1.79,83.68,83.68,0,0,1,14.59.5,89.45,89.45,0,0,1,27.79,8.71,102.51,102.51,0,0,1,14,8.55.08.08,0,0,1-.09.14,93.36,93.36,0,0,0-26.15-12,112,112,0,0,0-14-3.12c-2.33-.37-4.68-.69-7-.93s-4.77-.51-7.16-.6c-2.7-.1-5.43-.15-8.13,0s-5.43.41-8.14.75C246.76,189.39,246.72,189.21,246.84,189.19Z" style="fill:#fff"></path><path d="M197.28,181.33A7.61,7.61,0,0,1,203,181a23.15,23.15,0,0,1,5.58,3,32.48,32.48,0,0,0,11.7,4.79c.11,0,.09.18,0,.17a39.15,39.15,0,0,1-11.39-3.26c-3.53-1.74-7.22-4.92-11.39-3.57C197.09,182.17,196.93,181.53,197.28,181.33Z" style="fill:#fff"></path><path d="M123.44,66.27a25.1,25.1,0,0,1,1.92-4.46,10.88,10.88,0,0,0,1.52-4.52c0-.32.51-.33.56,0,.53,3.12-1.1,6-2.24,8.78a23.57,23.57,0,0,0-2.09,10.15c0,.16-.23.21-.25,0A27,27,0,0,1,123.44,66.27Z" style="fill:#fff"></path><path d="M141.14,55.15c2.83-3.07,7.37-3.28,11.26-3.28a21.24,21.24,0,0,0,3.47-.25,9.62,9.62,0,0,0,2.84-1,14.17,14.17,0,0,0,4.34-3.51c1.34-1.56,2.6-3.2,4-4.69.07-.08.18,0,.11.13-2.62,2.66-4.16,6.2-6.87,8.78-3.34,3.19-8.2,2.66-12.42,2.3-2.37-.21-4.81,0-6.64,1.66C141.17,55.36,141.06,55.23,141.14,55.15Z" style="fill:#fff"></path><path d="M124.72,87.58c.48-2.77,2.46-4.9,4-7.14a51.3,51.3,0,0,0,4.31-7,20.8,20.8,0,0,0,2.28-9c0-.11.16-.09.17,0,.22,5.46-1.71,10.67-4.32,15.37-1.35,2.41-2.91,4.69-4.49,6.95a6.4,6.4,0,0,0-1.33,3.71,14.65,14.65,0,0,0,.63,4c.81,2.84,2,5.69,1.65,8.69,0,.06-.11,0-.1,0C127.94,97.78,123.79,93.09,124.72,87.58Z" style="fill:#fff"></path><path d="M166.33,63.55a29.68,29.68,0,0,1,5-3.34,46.46,46.46,0,0,1,6.76-2.6c1.26-.42,2.53-.85,3.79-1.29.67-.23,1.34-.46,2-.71.31-.11.63-.22.93-.36.09,0,1.05-.76.5-.85-.11,0-.1-.18,0-.17.49.06.44.65.26,1a2.54,2.54,0,0,1-.95.86c-.51.35-1,.69-1.55,1a56.46,56.46,0,0,1-7.12,3.26c-4.17,1.72-8.84,2.65-12.18,5.88a14.73,14.73,0,0,0-3.85,6.11s-.09,0-.08,0C160.73,68.62,163.49,65.89,166.33,63.55Z" style="fill:#fff"></path><path d="M153.11,90.2a18.13,18.13,0,0,1,2.09-4.75,42,42,0,0,1,3.07-4.3c1-1.37,1.86-3.05,1.2-4.75,0-.08.08-.16.14-.09a4.3,4.3,0,0,1,.64,4.22,16.76,16.76,0,0,1-2.91,4.56c-.58.77-1.18,1.53-1.79,2.29a12.23,12.23,0,0,0-1.61,2.24,12.31,12.31,0,0,0-.78,2.93c-.19,1-.38,2.08-.58,3.13,0,.06-.11.06-.1,0A47.7,47.7,0,0,1,153.11,90.2Z" style="fill:#fff"></path><path d="M178.13,50.35a10.83,10.83,0,0,1,6.33-5c1.44-.39,3.07-.48,4.27-1.46a2.67,2.67,0,0,0,.67-.67c.23-.42-.21-.72-.46-1-.53-.69-1.15-1.34-1.75-2-.15-.18.09-.45.28-.31.8.59,1.61,1.14,2.44,1.69A2,2,0,0,1,191,43.39c-.18,1.69-1.88,2.66-3.39,3-1.79.35-3.64.2-5.37.89a8.27,8.27,0,0,0-4,3.22C178.21,50.54,178.07,50.44,178.13,50.35Z" style="fill:#fff"></path><path d="M133.07,50.45c.28-.65.65-1.23,1-1.85a2.39,2.39,0,0,0,.33-1.4,1,1,0,0,0-.25-.61c-.17-.18-.26-.34-.48-.43a.16.16,0,0,1,0-.3,1.18,1.18,0,0,1,.85.07,2.07,2.07,0,0,1,.63.62,2.33,2.33,0,0,1,.32,2.08,4.9,4.9,0,0,1-1.29,2c-.31.32-.64.6-.94.92s-.62.67-1,1a.09.09,0,0,1-.14-.09C132.45,51.8,132.78,51.13,133.07,50.45Z" style="fill:#fff"></path><path d="M163.88,34.34l.19-.35a.62.62,0,0,1,.11-.17l.13-.15c.1-.11.19-.22.29-.32l.13-.13.1-.07h0a.12.12,0,0,0-.05,0c-.06,0-.12,0-.16,0s-.18,0-.11-.13a.3.3,0,0,1,.38,0,.33.33,0,0,1,.19.34c0,.12-.1.23-.17.33a3.65,3.65,0,0,1-.24.31l-.12.15-.16.15-.32.25a.14.14,0,0,1-.15,0A.12.12,0,0,1,163.88,34.34Z" style="fill:#fff"></path><path d="M187.83,33.3c.77-.31,1.61-.46,2.36-.8.32-.15.47-.36.29-.69a2.22,2.22,0,0,0-.39-.47,3.12,3.12,0,0,1-.26-.26c0,.09-.09.16-.15.07s.13-.35.28-.41c.37-.14.78.27,1,.52a1.17,1.17,0,0,1,.33,1.22,1.54,1.54,0,0,1-1,.84c-1.62.63-4.36.83-4.8,2.93,0,.18-.32.17-.3,0A3.91,3.91,0,0,1,187.83,33.3Z" style="fill:#fff"></path></g><g id="freepik--character-2--inject-184"><path d="M268.65,469.12h90.71c2.5-26.88,4.93-53.61,6.91-75.52l.24-2.51c2.57-28.56,4.33-48.29,4.33-48.29h-86l0,.25C284.24,347.44,276.5,407.71,268.65,469.12Z" style="fill:#455a64"></path><path d="M345.88,469.12h1.41c3.33-29.38,6.14-58.81,8.71-88.26v0c.17-2,.36-4,.53-6h0q.89-10.35,1.74-20.69c0-.22-.31-.22-.34,0-.64,6.12-1.25,12.22-1.87,18.35h0c-.21,2.21-.45,4.43-.67,6.64v0c-2.33,23.16-4.65,46.29-7.19,69.42C347.45,455.42,346.69,462.27,345.88,469.12Z" style="fill:#263238"></path><path d="M297.24,342.8l11.58,76.28.4,2.57.21,1.37.07.45.27,1.9.48,3.2.08.47.29,1.86,5.79,38.22h53c4.31-24.33,8.6-48.55,12.25-69.17.1-.54.19-1.06.28-1.58h0c5.74-32.43,9.84-55.56,9.84-55.56Z" style="fill:#263238"></path><path d="M284.75,342.72s0,.11.05.33c.34,2.24,1.93,13.92,5,29,.14.74.3,1.5.46,2.27,3,14.4,7.31,31.48,13.12,46.24.09.27.18.51.29.78,0,0,1.73.54,4.86,1.77l1,.39c1,.41,2.11.87,3.33,1.39.57.27,1.16.53,1.78.81,3.61,1.6,8,3.73,13,6.43l.71.39.71.38h0c0,.05,0,.25.05.56h0c.21,2.74,1.88,17.31,3.65,35.67h86.41c-.74-10.43-1.45-20.4-2.84-34.28-.54-5.46,2.78-25.29,2.26-30.38A325.74,325.74,0,0,0,406,342.72Z" style="fill:#455a64"></path><path d="M299.33,419.06c10.28,3.54,20.2,8.56,29.68,13.82.37.21.13.79-.27.61-10-4.29-20.2-8.4-29.95-13.24A.65.65,0,0,1,299.33,419.06Z" style="fill:#263238"></path><path d="M354,365.72a16.22,16.22,0,0,1,.38-3.69.19.19,0,0,1,.37,0,14.75,14.75,0,0,1,.41,3.19c.13,1.22.29,2.44.42,3.67a55.16,55.16,0,0,0,1.31,7.44,26.47,26.47,0,0,0,6.82,12.25,35.49,35.49,0,0,0,11.53,7.6c4.8,2,9.85,2.79,14.8,4.24a.19.19,0,0,1-.06.37,42.63,42.63,0,0,1-16-3.16,34.35,34.35,0,0,1-12-7.67,26.87,26.87,0,0,1-7-12.61,38.19,38.19,0,0,1-1-7.46A34.3,34.3,0,0,1,354,365.72Z" style="fill:#263238"></path><path d="M411.18,469.12c-1.32-11.36-3-28-4.19-39.52a132.19,132.19,0,0,0,2.55-21.89,48.7,48.7,0,0,0-.61-8.17c-2.85-18-7.56-38.82-11.27-56.82,4.61,18.77,9.09,37.6,12.23,56.68a47.53,47.53,0,0,1,.64,8.32,129.52,129.52,0,0,1-2.68,21.85c1,11.59,2.48,28.1,3.33,39.55Z" style="fill:#fff"></path><path d="M405.58,469.12c-1.32-11.36-3-28-4.19-39.52a130.09,130.09,0,0,0,2.55-21.89c.05-7.31-1.73-14.55-3-21.74-2.42-12.61-6.23-30.52-8.91-43.25,4.61,18.77,9.1,37.6,12.23,56.68a46.58,46.58,0,0,1,.64,8.32,128.37,128.37,0,0,1-2.68,21.85c1,11.59,2.48,28.1,3.33,39.55Z" style="fill:#fff"></path><path d="M280.34,391.26c.66-.76,3.78-1.47,6.91-9.75a58.33,58.33,0,0,0,2.68-10.28c.37-2.12,1.63-12.45,1.72-12.5s.07,0,.09.13c.1.72-.71,10.16-1.05,12.58a51.45,51.45,0,0,1-2.75,11.85c-3,7.22-7,9.12-7.64,8.65C280.18,391.85,280.24,391.36,280.34,391.26Z" style="fill:#263238"></path><path d="M322.62,202.2c-20.29,1.29-90.44,13.74-97.51,18.71-8.41,5.91-4.34,44.72,3.23,48.6,19.56,10,84-27.4,111.2-47.62C352.83,212,356.61,200,322.62,202.2Z" style="fill:#f7a9a0"></path><path d="M285.69,257.08,285.53,206s31.92-6.28,51.79-4.84c15.17,1.1,15.68,9.69,8.15,16.4C320.34,239.93,285.69,257.08,285.69,257.08Z" style="fill:#166F04"></path><path d="M293.83,207.77c.58,7.86,1.54,29.23.35,43.2,0,.08-.33.09-.33,0-.76-11.77-.6-35.32-.5-43.2C293.36,207.63,293.82,207.62,293.83,207.77Z" style="fill:#263238"></path><path d="M285.67,252.31l0,4.77s34.65-17.15,59.78-39.51c5.76-5.13,6.82-11.36.22-14.49Z" style="opacity:0.1"></path><path d="M283.9,352.82l128.31,15.47c.48-.46,3.47-5.47,1.85-16.71-5.69-39.3-19.21-124.46-44.53-147.42-6.27-5.68-28.07-7.86-35.7,2.44-14.32,19.35-49.15,98-53.11,130C280,342.52,282.66,349.58,283.9,352.82Z" style="fill:#166F04"></path><path d="M336.3,204l37.16,4.28.57.7-38.38-4.41C335.86,204.41,336.07,204.23,336.3,204Zm-9,12.93,55.5,6.39-.35-.67-54.81-6.32C327.51,216.57,327.4,216.77,327.28,217Zm-6.71,12.56,68.18,7.86c-.08-.23-.17-.46-.25-.68l-67.62-7.78Zm-6.18,12.63,79.09,9.1-.21-.66-78.58-9.06C314.59,241.75,314.5,242,314.39,242.16Zm-5.79,12.66,88.83,10.23c-.05-.22-.12-.44-.18-.66l-88.38-10.18Zm-5.49,12.7,97.74,11.26c0-.23-.1-.44-.14-.66L303.37,266.9C303.28,267.11,303.19,267.31,303.11,267.52Zm-5.2,12.73,106,12.21a5.18,5.18,0,0,1-.14-.66l-105.6-12.16C298.08,279.84,298,280.05,297.91,280.25ZM293.05,293,406.6,306.1c-.05-.22-.09-.43-.13-.66l-113.2-13Zm-4.48,12.82L409,319.72c0-.21-.07-.44-.11-.67L288.78,305.22C288.7,305.43,288.64,305.64,288.57,305.84Zm-4,12.88L411.3,333.31c0-.21-.08-.44-.11-.66L284.79,318.1C284.72,318.3,284.67,318.51,284.61,318.72Zm-3.11,13,131.87,15.19c0-.21-.07-.44-.11-.66L281.62,331.05Zm-.24,12.67c0,.22.09.43.14.65l133,15.32c0-.21,0-.42.05-.63Z" style="fill:#fff"></path><path d="M373.33,234.28c9.39,18,49.14,77.17,56.54,81.62,8.8,5.3,47.61-11.25,48.1-19.74,1.24-21.94-64-68.63-93.47-85.32C370.09,202.69,357.6,204.07,373.33,234.28Z" style="fill:#f7a9a0"></path><path d="M440.27,244.76l-51,23S373.17,240,366.44,221.25c-5.12-14.31,2.52-18.26,11.71-14.08C408.76,221.11,440.27,244.76,440.27,244.76Z" style="fill:#166F04"></path><path d="M390.06,258.36c7-3.71,26.11-13.23,39.37-17.79.08,0,.22.26.15.3-10.46,5.46-32.06,14.83-39.31,17.92C390.13,258.85,389.93,258.43,390.06,258.36Z" style="fill:#263238"></path><path d="M392.93,266.16c-1.24.77-2.51,1.5-3.79,2.2l-.24-.36a149.27,149.27,0,0,1-12.14-21.84,67.68,67.68,0,0,1-3-7.81c1.49,2.37,2.91,4.75,4.31,7.14,4.17,7.21,8.12,14.52,11.59,22.09l-.55-.18c1.27-.44,2.54-.86,3.83-1.24Z" style="fill:#263238"></path><path d="M380.06,250.93a16,16,0,0,1-6.31-7.87,59.45,59.45,0,0,1,6.31,7.87Z" style="fill:#263238"></path><path d="M381.09,362.08c-.81,7,44.87,17,52.17,9.67,26.85-27,44.37-63.35,44.88-73,.58-11.07-11.12-16.13-25.16-12.26C434.44,291.63,384.24,335,381.09,362.08Z" style="fill:#f7a9a0"></path><path d="M439.45,292.72c-13,5.7-25.59,20.85-25.61,20.87-.22.16,0,.56.11.48,2.24-1.58,16.9-15.68,25.69-20.92C439.72,293.1,439.54,292.69,439.45,292.72Z" style="fill:#263238"></path><path d="M382.55,355.77s-6.38,20.3.05,37.13c4.09,10.73,6.37,28,39.42,37.14,7.84,2.16,25.58-2.18,23.88-8.66-1.62-6.16-17.61-.19-28-5.23,0,0,15.45-4.51,17.31-12.45a152.37,152.37,0,0,0,3.37-21.08,31.48,31.48,0,0,0-3.89-1s1.5-7.48-5-17.11Z" style="fill:#f7a9a0"></path><path d="M387.15,403c5,3.35,15.73,10.25,26.47,12.85,11.93,2.89,35.69,5.23,37.73-3.6,1.49-6.47-7.5-8.16-7.5-8.16s10-1.1,10.1-7.25c.06-5.6-7-6.49-7-6.49s6-1.71,5-7.12c-1.18-6.5-17.12-1.45-24-7C426.43,375,387.15,403,387.15,403Z" style="fill:#f7a9a0"></path><path d="M414.57,402.76c5.22,2.37,18.46,4.71,29.11,1.54.24-.08.32-.3.08-.28a120.64,120.64,0,0,1-29.17-1.37C414.53,402.63,414.51,402.73,414.57,402.76Z" style="fill:#263238"></path><path d="M412.47,416.51c5.22,2.37,18.46,4.72,29.11,1.54.24-.07.31-.29.08-.27a120.48,120.48,0,0,1-29.17-1.38C412.43,416.39,412.41,416.49,412.47,416.51Z" style="fill:#263238"></path><path d="M417.83,390.8c4.72,1.58,18.48,3.39,29.15-.2.24-.08.3-.31.07-.28a129.53,129.53,0,0,1-29.2.37C417.78,390.68,417.77,390.78,417.83,390.8Z" style="fill:#263238"></path><path d="M435.34,379.09c-1,.35-8.1-.25-13.7-4.16a.15.15,0,0,1,.13-.26c3.81,1.37,7,2.33,7.08,2.35-1-7.82-7.18-14.68-10-17.33-.18-.17.08-.44.28-.32,5.94,3.69,10.74,10.6,10.24,17.78a62,62,0,0,1,6,1.72A.13.13,0,0,1,435.34,379.09Z" style="fill:#263238"></path><path d="M336.91,218c6,5.56,22.17-.57,29.86-8.37.52-.54,6.76-25.91,8.21-31,.3-1-34-1.35-34-1.35s.09,11.53-2.49,20.36a11.2,11.2,0,0,1-.81,2c0,.1-.1.21-.15.34C335.73,203.8,333.82,215.17,336.91,218Z" style="fill:#f7a9a0"></path><path d="M337.5,200a20.9,20.9,0,0,0,3.22,1.1c16.81,4.4,28.63-14.33,33-22.79-6.08-.78-32.81-1-32.81-1s.1,11.54-2.49,20.38a10.4,10.4,0,0,1-.8,2C337.62,199.78,337.54,199.89,337.5,200Z" style="fill:#263238"></path><path d="M391.37,139.32c.37,12.47-14.8,44.09-25,49.27-14.81,7.51-34.53,3.23-39.77-13.54C321.5,158.79,342,117.94,353,113.7,369.17,107.45,390.82,120.88,391.37,139.32Z" style="fill:#f7a9a0"></path><path d="M352.9,151.72c.05-.08.12.18.07.26-1.08,2.11-2,4.7-.36,6.32.05,0,0,.15-.08.11C350.33,157,351.54,153.54,352.9,151.72Z" style="fill:#263238"></path><path d="M355.86,150.39c3.56,1.37.56,8.38-2.73,7.11S352.88,149.25,355.86,150.39Z" style="fill:#263238"></path><path d="M340.32,146c0-.09-.22,0-.25.12-.86,2.2-2.21,4.58-4.49,4.46-.07,0-.11.11,0,.13C338.09,151.36,339.86,148.19,340.32,146Z" style="fill:#263238"></path><path d="M339.34,142.87c-3.38-1.76-6.64,5.13-3.51,6.76S342.18,144.34,339.34,142.87Z" style="fill:#263238"></path><path d="M358.94,149.1c-.79-.72-1.41-1.51-2.13-2.29a5.11,5.11,0,0,1-1.73-2.76,1.6,1.6,0,0,1,1.14-1.6c1.48-.37,2.74.47,3.76,1.5a5.9,5.9,0,0,1,1.82,3.82A1.73,1.73,0,0,1,358.94,149.1Z" style="fill:#263238"></path><path d="M338.14,138.18a29.32,29.32,0,0,0,3.1.46,5,5,0,0,0,3.24-.12,1.61,1.61,0,0,0,.69-1.85c-.53-1.43-1.94-2-3.37-2.25a5.87,5.87,0,0,0-4.18.66A1.72,1.72,0,0,0,338.14,138.18Z" style="fill:#263238"></path><path d="M346.83,171.81a3.56,3.56,0,0,1-2.36.56,6.22,6.22,0,0,1-2.14-1.49.08.08,0,0,0-.14.08,3.17,3.17,0,0,0,2.32,2.29A2.5,2.5,0,0,0,347,172C347.09,171.88,346.94,171.77,346.83,171.81Z" style="fill:#263238"></path><path d="M347.12,164.32a8,8,0,0,1-6.3,1.36,10,10,0,0,1-2.74-1,2.27,2.27,0,0,1-.49-.26l-.45-.26a.59.59,0,0,1-.25-.67h0a.91.91,0,0,1,.11-.22v0l.08-.19c.63-1.71,1.81-4.21,1.81-4.21-.74.06-4.45.23-4-.63,3.33-7.14,7-15.08,11.85-21.48a.22.22,0,0,1,.38.21c-2.93,7-7.07,13.42-10.12,20.39a14.15,14.15,0,0,1,4,.33c.21.16-2.37,4.8-2.59,5.59a.31.31,0,0,0,0,.09c2.69,1.48,5.17,1.47,8.69.65C347.21,164,347.32,164.2,347.12,164.32Z" style="fill:#263238"></path><path d="M339.41,164.27a9.51,9.51,0,0,0,2.47,4.16,4.3,4.3,0,0,0,2.36,1.11c1.94.23,2.62-1.36,2.84-2.86a10.16,10.16,0,0,0,.05-2.42A12.39,12.39,0,0,1,339.41,164.27Z" style="fill:#263238"></path><path d="M341.88,168.43a4.3,4.3,0,0,0,2.36,1.11c1.94.23,2.62-1.36,2.84-2.86C345.13,166.13,342.76,166.67,341.88,168.43Z" style="fill:#ff98b9"></path><path d="M386.62,168.71c-5.54.18-8.14-7-8.68-10.55s6.18-21,4.84-26.45-6.08-9.47-10.66-9.25-11.47,4.49-14.55,3.43-2.17-8.06-4.37-8.6c-4.83-1.18-12.88,9.42-15.29,14.37,0,0,5.69-22.5,29.32-18.94,23.06,3.48,26.55,20.75,26.86,28C394.68,154.69,386.62,168.71,386.62,168.71Z" style="fill:#263238"></path><path d="M349.36,113.69c3.55.93,20.83,10.89,26.89,18.52s14,26.49,14.36,27.48,19.56-26-1.06-43.9C367.08,96.31,349.36,113.69,349.36,113.69Z" style="fill:#166F04"></path><path d="M389.9,157.78s-4.51-28.79-10.62-38.09-24-22.32-38.74-23.48c-11.51-.9,4.77,23.28,4.77,23.28a7.31,7.31,0,0,1,6-2.55c7,.82,17.13,8.52,22.29,14C380.12,137.87,389.9,157.78,389.9,157.78Z" style="fill:#166F04"></path><path d="M389.9,157.78s-4.51-28.79-10.62-38.09-24-22.32-38.74-23.48c-11.51-.9,4.77,23.28,4.77,23.28a7.31,7.31,0,0,1,6-2.55c7,.82,17.13,8.52,22.29,14C380.12,137.87,389.9,157.78,389.9,157.78Z" style="opacity:0.2"></path><path d="M376,164.57s10.63-8.5,14.7-4.4-6.13,18-12.45,18.39a6,6,0,0,1-6.85-5.4Z" style="fill:#f7a9a0"></path><path d="M387.72,164.07c.09,0,.07.15,0,.16-4.47.44-7.67,3.53-10.27,6.94,1.62-1.13,3.48-1.47,5,.53.09.11-.06.24-.17.18A3.73,3.73,0,0,0,378,172a18.81,18.81,0,0,0-2.81,2.62c-.29.3-.88-.08-.63-.45l.06-.08C376,168.93,382.1,163,387.72,164.07Z" style="fill:#263238"></path><path d="M284.7,175.7c.71-7-50.82-4.58-54.33,5.15-12.93,35.78-15.4,70-11.79,78.87a19,19,0,0,0,30,6.69C263.19,253.94,282.22,200.07,284.7,175.7Z" style="fill:#f7a9a0"></path><path d="M239.11,140.07c-6.55,10.48-9.52,40.5-7.63,46.45s42.88,9.75,47.25,5.06S296,152,293.32,141.09,245.17,130.39,239.11,140.07Z" style="fill:#f7a9a0"></path><path d="M282,186s10.28-10,21.75-15.25c9.65-4.43,24.47-9.92,22.28-15.2-4.49-10.83-41.46,2.87-41.46,2.87s-15.33,8.67-11.83,19.79C274.91,185.21,282,186,282,186Z" style="fill:#f7a9a0"></path><g style="opacity:0.6000000000000001"><path d="M300.39,140.91l-73.1,3.22c-2.56.11-9,2.19-8.86,5.22s.68,15.55.68,15.55.55,12.51.68,15.54,6.73,4.54,9.29,4.42l73.1-3.21h0c2.83-.18,11-1,17.67-4.54A52.58,52.58,0,0,0,331,169.53l1.85-.08,0,1,1,0-.05-1,.6,0,0,1,1,0-.05-1,2.15-.1-.84-19.08-2.15.1,0-1-1,0,0,1-.6,0,0-1-1,0,.05,1-1.85.08a52.49,52.49,0,0,0-11.8-6.56c-7-2.91-15.16-3-18-3Z" style="fill:#ebebeb"></path></g><path d="M288.77,144.49l-61,2.68c-2.18.1-6.07,1.8-6,4.37s.58,13.21.58,13.21.47,10.64.58,13.21,4.46,3.92,6.64,3.82l73.14-3.22h0a71.69,71.69,0,0,0,12.14-2.73c6.52-2,15-8.43,15.08-8.48-.08-1.87,10.51,2.23,10.88.29.88-4.53-14.57-7.78-28.52-10.21C298.55,155,288.77,144.49,288.77,144.49Z" style="fill:#dbdbdb"></path><path d="M295,149.16s10.18-1.32,16.86-.22c5.82,1,11.7,4.23,11.47,4.69s-5.6,3.6-6.37,3.56-3.33-1.94-8.1-2.5-13.59.6-13.59.6Z" style="fill:#fff;opacity:0.2"></path><path d="M295.15,152.07s10.19-1.33,16.87-.23c5.82,1,11.69,4.24,11.47,4.7a2.78,2.78,0,0,1-2.14.82c-.77,0-4.71-2.67-12.51-3.85-4.75-.71-13.6.6-13.6.6Z" style="fill:#fff;opacity:0.4"></path><path d="M234.53,151.06c-2.69.12-5.15.22-6.86,1.13-2,1.07-3.46,2.93-3.27,4.26.22,1.49,1.28,1.58,1.87,1.26,1.71-.9,5.81-1.08,8.5-1.2l34-1.45a6.25,6.25,0,0,1,1.8.53l6.72-.29-.24-5.45-6.72.29a5.94,5.94,0,0,0-1.8-.53Z" style="fill:#fff;opacity:0.2"></path><path d="M311.34,168c-.16-3.64-10-2.6-21-2.12s-18.07-.11-17.9,3.73c.25,5.6,14.07,3.7,19,3.48S311.54,172.53,311.34,168Z" style="fill:#fff;opacity:0.30000000000000004"></path><rect x="322.91" y="157.52" width="21.39" height="4.67" transform="translate(188.56 500.17) rotate(-92.52)" style="fill:#166F04"></rect><path d="M334.47,188.2c1.76-5.63,1-10.89-1.71-11.74s-6.34,3-8.1,8.68-1,10.89,1.71,11.74S332.71,193.84,334.47,188.2Z" style="fill:#166F04"></path><path d="M334.47,188.2c1.76-5.63,1-10.89-1.71-11.74s-6.34,3-8.1,8.68-1,10.89,1.71,11.74S332.71,193.84,334.47,188.2Z" style="opacity:0.1"></path><path d="M335.44,188.51c1.76-5.64,1.1-10.87-1.49-11.67s-6.1,3.1-7.87,8.74-1.09,10.86,1.49,11.67S333.67,194.14,335.44,188.51Z" style="fill:#166F04"></path><path d="M333.55,178.14c-4.76-.21-8.07,11.92-7,15.69A2.85,2.85,0,0,0,328,196a2.87,2.87,0,0,1-1.77-2c-1.17-4.48.32-9.38,2.84-13.13,1-1.35,2.6-3.23,4.5-2.67Z" style="opacity:0.1"></path><path d="M334.86,178.24l-1.77-.93a7.46,7.46,0,0,0,0-6.83l1.74-1A9.49,9.49,0,0,1,334.86,178.24Z" style="fill:#166F04"></path><path d="M294.11,158.71c-4.83,3.27-5.92-4.3-5.92-4.3s-1.06,11.27-7.35,12.72c-6.06,1.38-7-7.81-7.13-8.47-.06.6-1.31,10.93-7.78,11.73-6.72.83-6.13-8.57-6.09-9.17-.24.54-3.46,7.69-8.51,7.18-8.68-.88-1-19.38-3.9-25.8,0,0-9,.09-9.33.13,0,0,4.52-14.07,13.4-17.58a6.09,6.09,0,0,1,7.32,2.15s1.63-6,6.7-6.76c2.6-.4,5.56,3.41,5.56,3.41s1.5-4.73,6.06-5.15c3.63-.35,6,3.52,6,3.52s3.55-3.87,7.38-3C298.27,121,304.46,151.69,294.11,158.71Z" style="fill:#f7a9a0"></path><path d="M283.65,122.88a.08.08,0,1,1,.15-.06c4.49,9.6,6.49,21.52,4.49,32-.06.35-.65.39-.65,0C287.64,143.62,286.74,133.69,283.65,122.88Z" style="fill:#263238"></path><path d="M271.11,123.78c0-.11.16-.17.22,0,4.58,9.91,6.46,23.41,2.73,35.21-.13.4-.65.64-.54.16C275.41,151.06,274,133.5,271.11,123.78Z" style="fill:#263238"></path><path d="M259.29,162c3.14-11.45,2.29-22.76-.25-34.25,0-.15.18-.18.24-.06,2.78,5.28,3.63,12.77,3.81,18.66a31.47,31.47,0,0,1-3.39,15.76C259.59,162.25,259.23,162.19,259.29,162Z" style="fill:#263238"></path><path d="M288.33,154.55c-.08.42-.6-.15-.69.26-.39,1.72-3.61,11.89-7.42,11.87-3.05,0-5.13-4.14-5.31-6l-.45-4.76-1.23,4.63a19.51,19.51,0,0,1-2.56,5.81,7,7,0,0,1-4.63,3.37,4,4,0,0,1-4.45-2.34,12,12,0,0,1-.81-6l.48-5.65L259,160.84a18.76,18.76,0,0,1-2.44,4,7.58,7.58,0,0,1-3.5,2.62,3.59,3.59,0,0,1-3.68-.93,7.84,7.84,0,0,1-1.47-4.2,62.15,62.15,0,0,1,.09-9.83c.09-1.66.18-3.33.19-5a11.91,11.91,0,0,0-.73-4.92,12.87,12.87,0,0,1,.27,4.91c-.13,1.64-.35,3.28-.56,4.93a53.87,53.87,0,0,0-.63,10,9.35,9.35,0,0,0,1.61,5.1,5.12,5.12,0,0,0,5.38,1.58,9.27,9.27,0,0,0,4.43-3.14,20.13,20.13,0,0,0,2.78-4.43l-1.81-.49a13.89,13.89,0,0,0,.88,7.11,5.87,5.87,0,0,0,2.7,2.85,6.59,6.59,0,0,0,3.84.53,8.82,8.82,0,0,0,5.86-4.27,21.06,21.06,0,0,0,2.71-6.43l-1.68-.13c.31,2.4,2.13,7.25,6.86,7.89C286.35,168.55,288.15,156.74,288.33,154.55Z" style="fill:#263238"></path><path d="M288.19,154.41a11.56,11.56,0,0,0,1.69,3.16,2.68,2.68,0,0,0,2.5,1.12,5.52,5.52,0,0,0,2.69-1.6c.84-.83,1.69-1.73,2.52-2.71a9.42,9.42,0,0,1-1.55,3.54,5.46,5.46,0,0,1-3.43,2.39,3.89,3.89,0,0,1-2.28-.44,4,4,0,0,1-1.51-1.6A6.27,6.27,0,0,1,288.19,154.41Z" style="fill:#263238"></path><path d="M277,208a162.86,162.86,0,0,1-7.05,22.11c-2.95,7.14-6,14.44-10.73,20.59,6.55-14,11.26-28.69,17.78-42.7Z" style="fill:#263238"></path></g><g id="freepik--character-1--inject-184"><path d="M230.83,469.11H138.19l-.93-4.66-.68-3.42-3.61-18-.74-3.73-15.83-79-.64-3.2-3.86-19.29c-.05-.22-.1-.43-.13-.66s-.11-.51-.16-.76l-.86-4.32-2.85-14.19h0l-.26-1.28h84.58s3.08,11.93,7.88,30.65C207.83,377.44,220,425.17,230.83,469.11Z" style="fill:#263238"></path><path d="M186.58,316.67l-5,28.59-5.8,33.51-15.67,90.34h-22c0,.2.08.39.11.58l-.12-.58-.93-4.66-.68-3.42-3.61-18-.74-3.73-15.83-79-.64-3.2-3.86-19.29-.14-.66-.15-.76-.86-4.32-2.85-14.19h0l-.26-1.28h78.94Z" style="fill:#37474f"></path><path d="M158.93,469.11H157q-1-4.29-2.06-8.58c-.15-.63-.31-1.26-.46-1.89a2.16,2.16,0,0,0,0-.27c-.9-3.73-1.79-7.45-2.71-11.19q-4.41-18.29-8.95-36.55-7.46-30-15.06-60.05l-1-4q-2-8-4.06-16c-.06-.25-.13-.5-.2-.76-.13-.53-.25-1.05-.38-1.59l0-.06c-.15-.58-.3-1.16-.44-1.74q-.72-2.87-1.35-5.76c0-.2.26-.25.31-.07.57,1.83,1.11,3.66,1.64,5.5.12.41.24.83.37,1.25.06.21.13.43.18.65a1.63,1.63,0,0,1,.07.3c1.19,4.12,2.31,8.26,3.46,12.38.41,1.48.81,2.95,1.2,4.43s.72,2.73,1.08,4.08c1,3.9,2,7.78,3,11.67,3.63,13.28,7,26.63,10.46,40q5.31,20.57,10.32,41.2c.88,3.56,1.74,7.15,2.6,10.72,0,0,0,.08,0,.13l.39,1.61Q157.18,461.8,158.93,469.11Z" style="fill:#fff"></path><path d="M153.24,469.11h-1.92q-1.26-5.24-2.51-10.47a2.13,2.13,0,0,0-.07-.27q-1.34-5.6-2.7-11.19-4.41-18.29-8.95-36.56-6.81-27.47-13.76-54.87c-.29-1.17-.59-2.35-.89-3.52q-2.73-10.83-5.49-21.67c-.06-.25-.14-.51-.19-.76a1.33,1.33,0,0,1-.05-.19c0-.18-.09-.36-.14-.54s-.16-.61-.23-.92c-.63-2.49-1.22-5-1.79-7.5,0-.2.26-.25.33-.08.69,2.25,1.34,4.49,2,6.75.09.31.17.64.26,1l.12.43c.07.24.14.49.2.73,1.07,3.74,2.09,7.48,3.14,11.22,1,3.52,1.89,7,2.8,10.56l.93,3.6c.53,2,1,4,1.59,6,3.63,13.28,7,26.63,10.46,40q5.3,20.57,10.32,41.19l2.61,10.73s0,.08,0,.13Q151.31,461,153.24,469.11Z" style="fill:#fff"></path><path d="M192.22,316.56l0,.11c-.21,1.06-1.79,9.13-3.78,19.07h0c-.17.88-.36,1.77-.53,2.68-.49,2.39-1,4.87-1.49,7.35-3,15.14-6.24,30.73-6.73,32a11.9,11.9,0,0,0-3.84,1l-.29.1-1.63.63h0c-2.17.9-5.07,2.24-8.91,4.26-.42.22-.86.44-1.3.69l-2.93,1.59-.07,1-5.24,67.39-.47,6.07-.67,8.58H138.2c0,.2.08.39.11.58l-.12-.58H63.94c4-35.06,7.38-65.87,6.88-67.55-4.73-16.37-3.13-34.47.2-49.74.22-1,.45-2.06.7-3.07.47-2,1-3.87,1.47-5.71h0a171.25,171.25,0,0,1,9.57-26.39h27.72l18.75,0h11.2l35.13,0h16.66Z" style="fill:#263238"></path><path d="M84.26,360.38c-.61,7.06-.51,19.22.61,26.24,1.06,6.73,2.63,7.12,4,13.79,1.05,5.19-2.74,43.83-5.42,68.7H81.59c2.77-25.55,6.16-58.54,6.19-63.45.06-8-1.83-8.92-3.61-14.7-2.22-7.17-1.83-19.89-1.4-27.36.25-4.37.7-8.58,1.35-12.71.33-2.2.72-4.38,1.17-6.57a207.51,207.51,0,0,1,7.25-25.58,1.15,1.15,0,0,1,.28-.5c.16-.18.31-.18.36,0a.93.93,0,0,1-.06.46c-2.39,8.26-4.7,16.59-6.41,25-.46,2.29-.89,4.59-1.25,6.9C84.94,353.85,84.53,357.11,84.26,360.38Z" style="fill:#fff"></path><path d="M88.23,318.33a.69.69,0,0,1,0,.23.35.35,0,0,1,0,.14c-.26.88-.51,1.77-.77,2.66a.14.14,0,0,1,0,.06c-2.31,8.07-4.48,16.2-6,24.45-.36,1.85-.68,3.72-1,5.59-.46,3-.83,5.93-1.08,8.92-.6,7.06-.51,19.22.61,26.24,1.06,6.73,2.63,7.12,4,13.79,1,5.19-2.74,43.82-5.41,68.7H76.64c2.76-25.55,6.16-58.54,6.19-63.45,0-8-1.83-8.92-3.62-14.7-2.22-7.17-1.83-19.9-1.4-27.36.23-4.12.65-8.09,1.23-12,.26-1.75.56-3.5.89-5.23a181.6,181.6,0,0,1,5.74-21.87c0-.08,0-.15.07-.23.13-.4.27-.81.4-1.22.46-1.42.94-2.86,1.45-4.32a1.68,1.68,0,0,1,.18-.4C88,318,88.23,318,88.23,318.33Z" style="fill:#fff"></path><path d="M93.74,364.63c2.22-.76,11.72-2.7,14-3.61a53.16,53.16,0,0,0,12.34-6.73c3.86-2.89,6.25-6.74,8.28-11,1.08-2.29,6.27-14.67,6.59-14.72a.29.29,0,0,1,.31.16c.42.79-1.2,5.39-1.68,6.91-.83,2.66-1.64,5.33-2.57,8-1.76,4.94-4.22,9.44-8.38,12.75a42.5,42.5,0,0,1-13.74,7.14,44.52,44.52,0,0,1-7.8,1.79c-2.39.31-5,.72-7.42.14C93.27,365.27,93.42,364.74,93.74,364.63Z" style="fill:#37474f"></path><path d="M202.38,360.7c-.91-.75-5.27-1.41-9.51-9.7a44.65,44.65,0,0,1-3.58-10.3c-.48-2.12-2.06-12.5-2.19-12.55s-.1,0-.13.14c-.15.72.83,10.21,1.26,12.64.81,4.57,1.89,8.76,3.65,11.88,4.08,7.21,9.59,9.06,10.54,8.58C202.58,361.3,202.51,360.81,202.38,360.7Z" style="fill:#37474f"></path><path d="M173.73,379.53c-10.19,3.57-20,8.6-29.4,13.87-.37.21-.12.78.27.6,9.91-4.31,20-8.43,29.67-13.28A.65.65,0,0,0,173.73,379.53Z" style="fill:#37474f"></path><path d="M83.3,318.43l108.92-1.87-.56-35.95a33,33,0,0,0,7.26-23.19c-1.22-14.77-35.59-55.15-37.94-57.25-9.45-8.4-24.56-8.6-31.7-2.11C90.84,233,82.74,324.75,83.3,318.43Z" style="fill:#455a64"></path><path d="M154.9,274.91a101.42,101.42,0,0,1,17.38,1.1c2.86.47,5.7,1.09,8.54,1.79,1.42.34,2.83.63,4.26.92a16.23,16.23,0,0,0,4.49.4c.13,0,.16.22,0,.24a27.21,27.21,0,0,1-4.22.44,26.2,26.2,0,0,1-4.13-.37c-2.91-.45-5.81-1.05-8.72-1.54-5.87-1-11.73-1.94-17.63-2.43C154.63,275.44,154.62,274.91,154.9,274.91Z" style="fill:#263238"></path><path d="M141.54,282.57A110.33,110.33,0,0,1,155.6,280a71,71,0,0,1,7.14-.4c1.14,0,2.29,0,3.43,0s2.52.25,3.77.26c.14,0,.17.23,0,.24-1.18,0-2.36.3-3.53.41l-3.55.34c-2.37.23-4.73.49-7.11.7-4.74.41-9.46.87-14.19,1.48C141.34,283.06,141.3,282.63,141.54,282.57Z" style="fill:#263238"></path><path d="M156.59,227.67s-22.67-19-36.3-17.52L111.35,223s-.32,9-1.68,6.71c-3.37-5.74-10.32-29.28,1.38-39.59,10.72-9.45,34.19-9.48,50-6.57,15.22,2.8,24.11,10.95,20.27,21S156.59,227.67,156.59,227.67Z" style="fill:#455a64"></path><path d="M157.74,223s16.17-13.52,17.39-20.91-13.82-13.19-23.39-15.19c-14.82-3.09-24.62-1.4-32.15,7S157.74,223,157.74,223Z" style="fill:#37474f"></path><path d="M174.25,112S170,102.52,162,101.67s-10,3.94-14.95,3.78-14.79-3.61-20.8.15-6.11,13.83-9,16.27-10.7,1.34-13.91,8.22c-3.73,8,.49,14-.61,18.33-1.84,7.13-8,12-5.71,21.22,2.48,9.92,10.45,11.29,15,15.26,4.42,3.82,3.54,13.62,14.62,16.46s15.4-3.66,22.46-4.92,15.63,5,23.58,1.62,7.08-10.61,9.73-13.81,8.32-2.22,11.75-8.09-1-12.63-1-15.19c.09-4.37,3.44-6.1,3.61-12.31s-6.32-11.86-7.4-14c-2.61-5.09,2.66-13.64-2.17-18.77C181.18,109.4,174.25,112,174.25,112Z" style="fill:#263238"></path><path d="M122.34,110.14c-1.35,3.43-2.08,7.66-5.36,9.86-1.87,1.33-4.29,1.63-6.37,2.42-5.79,1.82-10.29,6.35-10.4,12.62-.15,2.93.73,5.8,1.49,8.74.62,2.17.81,4.82-.59,6.83-3.32,5.67-6.65,12.43-4.06,19-3.28-7,.54-14.24,3.82-20.41.78-1.64.38-3.45-.05-5.23-.76-2.87-1.73-5.86-1.6-9,.13-6.57,5-11.63,11.14-13.32,2.81-.91,6-1.18,8-3.56,1.72-2,2.91-5.61,4-8Z" style="fill:#263238"></path><path d="M166.39,199c8.33.22,12.77-.86,15.42-9.46a17.53,17.53,0,0,1,1.77-4,6.92,6.92,0,0,1,2.27-1.59c3.05-1.44,6.29-2.68,8.13-5.58a12.53,12.53,0,0,0,1.52-9.59c-.5-2.21-1.32-4.35-2-6.52a58.83,58.83,0,0,1,2.51,6.39,12.88,12.88,0,0,1-1.27,10.17c-1.84,3.07-5.4,4.58-8.42,6-2.33.82-2.83,2.91-3.63,5-2.77,8.69-7.75,10.16-16.27,9.15Z" style="fill:#263238"></path><path d="M136.19,204.43c.69,2.2,12.43,16,22.65,14.8,3.33-.4,2-18.66,2-18.66l.21-1.37L163.9,180l-23.21-12.68-3.34-1.65s-.45,5.3-.93,11.91c0,.31,0,.62-.07.94s-.08.73-.1,1.08c-.08,1-.17,2-.23,3-.05.76-.1,1.51-.12,2.31s-.07,1.6-.12,2.4C135.52,195.28,135.92,203.49,136.19,204.43Z" style="fill:#ad6359"></path><path d="M136.42,177.58A39,39,0,0,0,161,199.2L163.9,180l-23.21-12.68-3.34-1.65S136.9,171,136.42,177.58Z" style="fill:#263238"></path><path d="M190.34,151.2c4.12,33.82-15.67,40.11-23,41-6.62.81-29.27,2.69-36.87-30.52s6.82-45.83,21.87-48.46S186.21,117.38,190.34,151.2Z" style="fill:#ad6359"></path><path d="M179.07,145.24a23.86,23.86,0,0,1-2.39-.23,3.89,3.89,0,0,1-2.4-.7,1.22,1.22,0,0,1-.17-1.5,3.06,3.06,0,0,1,2.92-1.06,4.52,4.52,0,0,1,3,1.27A1.32,1.32,0,0,1,179.07,145.24Z" style="fill:#263238"></path><path d="M155.33,147.33c.8-.19,1.51-.5,2.28-.76a3.9,3.9,0,0,0,2.19-1.22,1.26,1.26,0,0,0-.18-1.51,3.07,3.07,0,0,0-3.09-.37,4.52,4.52,0,0,0-2.63,1.91A1.32,1.32,0,0,0,155.33,147.33Z" style="fill:#263238"></path><path d="M161.32,155.52c0-.09-.17.13-.16.23.4,2.34.47,5.09-1.55,6.16-.06,0,0,.15,0,.13C162.19,161.31,162.07,157.67,161.32,155.52Z" style="fill:#263238"></path><path d="M158.88,153.35c-3.82.24-3.07,7.86.47,7.64S162.08,153.15,158.88,153.35Z" style="fill:#263238"></path><path d="M157.42,153.9c-.62.5-1.2,1.32-2,1.48s-1.7-.54-2.38-1.25c-.07-.07-.13,0-.13.1.13,1.46.84,2.9,2.42,3s2.35-1.34,2.57-2.84C158,154.08,157.67,153.7,157.42,153.9Z" style="fill:#263238"></path><path d="M175.47,153.06c0-.09.19.1.2.2.14,2.36.7,5.06,2.9,5.65.07,0,.08.13,0,.13C175.92,158.91,175.22,155.33,175.47,153.06Z" style="fill:#263238"></path><path d="M177.35,150.41c3.78-.64,4.77,7,1.27,7.54S174.19,150.94,177.35,150.41Z" style="fill:#263238"></path><path d="M179,150.7c.65.32,1.34,1,2.07.93s1.34-.95,1.77-1.81c0-.09.11,0,.13.07.23,1.44-.06,3-1.41,3.48s-2.34-.71-2.87-2.11C178.59,151,178.74,150.57,179,150.7Z" style="fill:#263238"></path><path d="M164.94,174.15c.6.53,1.2,1.26,2.07,1.29a6.42,6.42,0,0,0,2.51-.73.08.08,0,0,1,.11.11,3.21,3.21,0,0,1-2.94,1.45,2.52,2.52,0,0,1-2-2C164.67,174.13,164.85,174.07,164.94,174.15Z" style="fill:#263238"></path><path d="M173.82,163.69s1,4,1.15,5.67c0,.16-5.74,1.08-9.09-2.27-.14-.14.06-.34.22-.25a12.05,12.05,0,0,0,7.41,1.44c.07-.47-1.67-6.06-1.41-6.11a14.32,14.32,0,0,1,3.87.44c-1.61-7.28-4.38-14.24-5.88-21.51a.23.23,0,0,1,.42-.16c3.42,7.09,5.46,15.43,7.32,22.9C178.07,164.77,174.51,163.9,173.82,163.69Z" style="fill:#263238"></path><path d="M173.54,169a9.73,9.73,0,0,1-3.52,3.44,4.4,4.4,0,0,1-2.62.47c-2-.29-2.22-2-2-3.57A10.42,10.42,0,0,1,166,167,12.63,12.63,0,0,0,173.54,169Z" style="fill:#263238"></path><path d="M170,172.48a4.4,4.4,0,0,1-2.62.47c-2-.29-2.22-2-2-3.57C167.43,169.35,169.61,170.51,170,172.48Z" style="fill:#ff98b9"></path><path d="M132.88,160.37c7.1-.39,6.74-16.67,6.74-16.67s11.92-2.74,16.54-11.11c0,0-3,7.21-7.61,10.31-.77.52,23.52-3,25-21.75,0,0,4.36,18.3,15.65,21.61.54.15-2.34-16.73-6.08-20.52a35.36,35.36,0,0,0-7.24-5.72A35,35,0,0,0,150.05,111c-14.89,2.81-24,19-24.9,25.47C123.45,149.24,129.51,160.55,132.88,160.37Z" style="fill:#263238"></path><path d="M149.35,143.27c13.28-1.14,23.51-10.07,24-23.71a.3.3,0,0,1,.59,0c2.39,13.71-12.1,24.44-24.74,24C148.93,143.5,149,143.3,149.35,143.27Z" style="fill:#263238"></path><path d="M132.88,159.61c7.05-4,7.89-11.29,8.12-18.67,0-.22.38-.24.39,0,.42,7.21-.52,16.1-8.23,19.29A.33.33,0,0,1,132.88,159.61Z" style="fill:#263238"></path><path d="M173.59,118.34a.07.07,0,0,1,.14,0c1.94,7.55,2.81,20.39,12.65,21.91a.21.21,0,0,1,0,.41C176.77,140,172.89,126.26,173.59,118.34Z" style="fill:#263238"></path><path d="M138.19,161.75s-7.8-10.37-12.54-7.55,1.4,18,7.14,19.94a5.76,5.76,0,0,0,7.6-3.37Z" style="fill:#ad6359"></path><path d="M127.52,158.51c-.09,0-.1.13,0,.16,4,1.47,6.25,5.07,7.85,8.84-1.24-1.43-2.87-2.18-4.79-.7-.1.08,0,.23.11.21a3.54,3.54,0,0,1,4,1.1,16.79,16.79,0,0,1,2,3.08c.2.35.84.14.69-.26l0-.09C137.15,165.78,133,158.83,127.52,158.51Z" style="fill:#263238"></path><path d="M135.78,142.79a86.08,86.08,0,0,0-9.28,10.67s-2.62-6.35-1.73-10.57c0,0,9.78-12.18,23.14-19.44Z" style="fill:#166F04"></path><path d="M130.12,148.89s17-28,26.71-34.1,31.45-9.31,44.93-2.27c10.51,5.49-13.93,21.39-13.93,21.39s-1.84-4.77-5.23-6.36c-6.56-3.09-19-.88-26.08,1.83C147.61,132.8,130.12,148.89,130.12,148.89Z" style="fill:#166F04"></path><path d="M130.12,148.89s17-28,26.71-34.1,31.45-9.31,44.93-2.27c10.51,5.49-13.93,21.39-13.93,21.39s-1.84-4.77-5.23-6.36c-6.56-3.09-19-.88-26.08,1.83C147.61,132.8,130.12,148.89,130.12,148.89Z" style="opacity:0.2"></path><path d="M113.78,214.94C79.57,246,49.4,294.06,51.38,321.31c2,26.92,11.29,23.55,14,23.16,16.46-2.39,47.4-76.81,56.85-108.23C130.85,207.57,122.24,207.25,113.78,214.94Z" style="fill:#455a64"></path><path d="M85.62,321.71c1.64-3.55,3.33-7,4.91-10.62l4.86-10.63c3.2-7.1,6.46-14.17,9.54-21.32s6.28-14.24,9.32-21.41q2.3-5.37,4.45-10.79c1.5-3.59,2.83-7.24,4.2-10.9a206.72,206.72,0,0,1-7.28,22.22c-2.76,7.3-5.84,14.47-8.93,21.63s-6.48,14.2-10,21.18S89.63,315,85.62,321.71Z" style="fill:#263238"></path><path d="M119.78,245.37a33.19,33.19,0,0,1,2-3.69c.36-.59.71-1.18,1.1-1.75s.75-1.17,1.2-1.74a10.27,10.27,0,0,1-1.48,4A11.54,11.54,0,0,1,119.78,245.37Z" style="fill:#263238"></path><path d="M107.15,221.23c2.44-1.93,6.63-6.29,13-10.69a18.49,18.49,0,0,0-7.59,4.58A55.55,55.55,0,0,0,107.15,221.23Z" style="fill:#263238"></path><path d="M157.74,223s-19.1-27.34-40.44-28.56l3,15.73s12.6-.93,36.3,17.52Z" style="fill:#455a64"></path><path d="M114.62,210.88a27,27,0,0,1,11.45.65,50.54,50.54,0,0,1,10.75,4.05,88.43,88.43,0,0,1,10,5.81l4.7,3.37,4.54,3.59.51.4.52-.32a97.54,97.54,0,0,0,10.86-7.73,54.89,54.89,0,0,0,4.94-4.47,34.14,34.14,0,0,0,4.23-5.13,59.06,59.06,0,0,1-9.89,8.67c-1.77,1.3-3.6,2.51-5.45,3.69s-3.7,2.37-5.59,3.44l1,.09-4.56-3.71c-1.57-1.18-3.17-2.32-4.77-3.46s-3.32-2.11-5-3.09-3.45-1.91-5.28-2.67a46.49,46.49,0,0,0-11.24-3.59c-1-.19-2-.29-2.93-.4s-2-.13-3-.1A17.37,17.37,0,0,0,114.62,210.88Z" style="fill:#263238"></path><path d="M148.32,216.87a117,117,0,0,0-2.3,20c-.17,4.69,1.4,21.55,6.62,21s-3.11-11.51-4.48-20.41,1.1-15.37,1.5-20.68Z" style="fill:#263238"></path><path d="M167.4,216.06A106.14,106.14,0,0,1,171,234c.51,4.22.4,19.57-4.36,19.5s1.92-10.65,2.47-18.8-2.19-13.79-2.95-18.56Z" style="fill:#263238"></path><g style="opacity:0.30000000000000004"><polygon points="213.12 233.49 205.28 315.74 164.83 315.74 157 233.49 213.12 233.49" style="fill:#ebebeb"></polygon><path d="M205.51,316H164.6l0-.22-7.86-82.53h56.67l0,.28Zm-40.45-.5h40l7.78-81.75H157.27Z" style="fill:#263238"></path></g><g style="opacity:0.30000000000000004"><polygon points="209.79 233.49 202.5 310.07 167.62 310.07 160.33 233.49 209.79 233.49" style="fill:#dbdbdb"></polygon><path d="M202.72,310.32H167.39l-7.34-77.08h50l0,.28Zm-34.87-.5h34.42l7.24-76.08H160.6Z" style="fill:#263238"></path></g><path d="M208.19,250.31l-5.69,59.76H167.62l-6-63c12.72-.92,22.55,3,30.5,3.89C196.83,251.47,203.18,251,208.19,250.31Z" style="fill:#ebebeb;opacity:0.6000000000000001"></path><path d="M180.35,292a.63.63,0,0,0,0-1.26A.63.63,0,0,0,180.35,292Z" style="fill:#c7c7c7"></path><path d="M200.71,256a1.14,1.14,0,0,0,.1.19.29.29,0,0,0,.49,0l.09-.19C201.75,255.2,200.35,255.2,200.71,256Z" style="fill:#c7c7c7"></path><path d="M174.94,288.13a.48.48,0,0,0,0-1A.48.48,0,0,0,174.94,288.13Z" style="fill:#c7c7c7"></path><path d="M196.31,302.06a.49.49,0,0,0,0-1A.49.49,0,0,0,196.31,302.06Z" style="fill:#c7c7c7"></path><path d="M202.91,284.21a.48.48,0,0,0,0-1A.48.48,0,0,0,202.91,284.21Z" style="fill:#c7c7c7"></path><path d="M167.4,266a.48.48,0,0,0,0-1A.48.48,0,0,0,167.4,266Z" style="fill:#c7c7c7"></path><path d="M190,272a.48.48,0,0,0,0-1A.48.48,0,0,0,190,272Z" style="fill:#c7c7c7"></path><path d="M170.39,249.34a.48.48,0,0,0,0-1A.48.48,0,0,0,170.39,249.34Z" style="fill:#c7c7c7"></path><path d="M201.71,288.51a.66.66,0,0,0,.94,0,.92.92,0,0,0,.23-.91.73.73,0,0,0-1.4,0A.92.92,0,0,0,201.71,288.51Z" style="fill:#c7c7c7"></path><path d="M172.48,305.27a.68.68,0,0,0,.94,0,.93.93,0,0,0,.23-.91.73.73,0,0,0-1.4,0A1,1,0,0,0,172.48,305.27Z" style="fill:#c7c7c7"></path><path d="M178,256.8a.68.68,0,0,0,.94,0,.93.93,0,0,0,.23-.91.73.73,0,0,0-1.4,0A.93.93,0,0,0,178,256.8Z" style="fill:#c7c7c7"></path><path d="M165.76,268.72a.66.66,0,0,0,.94,0,1,1,0,0,0,.23-.91.73.73,0,0,0-1.4,0A.93.93,0,0,0,165.76,268.72Z" style="fill:#c7c7c7"></path><polygon points="205.18 233.49 197.32 313.39 172.8 315.74 205.28 315.74 213.12 233.49 205.18 233.49" style="opacity:0.1"></polygon><g style="opacity:0.5"><polygon points="162.18 233.49 168.7 233.49 175.86 315.74 169.94 315.74 162.18 233.49" style="fill:#fff"></polygon><polygon points="170.77 233.49 173.31 233.49 179.92 315.74 177.87 315.74 170.77 233.49" style="fill:#fff"></polygon></g><path d="M59.18,343.8c12.15,3.38,28.88-4.16,72.86-28,6.08-3.29-5.62-52.49-12.3-49.31-8.41,4-40.19,21.41-42.35,23C59.14,302.69,50.93,341.51,59.18,343.8Z" style="fill:#ad6359"></path><path d="M103.53,278.73s13.56-14.46,23-19.85c12.69-7.22,26.61-8.22,32.47-8.29,12.24-.15,41.92,8,41.08,16.91-.77,8.11-30.69-1.71-30.69-1.71s32.16,5,29.45,14.57-36.8-3.78-36.8-3.78,32.93,5.85,28.56,15.3c-3.29,7.15-34.85-3.23-34.85-3.23s28.27,5.23,25.19,12.72c-3.39,8.28-33.12.53-33.12.53-11,17.72-23.89,21.4-33.11,23.14C112.52,325.46,103.53,278.73,103.53,278.73Z" style="fill:#ad6359"></path><path d="M158.42,263.36c3.8.45,7.65.87,11.39,1.66s7.47,1.7,11.13,2.83a65.42,65.42,0,0,1,13.81,5.74c-8.07-3.76-21.44-6.77-25.19-7.55s-7.44-1.76-11.18-2.54C158.29,263.48,158.33,263.35,158.42,263.36Z" style="fill:#263238"></path><path d="M155.34,276.83c4.83.78,9.65,1.38,14.44,2.38s9.21,2.35,13.9,3.66c.36.1.19.26-.18.18-4.74-1.13-9.21-1.81-14-2.88s-9.46-2.33-14.23-3.22C155.24,276.93,155.27,276.82,155.34,276.83Z" style="fill:#263238"></path><path d="M150.62,287.92c7.44.82,14.72,3,21.8,5.33.36.11.11.29-.26.2-7.21-1.91-12.86-3.45-21.57-5.27C150.46,288.15,150.47,287.91,150.62,287.92Z" style="fill:#263238"></path><path d="M104.39,272.37l8,59.61s-4,1.72-11.13,4.29c0,0-7.45,7-11.4,8.24-12.61,3.89-27.33,2.79-31.61-1.18-8.46-7.85,2.14-40.22,14.43-51.45C77.81,287.2,104.39,272.37,104.39,272.37Z" style="fill:#455a64"></path><path d="M104.66,274.36l-.37-2,.15.08c-4.44,2.72-8.89,5.42-13.29,8.18s-8.81,5.51-13,8.48A59.15,59.15,0,0,0,72,293.81a46.29,46.29,0,0,0-5.11,5.72,49.25,49.25,0,0,0-7,13.74A41,41,0,0,1,66,298.89a37.23,37.23,0,0,1,5.11-6,59,59,0,0,1,6.18-4.92c4.31-3,8.76-5.69,13.26-8.31s9.12-5.05,13.8-7.34l.14-.06v.14Z" style="fill:#263238"></path><path d="M93.19,285.38c.59,2.95.92,6,1.33,8.95s.8,6,1.14,9c.68,6,1.33,12,1.91,18,.15,1.64.31,3.28.43,4.92s.06,3.54.21,5.29a.11.11,0,0,1-.21,0c-.2-1.47-.6-2.91-.82-4.38s-.44-3-.63-4.56q-.55-4.49-1.08-9c-.69-6-1.35-12-1.85-18-.28-3.39-.66-6.8-.74-10.21A.16.16,0,0,1,93.19,285.38Z" style="fill:#263238"></path></g><g id="freepik--Table--inject-184"><path d="M52.81,469.07c126.33-.61,268.05-.62,394.38,0-126.33.62-268,.61-394.38,0Z" style="fill:#263238"></path></g><g id="freepik--speech-bubble--inject-184"><path d="M280.09,78.9a45,45,0,0,1-71.9,36.18l-22.08,5.63,9.19-20.55A45.06,45.06,0,1,1,280.09,78.9Z" style="fill:#fff"></path><path d="M280.09,78.9A45.47,45.47,0,0,1,260.66,116a44.92,44.92,0,0,1-23.29,8c-10,.88-22.29-2.91-29.1-8.63l-22.05,5.72-.88.22.37-.83L194.86,100l0,.43c-14-25.73.61-58.65,29.13-65.42,28.12-7.22,56.31,15,56.08,43.93Zm0,0C280.21,50,252.14,28,224.14,35.51c-20,4.82-34.67,24.48-33.66,45.06a45,45,0,0,0,5.36,19.57l-.1.21-9.23,20.54-.51-.6,22.1-5.56.16,0,.14.1c16,12.2,39,11.79,54.66-.74a45.39,45.39,0,0,0,17-35.15Z" style="fill:#263238"></path><polygon points="229.18 107.72 208.99 87.28 215.77 80.57 227.56 92.51 252.07 54.09 260.11 59.22 229.18 107.72" style="fill:#166F04"></polygon></g></svg>
