<svg xmlns="http://www.w3.org/2000/svg" viewBox="0 0 500 500"><g id="freepik--Floor--inject-36"><path id="freepik--floor--inject-36" d="M77.66,248.19c-95.18,54.95-95.17,144,0,199s249.49,54.95,344.67,0,95.17-144,0-199S172.84,193.24,77.66,248.19Z" style="fill:#fafafa"></path></g><g id="freepik--Plant--inject-36"><g id="freepik--Plants--inject-36"><path d="M461.91,365.81h-.16l-4.59-1.18a.43.43,0,0,1-.28-.26c0-.12-4-12.08,4.48-28.3C467.45,324.49,477,317,483,319a6.75,6.75,0,0,1,4.73,4.81,7.83,7.83,0,0,1-2.47,7.3c-.48.47-1.22,1.1-2.16,1.9-5.81,4.94-19.41,16.5-20.88,32.49a.39.39,0,0,1-.17.29A.51.51,0,0,1,461.91,365.81Zm-4.34-1.91,3.93,1c1.72-16.06,15.29-27.6,21.12-32.56.92-.79,1.66-1.41,2.11-1.86a7,7,0,0,0,2.25-6.55,5.9,5.9,0,0,0-4.2-4.24c-5.71-1.85-14.81,5.49-20.71,16.73C454.31,351.19,457.1,362.3,457.57,363.9Z" style="fill:#00960C"></path><path d="M459.3,365.14h-.05a.39.39,0,0,1-.4-.39c-.34-18.67,12.58-36.66,21.28-40.37a.4.4,0,1,1,.31.73c-8.6,3.67-21.12,21.92-20.8,39.63A.4.4,0,0,1,459.3,365.14Z" style="fill:#00960C"></path><path d="M457.32,364.63a.55.55,0,0,1-.18,0l-3.11-.94a.39.39,0,0,1-.27-.26c-.05-.18-5.55-18-1.5-42.05,2.07-12.24,9.2-24.18,17-28.39a12,12,0,0,1,10.91-.75,5.93,5.93,0,0,1,3.69,3.78c1.29,4.54-3.43,11.31-8.43,18.48-3.5,5-7.11,10.19-8.76,14.77a.4.4,0,1,1-.75-.27c1.69-4.67,5.33-9.9,8.86-15,4.89-7,9.5-13.62,8.32-17.81a5.17,5.17,0,0,0-3.24-3.27,11.2,11.2,0,0,0-10.22.73c-7.57,4.1-14.54,15.8-16.56,27.82-3.79,22.49.83,39.47,1.41,41.48l2.91.88a.41.41,0,0,1,.27.5A.43.43,0,0,1,457.32,364.63Z" style="fill:#00960C"></path><path d="M456.55,353.26h0a.41.41,0,0,1-.43-.37c-2.35-28.88,13.77-52,18.53-56a.4.4,0,1,1,.51.61c-4.7,3.91-20.57,26.74-18.25,55.31A.39.39,0,0,1,456.55,353.26Z" style="fill:#00960C"></path></g></g><g id="freepik--Shadows--inject-36"><path id="freepik--Shadow--inject-36" d="M391.1,434.3l-89-51.42c-6.13-3.54-15.54-4.18-21-1.18s-4.91,8.51,1.31,12.1l89.4,51.63h0c-1.84,1.06-1.61,2.92.51,4.14l10.31,5.95a8,8,0,0,0,7.17.3l19.29-11.14c1.84-1.06,1.61-2.91-.52-4.14l-10.3-6a8,8,0,0,0-7.18-.29Z" style="fill:#e0e0e0"></path><path id="freepik--shadow--inject-36" d="M95.07,434.27c-15.44,8.91-40.46,8.91-55.89,0s-15.43-23.36,0-32.27,40.45-8.91,55.89,0S110.5,425.36,95.07,434.27Z" style="fill:#e0e0e0"></path><path id="freepik--shadow--inject-36" d="M261.08,430.47c-21.58,12.45-56.56,12.45-78.13,0s-21.58-32.66,0-45.11,56.55-12.46,78.13,0S282.65,418,261.08,430.47Z" style="fill:#e0e0e0"></path><path id="freepik--shadow--inject-36" d="M144.26,427.84c-5.64,3.26-14.79,3.26-20.43,0s-5.64-8.54,0-11.79,14.79-3.26,20.43,0S149.9,424.58,144.26,427.84Z" style="fill:#e0e0e0"></path><path id="freepik--shadow--inject-36" d="M160,447.94c-5.64,3.26-14.79,3.26-20.43,0s-5.64-8.54,0-11.79,14.79-3.26,20.43,0S165.6,444.68,160,447.94Z" style="fill:#e0e0e0"></path><path id="freepik--shadow--inject-36" d="M457.21,406.54c-22.65,13.09-59.39,13.09-82,0s-22.66-34.29,0-47.38,59.39-13.08,82,0S479.87,393.46,457.21,406.54Z" style="fill:#e0e0e0"></path></g><g id="freepik--Clipboard--inject-36"><g id="freepik--clipboard--inject-36"><g id="freepik--clipboard--inject-36"><g id="freepik--Board--inject-36"><g id="freepik--Window--inject-36"><path d="M206.8,34.64,46.92,126.84a6.6,6.6,0,0,0-3,5.18V398.66a6.55,6.55,0,0,0,3,5.16l.61.35a6.63,6.63,0,0,0,6,0l159.89-92.32a6.6,6.6,0,0,0,3-5.18V40.15a6.57,6.57,0,0,0-3-5.17l-.61-.35A6.65,6.65,0,0,0,206.8,34.64Z" style="fill:#00960C"></path><path d="M206.8,34.64,46.92,126.84a6.6,6.6,0,0,0-3,5.18V398.66a6.55,6.55,0,0,0,3,5.16l.61.35a6.63,6.63,0,0,0,6,0l159.89-92.32a6.6,6.6,0,0,0,3-5.18V40.15a6.57,6.57,0,0,0-3-5.17l-.61-.35A6.65,6.65,0,0,0,206.8,34.64Z" style="opacity:0.45"></path><path d="M216.4,306.88c0,2.62-1.85,4.3-4.14,5.61l-157.59,91c-2.28,1.32-4.14.25-4.14-2.39v-264h0A8.23,8.23,0,0,1,54.65,130l157.61-91a2.76,2.76,0,0,1,4.14,2.39h0Z" style="fill:#00960C"></path><path d="M216.4,306.88c0,2.62-1.85,4.3-4.14,5.61l-157.59,91c-2.28,1.32-4.14.25-4.14-2.39v-264h0A8.23,8.23,0,0,1,54.65,130l157.61-91a2.76,2.76,0,0,1,4.14,2.39h0Z" style="opacity:0.30000000000000004"></path><path d="M216.4,40.15v1.17a2.76,2.76,0,0,0-4.14-2.38L54.65,130a8,8,0,0,0-3,3l0,.09-6.83-3.94a6.33,6.33,0,0,1,2.16-2.28L206.8,34.64a6.68,6.68,0,0,1,6,0l.61.35A6.58,6.58,0,0,1,216.4,40.15Z" style="fill:#00960C"></path><path d="M216.4,40.15v1.17a2.76,2.76,0,0,0-4.14-2.38L54.65,130a8,8,0,0,0-3,3l0,.09-6.83-3.94a6.33,6.33,0,0,1,2.16-2.28L206.8,34.64a6.68,6.68,0,0,1,6,0l.61.35A6.58,6.58,0,0,1,216.4,40.15Z" style="opacity:0.2"></path></g></g><path id="freepik--shadow--inject-36" d="M212.5,294.77c0,2.71-1.9,4.43-4.26,5.78l-149,86c-2.35,1.36-4.26.26-4.26-2.46V152.33h0A8.5,8.5,0,0,1,59.27,145l149-86a2.84,2.84,0,0,1,4.26,2.46V294.77Z" style="opacity:0.25"></path><g id="freepik--Form--inject-36"><g id="freepik--Paper--inject-36"><path d="M58.84,148.22,207.26,62.53a2.84,2.84,0,0,1,2.54,0l1.43.83a2.8,2.8,0,0,1,1.27,2.2v233a2.82,2.82,0,0,1-1.27,2.2L62.82,386.4a2.78,2.78,0,0,1-2.54,0l-1.44-.83a2.8,2.8,0,0,1-1.27-2.2V150.42A2.8,2.8,0,0,1,58.84,148.22Z" style="fill:#f5f5f5"></path><path d="M62.52,386.54a2.52,2.52,0,0,1-.47.13l-.25,0a3.31,3.31,0,0,1-.77,0,2.32,2.32,0,0,1-.47-.13l-.28-.14-1.43-.82a2.79,2.79,0,0,1-1.27-2.2v-233a2.44,2.44,0,0,1,.37-1.25l4,2.29a2.61,2.61,0,0,0-.37,1.25v233C61.55,386.36,62,386.71,62.52,386.54Z" style="fill:#e0e0e0"></path><path d="M211.23,63.36l-1.43-.83a2.84,2.84,0,0,0-2.54,0L58.84,148.22a2.8,2.8,0,0,0-1.27,2.2v16l4,2.31,151-87.15v-16A2.8,2.8,0,0,0,211.23,63.36Z" style="fill:#00960C"></path><path d="M211.23,63.36l-1.43-.83a2.84,2.84,0,0,0-2.54,0L58.84,148.22a2.8,2.8,0,0,0-1.27,2.2v16l4,2.31,151-87.15v-16A2.8,2.8,0,0,0,211.23,63.36Z" style="fill:#fff;opacity:0.4"></path><path d="M212.45,65.17c-.15-.51-.64-.68-1.22-.35L62.82,150.51a2.5,2.5,0,0,0-.9,1l-4-2.29a2.5,2.5,0,0,1,.9-.95L207.26,62.53a2.76,2.76,0,0,1,2.53,0l1.44.82A2.81,2.81,0,0,1,212.45,65.17Z" style="fill:#00960C"></path><path d="M212.45,65.17c-.15-.51-.64-.68-1.22-.35L62.82,150.51a2.5,2.5,0,0,0-.9,1l-4-2.29a2.5,2.5,0,0,1,.9-.95L207.26,62.53a2.76,2.76,0,0,1,2.53,0l1.44.82A2.81,2.81,0,0,1,212.45,65.17Z" style="fill:#fff;opacity:0.6000000000000001"></path><path d="M57.58,150.42v16l4,2.3v-16a2.61,2.61,0,0,1,.37-1.25l-4-2.29A2.44,2.44,0,0,0,57.58,150.42Z" style="fill:#00960C"></path></g></g><g id="freepik--Clip--inject-36"><g id="freepik--shadow--inject-36" style="opacity:0.25"><path d="M178.17,73.26V86a10.94,10.94,0,0,1-5,8.66l-24.69,14.25c-1.22.71-1.92,2.12-2.65,3.6a14,14,0,0,1-1.91,3.11c-1.92,2.18-6.1,4.45-9,5.39a18.17,18.17,0,0,1-3,.69c-.37.06-.78.11-1.21.16-2.69.36-6.05.82-8,2l-28.9,16.68a5.12,5.12,0,0,1-2.52.75,3.31,3.31,0,0,1-1.68-.43,4.13,4.13,0,0,1-1.84-3.8V124.28a10.89,10.89,0,0,1,5-8.66l9.7-5.61a.46.46,0,0,1,.14-.05,1,1,0,0,1,1.28.44,1,1,0,0,1-.27,1.31.52.52,0,0,1-.11.1l-9.71,5.6a9,9,0,0,0-4,6.87V137a2.21,2.21,0,0,0,.8,2,2.24,2.24,0,0,0,2.14-.31L121.63,122c2.32-1.34,5.9-1.83,8.77-2.21.43,0,.83-.11,1.2-.17a15.54,15.54,0,0,0,2.63-.61c2.63-.83,6.52-3,8.13-4.77a12.67,12.67,0,0,0,1.6-2.68c.84-1.69,1.71-3.45,3.47-4.46l24.7-14.25a9,9,0,0,0,4-6.87V73.26a1.74,1.74,0,0,0-2.94-1.69l-8.41,4.86a9.06,9.06,0,0,0-1.05-1.78l8.43-4.87a3.75,3.75,0,0,1,6,3.48Z"></path></g><g id="freepik--clip--inject-36"><path d="M160.15,73.49h0a2.58,2.58,0,0,1,2.61.25,8.09,8.09,0,0,1,3.67,6.35,2.57,2.57,0,0,1-1.09,2.38h0l-58.59,33.83-5.19-9Z" style="fill:#37474f"></path><path d="M104.17,111.85l61.2-35.34a7.48,7.48,0,0,0-2.61-2.76c-.12-.07-.23-.11-.35-.17l-60.25,34.79Z" style="fill:#455a64"></path><path d="M104.17,107.58c-2-1.17-3.67-.22-3.67,2.12a8.11,8.11,0,0,0,3.67,6.36c2,1.17,3.67.22,3.67-2.12A8.11,8.11,0,0,0,104.17,107.58Z" style="fill:#263238"></path><path d="M179.21,74.17V86.93a11,11,0,0,1-5,8.66l-24.7,14.25c-1.22.7-1.92,2.11-2.65,3.59a13.82,13.82,0,0,1-1.91,3.12c-1.92,2.18-6.1,4.45-9,5.39a17.15,17.15,0,0,1-3,.68c-.37.07-.78.12-1.21.17-2.69.36-6,.82-8,2L94.8,141.43a5.12,5.12,0,0,1-2.52.75,3.31,3.31,0,0,1-1.68-.43,4.14,4.14,0,0,1-1.84-3.81V125.19a10.88,10.88,0,0,1,5-8.66l9.7-5.61.14,0a1,1,0,0,1,1,1.75.31.31,0,0,1-.11.09l-9.71,5.61a9,9,0,0,0-4,6.87v12.75a1.74,1.74,0,0,0,2.94,1.69l28.9-16.69c2.32-1.33,5.9-1.82,8.77-2.2.43,0,.83-.12,1.2-.17a15.87,15.87,0,0,0,2.64-.61c2.62-.83,6.51-2.95,8.12-4.78a12,12,0,0,0,1.6-2.67c.84-1.7,1.71-3.45,3.47-4.46l24.7-14.26a9,9,0,0,0,4-6.86V74.17a1.74,1.74,0,0,0-2.93-1.69l-8.42,4.86a8.85,8.85,0,0,0-1-1.79l8.43-4.86a3.74,3.74,0,0,1,6,3.48Z" style="fill:#455a64"></path></g></g></g><path d="M79.86,167.13q3.45-2,5.24-.89c1.2.73,1.79,2.36,1.79,4.88a14.37,14.37,0,0,1-.92,5.11,13.52,13.52,0,0,1-2.72,4.38l3.81,6.88a.86.86,0,0,1,.08.36,1.43,1.43,0,0,1-.18.67,1.08,1.08,0,0,1-.43.48l-2.34,1.36q-.56.31-.81.12a1.12,1.12,0,0,1-.37-.43l-3.61-6.48-3.67,2.12v8.56a1.75,1.75,0,0,1-.22.83,1.39,1.39,0,0,1-.52.59L72.75,197a.43.43,0,0,1-.52,0,.66.66,0,0,1-.22-.57V172.66a1.75,1.75,0,0,1,.22-.83,1.39,1.39,0,0,1,.52-.59Zm-4.13,14,4-2.3a8.13,8.13,0,0,0,2.5-2.19,5.45,5.45,0,0,0,.94-3.33c0-1.37-.31-2.11-.94-2.22a4.12,4.12,0,0,0-2.5.75l-4,2.31Z" style="fill:#00960C"></path><path d="M93.76,187.56,90.5,194.8a3.26,3.26,0,0,1-.56.9,3.21,3.21,0,0,1-.65.5l-2.12,1.23a.43.43,0,0,1-.51,0,.79.79,0,0,1-.21-.62,1.66,1.66,0,0,1,.11-.58l5-11.06-4.74-5.09a.78.78,0,0,1-.11-.45,1.84,1.84,0,0,1,.21-.85,1.37,1.37,0,0,1,.51-.59L89.51,177a1.86,1.86,0,0,1,.65-.24.63.63,0,0,1,.56.24l3.12,3.35,3.08-6.93a3.51,3.51,0,0,1,.57-.9,3.21,3.21,0,0,1,.65-.5l2.12-1.22a.4.4,0,0,1,.51,0,.75.75,0,0,1,.21.61,1.66,1.66,0,0,1-.11.58l-4.8,10.74,4.91,5.22a.78.78,0,0,1,.11.45,1.84,1.84,0,0,1-.21.85,1.32,1.32,0,0,1-.51.59L98.25,191a1.68,1.68,0,0,1-.65.24A.63.63,0,0,1,97,191Z" style="fill:#00960C"></path><path d="M146.32,131.56c.63-.37,1.11-.42,1.43-.16a2,2,0,0,1,.49,1.59,4.92,4.92,0,0,1-.25,1.6,3.94,3.94,0,0,1-.74,1.31l1,2.28a.2.2,0,0,1,0,.11.41.41,0,0,1-.05.21.27.27,0,0,1-.11.14l-.65.37c-.1.06-.17.07-.22,0a.41.41,0,0,1-.1-.14l-1-2.14-1,.58V140a.57.57,0,0,1-.06.25.35.35,0,0,1-.15.18l-.61.35c-.06,0-.1,0-.14,0a.24.24,0,0,1-.06-.18v-7.52a.57.57,0,0,1,.06-.25.34.34,0,0,1,.14-.18Zm-1.13,4.31,1.09-.63a1.91,1.91,0,0,0,.69-.63,1.82,1.82,0,0,0,.26-1c0-.43-.09-.67-.26-.72a1,1,0,0,0-.69.17l-1.09.63Z" style="fill:#455a64"></path><path d="M153.34,127.5a.12.12,0,0,1,.15,0,.25.25,0,0,1,.06.19v7.51a.62.62,0,0,1-.06.26.36.36,0,0,1-.15.17l-.61.35a.1.1,0,0,1-.14,0,.23.23,0,0,1-.06-.18v-3.07l-2.28,1.32v3.07a.57.57,0,0,1-.06.25.35.35,0,0,1-.15.18l-.61.35a.12.12,0,0,1-.14,0,.27.27,0,0,1-.06-.2v-7.51a.57.57,0,0,1,.06-.25.34.34,0,0,1,.14-.18l.61-.35a.12.12,0,0,1,.15,0,.24.24,0,0,1,.06.18v3l2.28-1.32v-3a.62.62,0,0,1,.06-.26.54.54,0,0,1,.14-.18Z" style="fill:#455a64"></path><path d="M158.25,131.36a.11.11,0,0,1,.14,0,.24.24,0,0,1,.06.18v.83a.62.62,0,0,1-.06.26.41.41,0,0,1-.14.17l-3.32,1.92a.12.12,0,0,1-.14,0,.27.27,0,0,1-.06-.19V127a.62.62,0,0,1,.06-.26.35.35,0,0,1,.14-.17l3.25-1.88a.11.11,0,0,1,.15,0,.23.23,0,0,1,.06.18v.83a.57.57,0,0,1-.06.25.35.35,0,0,1-.15.18l-2.43,1.41v1.85L158,128.1a.12.12,0,0,1,.14,0,.27.27,0,0,1,.06.19v.83a.57.57,0,0,1-.06.25.39.39,0,0,1-.14.18l-2.27,1.31v1.93Z" style="fill:#455a64"></path><path d="M163.47,121.65a.12.12,0,0,1,.15,0,.25.25,0,0,1,.06.19v4.77a6.87,6.87,0,0,1-.14,1.38,5.39,5.39,0,0,1-.41,1.23,4.34,4.34,0,0,1-.68,1,3.49,3.49,0,0,1-.94.77,2,2,0,0,1-.95.32.93.93,0,0,1-.68-.25,1.65,1.65,0,0,1-.4-.77,4.75,4.75,0,0,1-.13-1.22v-4.77a.62.62,0,0,1,.06-.26.41.41,0,0,1,.14-.17l.61-.36a.13.13,0,0,1,.15,0,.25.25,0,0,1,.06.19v4.71a3.19,3.19,0,0,0,.08.77.84.84,0,0,0,.23.41.5.5,0,0,0,.37.11,1.24,1.24,0,0,0,.46-.17,2.26,2.26,0,0,0,.46-.37,2,2,0,0,0,.37-.52,3.1,3.1,0,0,0,.24-.69,3.9,3.9,0,0,0,.08-.87v-4.71a.57.57,0,0,1,.06-.25.4.4,0,0,1,.15-.18Z" style="fill:#455a64"></path><path d="M167.3,123.6l1.43-4.67c0-.05.05-.13.1-.24a.52.52,0,0,1,.22-.26l.52-.3a.12.12,0,0,1,.14,0,.25.25,0,0,1,.06.19v7.51a.62.62,0,0,1-.06.26.41.41,0,0,1-.14.17l-.61.36a.12.12,0,0,1-.15,0,.25.25,0,0,1-.06-.19v-4.55l-1,3.19a2.41,2.41,0,0,1-.11.25.42.42,0,0,1-.17.2l-.39.23a.15.15,0,0,1-.18,0,.57.57,0,0,1-.1-.13l-1-2.05v4.54a.58.58,0,0,1-.06.26.39.39,0,0,1-.15.18l-.61.35c-.06,0-.1,0-.14,0a.25.25,0,0,1-.06-.19v-7.51a.65.65,0,0,1,.06-.26.35.35,0,0,1,.14-.17l.51-.3c.11-.06.18-.06.23,0l.1.13Z" style="fill:#455a64"></path><path d="M173.44,115.9c.08-.05.14-.05.18,0a.69.69,0,0,1,.1.24l1.85,6.28a.19.19,0,0,1,0,.08.57.57,0,0,1-.06.25.39.39,0,0,1-.14.18l-.55.31q-.15.09-.21,0a.28.28,0,0,1-.08-.15l-.33-1.1-2.38,1.38-.33,1.48a1,1,0,0,1-.08.24.49.49,0,0,1-.21.22l-.55.31a.11.11,0,0,1-.14,0,.24.24,0,0,1-.06-.18.25.25,0,0,1,0-.09l1.85-8.42a1.79,1.79,0,0,1,.1-.36.44.44,0,0,1,.18-.2Zm.41,4.87-.83-2.84-.83,3.8Z" style="fill:#455a64"></path><path d="M179.25,112.54a.12.12,0,0,1,.14,0c.05,0,.06.1.06.19v.82a.48.48,0,0,1-.06.26.38.38,0,0,1-.14.18l-1.36.78v6.37a.58.58,0,0,1-.06.26.45.45,0,0,1-.14.18l-.61.35a.12.12,0,0,1-.15,0,.25.25,0,0,1-.06-.19v-6.37l-1.36.79a.12.12,0,0,1-.14,0,.27.27,0,0,1-.06-.19v-.83a.57.57,0,0,1,.06-.25.39.39,0,0,1,.14-.18Z" style="fill:#455a64"></path><path d="M179.92,115.19a7.46,7.46,0,0,1,.17-1.32,5.64,5.64,0,0,1,.41-1.24,5,5,0,0,1,.68-1.07,3.53,3.53,0,0,1,1-.8,1.81,1.81,0,0,1,1-.31.92.92,0,0,1,.68.28,1.68,1.68,0,0,1,.42.76,4.57,4.57,0,0,1,.17,1.14c0,.14,0,.3,0,.48v1.1c0,.18,0,.35,0,.5a7.46,7.46,0,0,1-.17,1.32,5.64,5.64,0,0,1-.41,1.24,4.91,4.91,0,0,1-.68,1.06,3.73,3.73,0,0,1-1,.8,1.91,1.91,0,0,1-1,.31.93.93,0,0,1-.68-.27,1.73,1.73,0,0,1-.41-.76,4.72,4.72,0,0,1-.17-1.14c0-.14,0-.3,0-.48v-1.11C179.92,115.5,179.92,115.34,179.92,115.19Zm3.43-1.92a1.46,1.46,0,0,0-.36-1.09c-.21-.18-.49-.17-.85,0a2.21,2.21,0,0,0-.85,1,3.68,3.68,0,0,0-.35,1.5c0,.3,0,.63,0,1s0,.69,0,1a1.49,1.49,0,0,0,.35,1.09.7.7,0,0,0,.85,0,2.14,2.14,0,0,0,.85-1,3.45,3.45,0,0,0,.36-1.49c0-.3,0-.63,0-1S183.36,113.56,183.35,113.27Z" style="fill:#455a64"></path><path d="M188.87,113.67a.13.13,0,0,1,.15,0,.27.27,0,0,1,.06.19v.83a.57.57,0,0,1-.06.25.35.35,0,0,1-.15.18l-3.3,1.91a.12.12,0,0,1-.15,0,.25.25,0,0,1-.06-.19v-7.51a.62.62,0,0,1,.06-.26.36.36,0,0,1,.15-.17l.61-.36a.12.12,0,0,1,.14,0,.25.25,0,0,1,.06.19v6.37Z" style="fill:#455a64"></path><path d="M189.54,109.64a7.44,7.44,0,0,1,.16-1.32,6.22,6.22,0,0,1,.41-1.24,5.39,5.39,0,0,1,.68-1.07,4,4,0,0,1,1-.81,1.88,1.88,0,0,1,1-.3.9.9,0,0,1,.68.28,1.78,1.78,0,0,1,.42.76,4.59,4.59,0,0,1,.16,1.13c0,.15,0,.31,0,.49s0,.36,0,.55,0,.37,0,.55,0,.35,0,.5a7.44,7.44,0,0,1-.16,1.32,5.56,5.56,0,0,1-.41,1.23,4.45,4.45,0,0,1-.69,1.07,3.53,3.53,0,0,1-1,.8,1.91,1.91,0,0,1-1,.31,1,1,0,0,1-.68-.27,1.81,1.81,0,0,1-.41-.77,4.66,4.66,0,0,1-.16-1.13c0-.14,0-.3,0-.48s0-.36,0-.55,0-.38,0-.56S189.53,109.79,189.54,109.64Zm3.42-1.92a1.49,1.49,0,0,0-.35-1.09c-.21-.19-.5-.18-.85,0a2.21,2.21,0,0,0-.85,1,3.68,3.68,0,0,0-.35,1.5c0,.3,0,.63,0,1s0,.68,0,1a1.49,1.49,0,0,0,.35,1.09c.22.18.5.17.85,0a2.12,2.12,0,0,0,.85-.94,3.63,3.63,0,0,0,.35-1.49c0-.3,0-.63,0-1S193,108,193,107.72Z" style="fill:#455a64"></path><path d="M194.79,106.58a6.1,6.1,0,0,1,.17-1.36,5.59,5.59,0,0,1,.43-1.25,4.67,4.67,0,0,1,.71-1,3.74,3.74,0,0,1,1-.79,2.12,2.12,0,0,1,1.08-.37,1,1,0,0,1,.68.24,1.15,1.15,0,0,1,.36.55,2.87,2.87,0,0,1,.11.59.48.48,0,0,1-.05.26.52.52,0,0,1-.15.17l-.61.35c-.06,0-.1,0-.13,0a.18.18,0,0,1-.08-.09,1.09,1.09,0,0,0-.08-.16.48.48,0,0,0-.2-.2.65.65,0,0,0-.37-.09,1.06,1.06,0,0,0-.56.19,2.37,2.37,0,0,0-.91,1,3.32,3.32,0,0,0-.36,1.47c0,.3,0,.62,0,1s0,.65,0,.94c0,.63.13,1,.36,1.19s.53.13.91-.09a2.1,2.1,0,0,0,.51-.39,2.42,2.42,0,0,0,.41-.53,2.83,2.83,0,0,0,.26-.71,4,4,0,0,0,.09-.89v-.1l-.92.54a.12.12,0,0,1-.14,0,.27.27,0,0,1-.06-.19v-.83a.57.57,0,0,1,.06-.25.39.39,0,0,1,.14-.18l1.74-1c.06,0,.1,0,.14,0a.24.24,0,0,1,.06.18V106a6.18,6.18,0,0,1-.14,1.37,5.67,5.67,0,0,1-.43,1.26,4.62,4.62,0,0,1-.72,1.08,4,4,0,0,1-1,.82,2.27,2.27,0,0,1-1,.34.94.94,0,0,1-.7-.24,1.69,1.69,0,0,1-.43-.76,4.65,4.65,0,0,1-.16-1.2c0-.14,0-.3,0-.48s0-.36,0-.54,0-.37,0-.55S194.78,106.73,194.79,106.58Z" style="fill:#455a64"></path><path d="M204.14,98.17a.12.12,0,0,1,.14,0,.25.25,0,0,1,.06.19.37.37,0,0,1,0,.11l-1.79,5.89v2.55a.58.58,0,0,1-.06.26.45.45,0,0,1-.14.18l-.61.35a.11.11,0,0,1-.14,0,.23.23,0,0,1-.06-.18V105l-1.79-3.81a.3.3,0,0,1,0-.1.62.62,0,0,1,.06-.26.36.36,0,0,1,.15-.17l.56-.33c.1-.06.18-.06.23,0a.24.24,0,0,1,.09.12L202,103l1.23-4a1.25,1.25,0,0,1,.09-.22.54.54,0,0,1,.22-.25Z" style="fill:#455a64"></path><path d="M177.26,129,203,114.12c.41-.24.75-.05.75.43v1a1.69,1.69,0,0,1-.75,1.31l-25.77,14.89c-.42.24-.75,0-.75-.44v-1A1.64,1.64,0,0,1,177.26,129Z" style="fill:#00960C"></path><path d="M177.26,140.88,203,126c.41-.24.75,0,.75.43v1a1.67,1.67,0,0,1-.75,1.3L177.26,143.6c-.42.24-.75.05-.75-.43v-1A1.64,1.64,0,0,1,177.26,140.88Z" style="fill:#00960C"></path><path d="M182.58,131.84,203,120c.41-.25.75-.05.75.43v1a1.69,1.69,0,0,1-.75,1.31l-20.45,11.8c-.42.24-.76.05-.76-.43v-1A1.67,1.67,0,0,1,182.58,131.84Z" style="fill:#00960C"></path><path d="M72,220.68V222c0,.73.51,1,1.14.66l128.73-74.33a2.56,2.56,0,0,0,1.15-2V145c0-.73-.52-1-1.15-.66L73.15,218.7A2.53,2.53,0,0,0,72,220.68Z" style="fill:#e0e0e0"></path><path d="M72,229.26v1.35c0,.73.51,1,1.14.66l128.73-74.34a2.53,2.53,0,0,0,1.15-2V153.6c0-.73-.52-1-1.15-.66L73.15,227.28A2.52,2.52,0,0,0,72,229.26Z" style="fill:#e0e0e0"></path><path d="M72,237.84v1.34c0,.73.51,1,1.14.66l128.73-74.33a2.54,2.54,0,0,0,1.15-2v-1.35c0-.73-.52-1-1.15-.66L73.15,235.85A2.55,2.55,0,0,0,72,237.84Z" style="fill:#e0e0e0"></path><path d="M72,254.53v1.35c0,.73.51,1,1.14.66L201.88,182.2a2.53,2.53,0,0,0,1.15-2v-1.35c0-.73-.52-1-1.15-.66L73.15,252.55A2.52,2.52,0,0,0,72,254.53Z" style="fill:#e0e0e0"></path><path d="M72,263.11v1.34c0,.73.51,1,1.14.66l128.73-74.33a2.54,2.54,0,0,0,1.15-2v-1.35c0-.73-.52-1-1.15-.67L73.15,261.12A2.55,2.55,0,0,0,72,263.11Z" style="fill:#e0e0e0"></path><path d="M72,271.68V273c0,.73.51,1,1.14.66l128.73-74.33a2.56,2.56,0,0,0,1.15-2V196c0-.73-.52-1-1.15-.66L73.15,269.7A2.52,2.52,0,0,0,72,271.68Z" style="fill:#e0e0e0"></path><path d="M72,288.37v1.35c0,.73.51,1,1.14.66l128.73-74.33a2.54,2.54,0,0,0,1.15-2v-1.36c0-.73-.52-1-1.15-.66L73.15,286.39A2.53,2.53,0,0,0,72,288.37Z" style="fill:#e0e0e0"></path><path d="M72,297v1.35c0,.73.51,1,1.14.66l128.73-74.34a2.53,2.53,0,0,0,1.15-2v-1.35c0-.73-.52-1-1.15-.66L73.15,295A2.52,2.52,0,0,0,72,297Z" style="fill:#e0e0e0"></path><path d="M72,305.53v1.34c0,.73.51,1,1.14.66L201.88,233.2a2.53,2.53,0,0,0,1.15-2v-1.35c0-.73-.52-1-1.15-.66L73.15,303.54A2.55,2.55,0,0,0,72,305.53Z" style="fill:#e0e0e0"></path><path d="M72,363.46v1.35c0,.73.51,1,1.14.66l128.73-74.34a2.53,2.53,0,0,0,1.15-2V287.8c0-.73-.52-1-1.15-.66L73.15,361.48A2.52,2.52,0,0,0,72,363.46Z" style="fill:#e0e0e0"></path></g></g><g id="freepik--Pills--inject-36"><g id="freepik--pills--inject-36"><path d="M146,415a4.66,4.66,0,0,0-.28-.66c-.09-.17-.19-.35-.3-.52a7.46,7.46,0,0,0-2-1.93v2l-1.73-1v-2c-4.8-2.28-11.9-2.12-16.38.47A7.07,7.07,0,0,0,122,415c0,.12-.07.23-.1.34a4.29,4.29,0,0,0-.12,1v4a4.56,4.56,0,0,0,.89,2.65,8.29,8.29,0,0,0,2.69,2.34c4.77,2.76,12.51,2.76,17.29,0,2.38-1.38,3.58-3.19,3.58-5v-4A4.21,4.21,0,0,0,146,415Z" style="fill:#f0f0f0"></path><path d="M137.87,409.68c-4.24-.81-9.1-.24-12.47,1.71A7.07,7.07,0,0,0,122,415c0,.12-.07.23-.1.34a4.29,4.29,0,0,0-.12,1v4a4.56,4.56,0,0,0,.89,2.65,8.29,8.29,0,0,0,2.69,2.34c3.37,1.95,8.23,2.51,12.47,1.7Z" style="fill:#e6e6e6"></path><path d="M125.4,411.39c-4.49,2.59-4.76,6.69-.82,9.46l17.2-9.93C137,408.65,129.88,408.8,125.4,411.39Z" style="fill:#f5f5f5"></path><path d="M124.57,419.8s-4.75-3.64.53-8.23c-4.19,2.59-4.37,6.57-.52,9.28l17.2-9.93Z" style="fill:#fff"></path><path d="M143.51,411.92l-17.2,9.93c4.8,2.27,11.9,2.11,16.38-.48S147.44,414.69,143.51,411.92Z" style="fill:#f5f5f5"></path><path d="M126.31,421.85c4.8,2.27,11.9,2.11,16.38-.48a9,9,0,0,0,1.41-1c-8.79,4.41-15.87,1.3-15.87,1.3l15.28-9.77Z" style="fill:#fff"></path><polygon points="141.78 412.92 124.57 422.9 124.58 420.85 141.78 410.92 141.78 412.92" style="fill:#e0e0e0"></polygon><polygon points="126.31 421.85 126.31 423.89 124.57 422.9 126.31 421.85" style="opacity:0.2"></polygon><path d="M161.74,435.68a4.58,4.58,0,0,0-.27-.66,4.74,4.74,0,0,0-.31-.52,7.64,7.64,0,0,0-1.95-1.94v2l-1.73-1v-2c-4.8-2.27-11.9-2.11-16.38.48a7.07,7.07,0,0,0-3.36,3.64c0,.12-.07.23-.09.34a3.83,3.83,0,0,0-.13,1v4a4.63,4.63,0,0,0,.89,2.65A8.29,8.29,0,0,0,141.1,446c4.78,2.75,12.52,2.75,17.29,0,2.39-1.38,3.58-3.19,3.58-5v-4A4,4,0,0,0,161.74,435.68Z" style="fill:#f0f0f0"></path><path d="M153.58,430.33c-4.25-.81-9.11-.24-12.48,1.71a7.07,7.07,0,0,0-3.36,3.64c0,.12-.07.23-.09.34a3.83,3.83,0,0,0-.13,1v4a4.63,4.63,0,0,0,.89,2.65A8.29,8.29,0,0,0,141.1,446c3.38,2,8.23,2.51,12.48,1.7Z" style="fill:#e6e6e6"></path><path d="M141.1,432c-4.48,2.59-4.76,6.69-.82,9.46l17.2-9.93C152.68,429.29,145.58,429.45,141.1,432Z" style="fill:#f5f5f5"></path><path d="M140.28,440.45s-4.76-3.65.53-8.23c-4.2,2.59-4.38,6.57-.53,9.28l17.2-9.93Z" style="fill:#fff"></path><path d="M159.21,432.56,142,442.5c4.8,2.27,11.9,2.11,16.38-.48S163.15,435.34,159.21,432.56Z" style="fill:#f5f5f5"></path><path d="M142,442.5c4.8,2.27,11.9,2.11,16.38-.48a9.59,9.59,0,0,0,1.42-1c-8.8,4.41-15.88,1.3-15.88,1.3l15.28-9.78Z" style="fill:#fff"></path><polygon points="157.48 433.56 140.28 443.55 140.28 441.5 157.48 431.57 157.48 433.56" style="fill:#e0e0e0"></polygon><polygon points="142.01 442.5 142.01 444.54 140.28 443.55 142.01 442.5" style="opacity:0.2"></polygon></g><g id="freepik--pill-bottle--inject-36"><path d="M35.62,362.54c0-4.65,3.07-9.31,9.22-12.86,12.31-7.1,32.26-7.1,44.56,0,6.15,3.55,9.23,8.21,9.23,12.86h0V416.1h0c0,4.66-3.08,9.31-9.23,12.87-12.3,7.1-32.25,7.1-44.56,0-6.15-3.56-9.22-8.21-9.22-12.87h0Z" style="fill:#00960C"></path><path d="M47.73,348.22v82.2c-1-.45-2-.92-2.89-1.45a24.19,24.19,0,0,1-5-3.8V353.48a23.84,23.84,0,0,1,5-3.8C45.76,349.15,46.73,348.67,47.73,348.22Z" style="fill:#fff;opacity:0.4"></path><path d="M56,433.11a44.41,44.41,0,0,1-4.53-1.25V346.78c1.47-.48,3-.9,4.53-1.24Z" style="fill:#fff;opacity:0.4"></path><path d="M36.16,359.19a22.69,22.69,0,0,1,7.33-6.37c12.15-7,31.3-7.49,44.42-1.45V348.9c.5.26,1,.5,1.49.78,6.15,3.55,9.23,8.21,9.23,12.86v12.32h0v23.62h0V416.1c0,4.66-3.08,9.31-9.23,12.87-12.3,7.1-32.25,7.1-44.56,0a23.36,23.36,0,0,1-5.61-4.4c5.86,5.47,20.44,8.49,31.28,6.35s17.4-9,17.4-14v-4.77c-6.07,3.29-14,4.86-21.79,4.86V393c7.77,0,15.72-1.2,21.79-4.47v-7c-13.12,6-32.27,5.56-44.42-1.45a21.45,21.45,0,0,1-7.87-7.27V362.54A11.12,11.12,0,0,1,36.16,359.19Z" style="opacity:0.1"></path><path d="M93.31,418.36V352.43c3.54,3.05,5.32,6.58,5.32,10.11V416.1c0,4.66-3.08,9.31-9.23,12.87a39.58,39.58,0,0,1-12,4.3C89.27,430.07,93.31,422,93.31,418.36Z" style="opacity:0.1"></path><path d="M87.59,427.53c-11.31,5.68-29.63,5.68-40.93,0s-11.3-14.89,0-20.57,29.62-5.68,40.93,0S98.89,421.85,87.59,427.53Z" style="opacity:0.1"></path><path d="M98.63,376.41c0,4.66-3.08,9.31-9.23,12.87s-14.21,5.32-22.28,5.32v23.62c8.07,0,16.13-1.78,22.28-5.33s9.23-8.21,9.23-12.86Z" style="fill:#fff"></path><path d="M33.71,348.15c0-4.93,3.26-9.87,9.78-13.64,13-7.53,34.21-7.53,47.26,0,6.53,3.77,9.79,8.71,9.79,13.64h0V363h0c0,4.93-3.26,9.87-9.79,13.64-13,7.53-34.21,7.53-47.26,0C37,372.84,33.71,367.9,33.71,363h0V348.15Z" style="fill:#e0e0e0"></path><path d="M59.12,381.68c16.54.09,25.27-5.28,27.92-9.66,2-3.34,2.36-9.49,2.36-15.58,0,0,1.87-13.89,1.5-13.94s4-.93,7.18-1.62a12.57,12.57,0,0,1,2.46,7.27h0V363h0c0,4.93-3.26,9.87-9.79,13.64C82.17,381.56,70.1,383.24,59.12,381.68Z" style="opacity:0.1"></path><g style="opacity:0.1"><path d="M84.66,379.39c.55-.2,1.08-.4,1.61-.62V359.63H84.66Z"></path><path d="M77.79,381.25c.54-.1,1.07-.22,1.6-.34V361.6h-1.6Z"></path><path d="M97.44,371.09V352.3h-1.6v20.54A18.37,18.37,0,0,0,97.44,371.09Z"></path><path d="M70.45,382.16l1.6-.11V362.59h-1.6Z"></path><path d="M92.49,375.51V356.57h-1.6v19.95C91.45,376.2,92,375.86,92.49,375.51Z"></path><path d="M99.74,367.15a11.79,11.79,0,0,0,.8-4.18h0V348.15h0a11.68,11.68,0,0,0-.34-2.74h-.46Z"></path><path d="M55.53,381.06l1.6.32V361.72h-1.6Z"></path><path d="M33.71,363a11.57,11.57,0,0,0,.8,4.18V346.78H33.8a10.62,10.62,0,0,0-.09,1.37Z"></path><path d="M36.59,370.81a18,18,0,0,0,1.61,1.82V353H36.59Z"></path><path d="M42.17,375.8c.43.27.86.54,1.32.81l.28.15V357.28h-1.6Z"></path><path d="M48.53,379l1.6.59V360h-1.6Z"></path><path d="M62.93,382.1l1.61.1V362.62H62.93Z"></path></g><path d="M90.75,361.8c-13,7.53-34.21,7.53-47.26,0s-13-19.75,0-27.29,34.21-7.53,47.26,0S103.8,354.26,90.75,361.8Z" style="fill:#ebebeb"></path><path d="M41.7,360.65c-11.2-7.58-10.62-19,1.79-26.14,6.36-3.67,14.65-5.54,23-5.63A37.44,37.44,0,0,1,78.67,333c11.28,6.45,11.28,19.33,0,25.78C68.6,364.57,53,365.17,41.7,360.65Z" style="fill:#f5f5f5"></path><path d="M98,355.56S87.11,366.5,66.12,365.93s-29.4-12-30.5-15.59a13.1,13.1,0,0,1,2.83-12.1,13.9,13.9,0,0,0-4.74,9.91V363c0,1.25-.65,5.55,6.13,11.13,0,0-4-4.51-4-8.86V355s7.43,12.43,30.26,12.43S96.83,357.43,98,355.56Z" style="fill:#fff"></path></g></g><g id="freepik--Tube--inject-36"><g id="freepik--tube--inject-36"><path d="M386.71,420.9c1.46.84,2.36,2.65,2.36,5.21,0,5.13-3.6,11.37-8.05,13.93-2.22,1.28-4.23,1.41-5.68.57l-87.93-50.77h0a11.37,11.37,0,0,1,11.37-19.7h0Z" style="fill:#00960C"></path><path d="M386.71,420.9c1.46.84,2.36,2.65,2.36,5.21,0,5.13-3.6,11.37-8.05,13.93-2.22,1.28-4.23,1.41-5.68.57l-87.93-50.77h0a11.37,11.37,0,0,1,11.37-19.7h0Z" style="fill:#fff;opacity:0.7000000000000001"></path><path d="M368.46,414.3a4,4,0,0,1,1.65,3.65,12.47,12.47,0,0,1-5.63,9.76c-1.56.89-3,1-4,.39l-71-41h0a8,8,0,0,1,8-13.8h0Z" style="fill:#00960C"></path><path d="M286.55,376.21a8,8,0,0,1,10.52-3.1A5.55,5.55,0,0,0,293,383.3h0l73.76,42.59a10.18,10.18,0,0,1-2.23,1.82c-1.56.89-3,1-4,.39l-71-41h0A8,8,0,0,1,286.55,376.21Z" style="opacity:0.1"></path><path d="M368.46,414.3c-2.2-1.26-5.76.8-8,4.61s-2.2,7.92,0,9.19,5.76-.79,8-4.6S370.66,415.57,368.46,414.3Z" style="fill:#00960C"></path><path d="M368.46,414.3c-2.2-1.26-5.76.8-8,4.61s-2.2,7.92,0,9.19,5.76-.79,8-4.6S370.66,415.57,368.46,414.3Z" style="fill:#fff;opacity:0.30000000000000004"></path><path d="M368.46,414.3a4,4,0,0,1,1.65,3.64c-.07-.28-1.68-4.93-6-1.6-4.65,3.57-5.18,9-4.5,10.9-1.22-1.77-.93-5.16.91-8.33C362.7,415.1,366.26,413,368.46,414.3Z" style="fill:#fff;opacity:0.5"></path><path d="M293.89,372.36c-1-.56-1.11-1.42-.27-1.85a4,4,0,0,1,3.33.33l91.83,53a8.58,8.58,0,0,1,.29,2.25c0,.38,0,.77-.07,1.17Z" style="fill:#fff;opacity:0.4"></path><path d="M290.36,372.85l0-.05a1.17,1.17,0,0,1,1.3-.15l97.08,56.05a14.16,14.16,0,0,1-.43,1.64L290.5,373.85A.61.61,0,0,1,290.36,372.85Z" style="fill:#fff;opacity:0.4"></path><path d="M379.8,420.2a7.66,7.66,0,0,1,3.69-1.15l3.22,1.85a4.16,4.16,0,0,1,1,.78,8.2,8.2,0,0,1,.67,3.44c0,5.07-3.31,11.14-7.56,14.15l.77.45-.12.07a3.34,3.34,0,0,1-.4.25,8.22,8.22,0,0,1-2.76,1,5,5,0,0,1-1.73,0,3.7,3.7,0,0,1-1.19-.44l-3.22-1.86-.63-.37h0l-11.4-6.58h0l-72.68-42h0a11.37,11.37,0,0,1,6.94-21.15c-4.37-.21-8.51,3.6-9.72,8.26V377a6.43,6.43,0,0,0,3.07,7.1l83.85,48.41C372.42,427.67,375.78,422.52,379.8,420.2Z" style="fill:#00960C;opacity:0.2"></path><path d="M282.72,375.34h0c-2.39,6.79,2,10.72,4.95,12.43l91.79,53-.19.06a5.94,5.94,0,0,1-2,.3h-.1l-.37,0-.13,0a4,4,0,0,1-.84-.24l-.09,0-.38-.19-3.22-1.86-.63-.37h0l-11.4-6.58h0l-72.68-42h0A11.37,11.37,0,0,1,282.72,375.34Z" style="opacity:0.1"></path><path d="M401,427.27c1.67,1,2.7,3,2.7,6,0,5.87-4.12,13-9.21,15.95-2.54,1.47-4.84,1.61-6.51.65h0l-12.39-7.16h0c-1.67-1-2.7-3-2.7-6,0-5.87,4.12-13,9.21-15.95,2.54-1.47,4.84-1.61,6.51-.64h0L401,427.27Z" style="fill:#e0e0e0"></path><path d="M377.37,425.05c-3.25,5.56-3.14,9.55-2.18,11.3.74,1.33,10.14,6.92,12.2,8.1,0,0,4.32,3.34,4.41,3.23s-.46,1.52-.86,2.74a5,5,0,0,1-2.93-.59h0l-12.39-7.16h0c-1.67-1-2.7-3-2.7-6A20.08,20.08,0,0,1,377.37,425.05Z" style="opacity:0.1"></path><g style="opacity:0.2"><path d="M375,428.79c-.09.19-.19.37-.28.56l13.94,8,.31-.54Z"></path><path d="M373.91,431.45c-.07.2-.16.39-.22.59l13.9,8,.31-.54Z"></path><path d="M373.19,434.12c0,.23-.08.44-.11.67l13.84,8,.31-.54Z"></path><path d="M372.93,436.78c0,.27.05.5.07.76l13.74,7.93.31-.54Z"></path><path d="M374.41,441.61a4.34,4.34,0,0,0,1.21,1.06h0L388,449.83h0a4.29,4.29,0,0,0,1,.38l.06-.12Z"></path><path d="M373.53,440.07l13.68,7.9.32-.54-14.28-8.24A7,7,0,0,0,373.53,440.07Z"></path><path d="M376.51,426.27c-.11.17-.23.34-.34.52l14,8.07.31-.54Z"></path><path d="M385.46,419.58a7.69,7.69,0,0,0-.9.2l14,8.06.31-.54Z"></path><path d="M382.7,420.5c-.19.09-.37.15-.57.26l-.1.07,14,8.06.31-.54Z"></path><path d="M388.64,420.12a4.42,4.42,0,0,0-1.52-.52l14.22,8.21.11-.2a4.78,4.78,0,0,0-.42-.34Z"></path><path d="M380.35,422c-.17.13-.33.29-.49.44l14,8.08.32-.54Z"></path><path d="M378.3,424l-.41.49,14,8.08.31-.54Z"></path></g><path d="M385.31,443.87c0-5.88,4.13-13,9.21-15.95s9.21-.56,9.21,5.31-4.12,13-9.21,15.95S385.31,449.74,385.31,443.87Z" style="fill:#ebebeb"></path><path d="M395.26,427.53c4.74-2.3,8.47.12,8.47,5.7a18.65,18.65,0,0,1-2.58,8.86,14.23,14.23,0,0,1-3.78,3.3c-4.37,2.55-8.72.05-8.69-5C388.69,435.85,391.54,430.46,395.26,427.53Z" style="fill:#f5f5f5"></path><path d="M390.52,440.86a8.84,8.84,0,0,1,4-6.93c2.21-1.28,4-.24,4,2.31a8.85,8.85,0,0,1-4,6.93C392.31,444.44,390.52,443.41,390.52,440.86Z" style="fill:#455a64"></path><path d="M386,447.52s-1.58-5.8,2.71-12.77,9.79-7.58,11.2-7.26a5.14,5.14,0,0,1,3.54,3.31,5.46,5.46,0,0,0-2.43-3.53l-12.39-7.15c-.42-.25-1.75-1.31-4.95-.1a6.33,6.33,0,0,1,3.76.38l10.85,6.26s-5.64.09-10.09,7.79S385.6,446.77,386,447.52Z" style="fill:#fff"></path><g id="freepik--Label--inject-36"><path d="M342.55,407.91a16,16,0,0,0-2.39,9l-37.48-21.63a16.12,16.12,0,0,1,2.4-9,19.06,19.06,0,0,1,3-4L345.55,404A19.33,19.33,0,0,0,342.55,407.91Z" style="opacity:0.1"></path><path d="M343,408.81a15.58,15.58,0,0,0-2.31,8.9l-37.47-21.63a15.61,15.61,0,0,1,2.31-8.91,18.62,18.62,0,0,1,3-3.88L346,404.93A17.79,17.79,0,0,0,343,408.81Z" style="fill:#fafafa"></path><path d="M305,394.27a.46.46,0,0,0,.17.62l33.37,19.27a.46.46,0,0,0,.62-.17.45.45,0,0,0-.17-.61l-33.37-19.27A.45.45,0,0,0,305,394.27Z" style="fill:#e0e0e0"></path><path d="M305.88,391.36a.45.45,0,0,0,.17.61l33.37,19.27a.45.45,0,1,0,.45-.78L306.5,391.19A.46.46,0,0,0,305.88,391.36Z" style="fill:#e0e0e0"></path><path d="M307.28,388.65a.45.45,0,0,0,.17.61l33.37,19.27a.45.45,0,1,0,.45-.78L307.9,388.48A.46.46,0,0,0,307.28,388.65Z" style="fill:#00960C"></path><path d="M308.69,386.05a.45.45,0,0,0,.16.62l33.38,19.27a.45.45,0,0,0,.61-.17.43.43,0,0,0-.16-.61l-33.37-19.27A.45.45,0,0,0,308.69,386.05Z" style="fill:#455a64"></path></g></g></g><g id="freepik--character-2--inject-36"><g id="freepik--Character--inject-36"><g id="freepik--Bottom--inject-36"><g id="freepik--bottom--inject-36"><polygon points="401.02 376.2 397.63 374.76 400.84 373.66 401.02 376.2" style="fill:#263238"></polygon><path d="M368.58,384.18s38-19.91,38.64-17.3a3.82,3.82,0,0,1,.07,1.6l.1-.15-.44,5a11.62,11.62,0,0,1-5.93,2.9c0-.23-.12-1.7-.18-2.54a19.9,19.9,0,0,0-3.34,2c-2.41,1.81-3.85,4.81-6.31,8.34-1.8,2.57-5.18,3.92-10.25,4.94-5.45,1.1-10.36.31-11.81-1.1C368,386.75,368.4,384.54,368.58,384.18Z" style="fill:#263238"></path><path d="M369.59,383c.35-.41,1.66-2,3.45-3.82a71.94,71.94,0,0,1,5.35-5.14,49.26,49.26,0,0,0,4.48-4.89,43.06,43.06,0,0,0,4.78-8c.54-1.37.93-3,.6-8.06-.45-7.08-.73-8.67-1.06-14.06l19.7-1.31c-.37,3-1.21,7.25-1.63,11.33-.53,5.16-2.2,5.75.1,10.78.67,1.49,1.63,2.89,1.8,4.51.27,2.64-1.66,5-3.89,6.46-1.85,1.18-4,1.76-5.82,3a19.29,19.29,0,0,0-4.58,5.07c-1.22,1.76-2.16,3.82-3.94,5.11a17.11,17.11,0,0,1-6.23,2.57,34.15,34.15,0,0,1-8.51.92C370.12,387.34,367,386,369.59,383Z" style="fill:#c8856a"></path><path d="M384.38,374.27a7.32,7.32,0,0,0-6.09-.21c-2.74,2.45-5,4.62-6.61,6.14-1.94,1.84-3.64,3.52-3.45,5.49.29,3.1,12.32,3.35,18.85,0a8.35,8.35,0,0,0,4.5-4.43S390.35,377,384.38,374.27Zm22.14-12.44a33.26,33.26,0,0,1-1.58-2.93c-2.26,1.4-6,7.48-3.78,13.26a9,9,0,0,0,5.64-4.34A5.64,5.64,0,0,0,406.52,361.83Z" style="fill:#37474f"></path><path d="M438.43,363.64c-1,1.79.92,10.52,1,15.05.1,4.11.11,11.48,1.79,15.39,2,4.63,5.68,9.88,11.37,4.81C456.14,395.76,458,392,458,386c0-4.12-2.18-9.61-4.09-14.49-2.23-5.69-3.15-8.76-3.15-8.76Z" style="fill:#263238"></path><path d="M449,335c1.2,9.49,1.21,14.93,1.63,21a81.62,81.62,0,0,0,1.5,9.5c.84,3.9,2.5,9.13,3.31,11.6,1.15,3.45,2,5.61,1,9.69a4.91,4.91,0,0,1-.36.94c-1.57,3.44-6,6.34-7.55,6.09a2.71,2.71,0,0,1-2.55,1.1,4.26,4.26,0,0,1-.5-.06,5,5,0,0,1-.52-.14,4.76,4.76,0,0,1-2.72-2.76,8.21,8.21,0,0,1-.3-.84,32.47,32.47,0,0,1-1.47-9.9c-.06-2.23-.4-6.11-.9-9.67s-3.18-13.29-4.65-18.62c-1.22-4.42-3.59-13.49-3.59-13.49Z" style="fill:#c8856a"></path><path d="M456.71,381.63c-3.79-1.16-14.72-.17-16,4.81.32,4.54.8,7.44,4.2,11.1,4.51,4.85,9.41-1.22,11.18-5S457.41,384,456.71,381.63Z" style="fill:#37474f"></path><path d="M435.48,209.49c3.82,9.34,7.44,19.62,8,39.4.79,26.09,2,35.51,2.27,38.65.43,5.36,2.74,10.21,5.23,25.59s1.17,43.62,1.17,43.62a18.57,18.57,0,0,1-9.53,4.43c-5.43.8-7.82-1.33-7.82-1.33S424.51,318.23,421.91,309s-10.37-39.5-10.37-39.5L408.47,295s3.07,8,2.18,21.69-5.72,39.24-5.72,39.24-2.9,2.21-8.76,1.92-8.21-2.32-8.21-2.32-5.26-50.72-6.14-66.09-3-55.86,2.59-79.95Z" style="fill:#455a64"></path><path d="M388.6,234.43c2.68,6.22,11.37,10.19,15.13,10.86l5.74,24-1,25.69,3.07-25.47L405,240.23S394.66,240.08,388.6,234.43Zm35-5.1c.75,2.46,1.44,4.94,2.17,7.42s1.44,4.95,2.21,7.45a50.35,50.35,0,0,0-1-7.75,76.3,76.3,0,0,0-1.85-7.59,68.49,68.49,0,0,0-2.65-7.35,36.25,36.25,0,0,0-3.74-6.87c.92,2.44,1.75,4.87,2.55,7.32S422.88,226.86,423.6,229.33Zm4.1-5.06c.92,1.46,1.8,2.94,2.69,4.42l2.63,4.52a20.94,20.94,0,0,0-1.48-5.09,34.48,34.48,0,0,0-2.45-4.71,38.62,38.62,0,0,0-3.11-4.28,28.2,28.2,0,0,0-3.74-3.75c.86,1.56,1.78,3,2.71,4.5S426.8,222.8,427.7,224.27Zm.14,70.45c-1.94-7.88-3.45-15.87-5-23.88s-2.94-16-4.52-24c.95,8.1,2,16.18,3.27,24.24s2.69,16.1,4.62,24.05,4.05,15.79,6.17,23.66,4.32,15.71,6.63,23.53q-2.54-12-5.38-23.85C431.79,310.53,429.82,302.59,427.84,294.72Zm-40.41-24.54.38-21.29C387,256,386.5,263,386.16,270.14s-.61,14.18-.31,21.35c.56,7.13,1.42,14.16,2.32,21.21s1.92,14.07,3.07,21.08q-.78-10.63-1.8-21.23l-1-10.59c-.34-3.52-.71-7.06-.94-10.57s-.17-7-.16-10.58S387.4,273.73,387.43,270.18Z" style="fill:#37474f"></path></g></g><g id="freepik--Top--inject-36"><path d="M333.36,152.85c-1.09-.22-1.29.82-.61,1.59,1.62,1.82,4.6,1.69,6,2.44.33.23,4.31,3.79,4.43,4.89-1.12-.48-4.53-2.29-5.67-2.71-.33-.12-1.27-.29-4.16-.79a4.41,4.41,0,0,0-1.51-.12c-.34.11-.7.85-.05,1.57,1.14,1.28,3.22,1.21,4.82,1.83.79.29,3.22,1.32,4,2.88-2.38-.66-3.91-.56-7.55-.19-.42,0-.5.27-.47.55a1.47,1.47,0,0,0,.81,1.09c1,.52,2.48.29,4.09.49a10.36,10.36,0,0,1,4.54,2,4.36,4.36,0,0,1,1.25,1.35,20.08,20.08,0,0,1,.94,2.12,7.76,7.76,0,0,0,7.52,4.35,1.12,1.12,0,0,0,.57-.17,1.16,1.16,0,0,0,.29-1c-.17-3.5-1.9-6.69-3.18-9.95-.43-1.07-3.75-9.06-3.92-9.33-.08-.12-8.48-2.26-8.74-2.29C335.93,153.38,334.41,153.06,333.36,152.85Z" style="fill:#af6152"></path><path d="M386.35,166.24c-1.54,2.46-8.27,13.88-8.27,13.88s-13.74-6.67-17.11-8.63a19.82,19.82,0,0,1-8.21-9.36c-1.87-4.16-2.54-4.37-4.54-5.65-1.24-.8-4-3-4.13-3.12a3.88,3.88,0,0,0-1.45-.52c-.26-.08-1.37-.33-1.64-.39-1.55-.35-2.52-.48-4.06-.83a8,8,0,0,0-1.44-.22.55.55,0,0,0-.31.07c-.16.11-.16.35-.12.55a3.49,3.49,0,0,0,1.76,2.17,12.25,12.25,0,0,0,2.7,1c.57.17.89.21,2,.54a2.79,2.79,0,0,1,1.18.8,31.8,31.8,0,0,1,4.49,5.23,11.34,11.34,0,0,1-5.3-2.89c-1.36-1.35-2.61.42-1.32,2.59,1.47,2.5,3.68,2.83,5.55,6.19s-.82,6.65,3.55,9.35a62.38,62.38,0,0,1,7.38,5.67c3.8,3.22,13.92,10.51,16.44,12.27,5.34,3.74,8.63,3.34,15.79-5.55,9.47-11.75,10.7-13.15,10.7-13.15V155.43C393.77,156.43,391.42,158.12,386.35,166.24Z" style="fill:#c8856a"></path><path d="M347.24,161.73a13.8,13.8,0,0,1,3.16,1.78c.36.31.24-.79-1.3-1.94s-2.83-1-3.18-1.55Z" style="fill:#af6152"></path><path d="M399.46,154.4c-6.32.94-9.55,2.93-14.81,11.95a144,144,0,0,0-7,12.86L360,170.08a22.43,22.43,0,0,1-4.51,12.27s13.32,10,18.33,13.35,9,2.71,12.75-1.59,13.3-16.37,13.3-16.37Z" style="fill:#e0e0e0"></path><path d="M435.57,164.9c.07-3.68.13-7.36,0-11a31.7,31.7,0,0,0-.27-3.52c-.58-4-2.49-6.2-5.31-9.13a10.3,10.3,0,0,0-1.59-1.44c-1.18-.79-3.41-1.54-4.74-.67V164.9Z" style="fill:#263238"></path><path d="M440.92,222.85c-2.13-9-4.87-14.67-4.71-16.63.68-8.52,3.7-19.56,4.79-24.46,2.36-10.66-2.55-20.65-4.91-22.95l-5.64-1.75c-1.84-.58-4.84-1.18-7.67-1.78-6.28-1.34-8.92-1.45-11.31-1.38-1.18,0-6.78.61-6.78.61-1.7.27-4.8.61-4.81.62a35.6,35.6,0,0,0-8.07,9c-3.08,4.69-4.91,8.67-6.13,19.1-1.54,13.28-3.42,28.12-4.07,37.42C392.17,228.21,426.1,230.16,440.92,222.85Z" style="fill:#00960C"></path><path d="M440.92,222.85c-2.13-9-4.87-14.67-4.71-16.63.68-8.52,3.7-19.56,4.79-24.46,2.36-10.66-2.55-20.65-4.91-22.95l-5.64-1.75c-1.84-.58-4.84-1.18-7.67-1.78-6.28-1.34-8.92-1.45-11.31-1.38-1.18,0-6.78.61-6.78.61-1.7.27-4.8.61-4.81.62a35.6,35.6,0,0,0-8.07,9c-3.08,4.69-4.91,8.67-6.13,19.1-1.54,13.28-3.42,28.12-4.07,37.42C392.17,228.21,426.1,230.16,440.92,222.85Z" style="opacity:0.25"></path><g id="freepik--Head--inject-36"><path d="M398.22,124.6c-2.25-6.26,1.55-15.95,10-18.31s24.15,2.07,27.33,12.61-1.75,15.5-5,20-7.3,9.61-7.3,9.61Z" style="fill:#263238"></path><path d="M426.22,151.43c.07-2.28.35-8.88.35-8.88,0,.7,3.67,3.54,7.13.31s4.13-7,2.6-9.69c-1.69-2.94-6.17-3.32-8.48.86-1.44,1.44-4.34-.23-2.79-4.39.09-3-4.87-1.83-3.19-11.41-7.89-6.71-19-5.19-21.73-.14a10.23,10.23,0,0,0-1,5.82c.1,2.78-.52,4.25-.86,6.28-1.23,7.46,1.32,13.49,3.93,16a9.73,9.73,0,0,0,7.08,2.58s0,.87-.07,2.37c0,0-.73,2.06-2.31,2.39-1.06.22-3.72.68-3.72.68s-4.08,5.37,5.58,7.1c15.39,2.76,22.53-4.52,22.53-4.52s-.63-.26-3-1C426,155,426.14,153.71,426.22,151.43Z" style="fill:#c8856a"></path><path d="M409.22,148.75c6.74.13,13-1.69,14.88-6.47a7.41,7.41,0,0,1-3.91,6.42c-3.85,2.18-11,2.42-11,2.42Z" style="fill:#af6152"></path><path d="M414.18,136.47l-5.92,1.83a3.05,3.05,0,0,0,3.82,2.16A3.24,3.24,0,0,0,414.18,136.47Z" style="fill:#af6152"></path><path d="M413.8,137.84a3.41,3.41,0,0,0-3.44,2.62,3,3,0,0,0,1.72,0,3.19,3.19,0,0,0,2.17-2.56A2.32,2.32,0,0,0,413.8,137.84Z" style="fill:#f0997a"></path><path d="M400.22,123.36l4-1.51a2,2,0,0,0-2.66-1.27A2.24,2.24,0,0,0,400.22,123.36Z" style="fill:#263238"></path><path d="M418.38,125.58l-3.69-2.18a2.06,2.06,0,0,1,2.87-.81A2.25,2.25,0,0,1,418.38,125.58Z" style="fill:#263238"></path><path d="M413.43,127.7a1.62,1.62,0,1,0,1.61-1.63A1.62,1.62,0,0,0,413.43,127.7Z" style="fill:#263238"></path><path d="M401.3,126.63a1.62,1.62,0,1,0,1.61-1.63A1.62,1.62,0,0,0,401.3,126.63Z" style="fill:#263238"></path><polygon points="403.56 132.33 409.45 134.61 410.01 123.58 403.56 132.33" style="fill:#af6152"></polygon></g><path d="M426.19,152.73c-.4,6.27-6.76,10.78-9.58,26.59s3.29,90.76,3.29,90.76,17.71-.43,25.2-10.65c0,0,.69-21.17-2.26-34.19s-5.9-15.76-5.12-21.46,5.41-22.48,4.35-31.89-5.72-13.54-5.72-13.54Z" style="fill:#f0f0f0"></path><path d="M409.15,151.38s0,1.62-2.89,3.46c-3.14,2-12.95,9.3-15.11,25.92s-4,50.79-5.07,88.89a19.66,19.66,0,0,1-7.81-5.26s2.17-44.29,4.5-68.15,3.61-27.94,7.65-33.84a23.19,23.19,0,0,1,9-8Z" style="fill:#f0f0f0"></path><g id="freepik--Glass--inject-36"><path d="M357.65,243.49a1,1,0,0,1-.08-.14l-29.26-67.53h0c-.59-1.21-.39-2.81.77-4.51a14.31,14.31,0,0,1,11.7-5.56c2.08.16,3.48,1,4.08,2.21h0l35.8,64.42s0,.09.07.13l.12.23a12.59,12.59,0,0,1-5.89,17,13,13,0,0,1-17.22-6Z" style="fill:#00960C"></path><path d="M340.78,165.75c4.15.32,5.63,3.33,3.31,6.73a14.28,14.28,0,0,1-11.7,5.56c-4.14-.33-5.62-3.34-3.31-6.73A14.31,14.31,0,0,1,340.78,165.75Z" style="opacity:0.25"></path><path d="M371.93,232.89l-30.69-57.6a11.72,11.72,0,0,0,2.85-2.81c1.15-1.69,1.38-3.27.78-4.49l35.79,64.39s0,.09.07.13l.12.23a12.59,12.59,0,0,1-5.89,17C378.1,247.11,375.93,240.47,371.93,232.89Z" style="opacity:0.1"></path><path d="M320.88,148.85a8.63,8.63,0,0,1,7.08-3.36,2.8,2.8,0,0,1,2.46,1.34h0l11.16,22.69h0a2.72,2.72,0,0,1-.46,2.73,8.66,8.66,0,0,1-7.08,3.36,2.8,2.8,0,0,1-2.46-1.34l-11.17-22.69h0A2.71,2.71,0,0,1,320.88,148.85Z" style="fill:#e0e0e0"></path><path d="M336.57,159.3l-4.15-8.43q-4.46,3.58-9.07,6.67l4.09,8.3C330.55,163.8,333.6,161.61,336.57,159.3Z" style="opacity:0.25"></path><path d="M357.92,51.3l-11.26-6.44c-8.52-4.91-20.31-4.2-33.34,3.3-26,15-47.14,51.61-47.14,81.68,0,15,5.27,25.59,13.82,30.52l11.22,6.42a24.23,24.23,0,0,0,12.28,3.14c6.34,0,13.49-2.07,21.06-6.44,26-15,47.15-51.6,47.15-81.67C371.71,66.79,366.44,56.23,357.92,51.3ZM297.71,93.53c8.26-14.3,19.12-25.82,30.6-32.45,6-3.48,11.86-5.35,16.93-5.43a19.33,19.33,0,0,1,2.6.11c3.59,4.51,5.55,11.35,5.55,20.06,0,13.25-4.55,28.42-12.81,42.73S321.46,144.38,310,151c-6.16,3.56-12.14,5.44-17.31,5.44a20.09,20.09,0,0,1-2.22-.12,20.17,20.17,0,0,1-1.77-2.66c-2.46-4.37-3.78-10.25-3.78-17.39C284.9,123,289.45,107.84,297.71,93.53Z" style="fill:#455a64"></path><path d="M278.5,86l17.72,10.17c.48-.89,1-1.77,1.49-2.66a106.44,106.44,0,0,1,8.53-12.63L288.47,70.7A115.33,115.33,0,0,0,278.5,86ZM300,58.11q-3.3,3-6.37,6.44L311.46,74.8A84.5,84.5,0,0,1,318,68.47Z" style="fill:#fff;opacity:0.1"></path><path d="M291.16,166.74,280,160.36c-8.53-4.93-13.81-15.48-13.81-30.52,0-.58,0-1.16,0-1.74l11.23,6.42q0,.87,0,1.74C277.41,151.25,282.67,161.8,291.16,166.74Z" style="fill:#37474f"></path><path d="M359.25,62.53a15.85,15.85,0,0,0-11.41-6.77c3.59,4.51,5.55,11.35,5.55,20.06,0,13.25-4.55,28.42-12.81,42.73S321.46,144.38,310,151c-6.16,3.56-12.14,5.44-17.31,5.44a20.09,20.09,0,0,1-2.22-.12,15.86,15.86,0,0,0,12.08,6.09c.32,0,.65,0,1,0,5.17,0,11.16-1.88,17.32-5.44,11.47-6.62,22.33-18.14,30.6-32.45s12.8-29.48,12.8-42.73C364.22,73.59,362.47,67,359.25,62.53Z" style="fill:#263238"></path><path d="M324.56,54.59c-26,15-47.15,51.6-47.15,81.67s21.11,42.26,47.15,27.22,47.15-51.6,47.15-81.67S350.6,39.56,324.56,54.59ZM320.82,157c-6.17,3.56-12.15,5.44-17.32,5.44a16.22,16.22,0,0,1-14.82-8.78c-2.46-4.37-3.78-10.26-3.78-17.39,0-13.25,4.55-28.42,12.81-42.73s19.12-25.83,30.6-32.45c6-3.48,11.86-5.35,16.94-5.43h.37c11.65,0,18.6,9.79,18.6,26.17,0,13.25-4.54,28.43-12.8,42.73S332.29,150.37,320.82,157Z" style="fill:#37474f"></path><path d="M288.85,94.11a109.29,109.29,0,0,0-9.58,26.79,76.27,76.27,0,0,0-1.6,14.13,52.5,52.5,0,0,0,1.55,14.08,31.17,31.17,0,0,0,6.25,12.58,22.58,22.58,0,0,0,11.84,7.3,29.46,29.46,0,0,0,14.06-.21,50.56,50.56,0,0,0,13.19-5.3,50.81,50.81,0,0,1-13.12,5.57,29.87,29.87,0,0,1-14.22.31A23.15,23.15,0,0,1,285.11,162a31.79,31.79,0,0,1-6.44-12.74A53.31,53.31,0,0,1,277.2,135a77.06,77.06,0,0,1,1.71-14.2,97.84,97.84,0,0,1,4-13.71A115.37,115.37,0,0,1,288.85,94.11Z" style="fill:#455a64"></path><path d="M345.62,55.64a17.88,17.88,0,0,1,6.92,1.27,15.93,15.93,0,0,1,5.75,4.1A21.16,21.16,0,0,1,362,67.06a31.44,31.44,0,0,1,2,6.84,54.76,54.76,0,0,1,.4,14.18A77.72,77.72,0,0,1,361.73,102a91.74,91.74,0,0,1-4.87,13.34,108.06,108.06,0,0,1-6.66,12.53,97.62,97.62,0,0,1-18.08,21.83,68.6,68.6,0,0,1-11.6,8.26,40.06,40.06,0,0,1-13.45,4.86,21.8,21.8,0,0,1-7.25-.09,16.46,16.46,0,0,1-6.67-2.93,16.22,16.22,0,0,1-2.67-2.5,17.58,17.58,0,0,1-2.11-3,26.25,26.25,0,0,1-2.68-6.68,47,47,0,0,1-1.19-14.17,72.73,72.73,0,0,1,2.19-14,92.22,92.22,0,0,1,4.59-13.38,103.42,103.42,0,0,1,6.43-12.58,102.05,102.05,0,0,0-10.3,26.14,72.22,72.22,0,0,0-2,13.87,46.15,46.15,0,0,0,1.36,13.83,25.17,25.17,0,0,0,2.65,6.35,16.84,16.84,0,0,0,4.47,5.06,15.12,15.12,0,0,0,6.15,2.67,20.48,20.48,0,0,0,6.81,0,38.59,38.59,0,0,0,12.94-4.76,67.27,67.27,0,0,0,11.31-8.14A95.71,95.71,0,0,0,349,127.17a105.28,105.28,0,0,0,11.59-25.46A76.4,76.4,0,0,0,363.42,88a54,54,0,0,0-.18-14,30.54,30.54,0,0,0-1.76-6.74,20.78,20.78,0,0,0-3.49-6,15.73,15.73,0,0,0-5.54-4.15A17.75,17.75,0,0,0,345.62,55.64Z" style="fill:#455a64"></path><path d="M351.05,56.44a18,18,0,0,0-5.43-.8h-.38c-5.07.08-10.92,2-16.93,5.43-11.48,6.63-22.34,18.15-30.6,32.45S284.9,123,284.9,136.26c0,7.14,1.32,13,3.78,17.39a17.88,17.88,0,0,0,4.1,5,17.79,17.79,0,0,0,5.42.81c5.17,0,11.15-1.88,17.32-5.44,11.47-6.62,22.34-18.15,30.59-32.45s12.81-29.48,12.81-42.73C358.92,68.46,356.1,60.7,351.05,56.44Z" style="fill:#fff;opacity:0.30000000000000004"></path></g><g id="freepik--Arm--inject-36"><path d="M436.56,159.56c-7.64,2.67-12.3,12.77-12.3,12.77l-16.47,24.38s-19.68,9.66-26.23,12.17c-2.8,1.07-7.53-.52-11.34-.44-1,0-1.9.08-2.78.15l2.73,4.9c1.49,1.11-1.87,2.94-6.14,3.8-4.47.89-9.35.39-10.81,3-.7,1.24.07,1.74,1.87,2-.15.71.11,1.55,2.15,2.12a6.79,6.79,0,0,0,3.66,2.73c2.92.55,8.74.82,13-1s7.15-4.37,11.62-5.71,19.84-5.55,25.63-7.81,7.67-3.24,10-6.16,16.87-20.8,20.55-28.08C445.87,170,444.12,162.63,436.56,159.56Z" style="fill:#c8856a"></path><path d="M436.09,158.81c-4.63,2-6.68,3-12.37,11.77s-16.32,25.65-16.32,25.65l-17.79,8.58a15.86,15.86,0,0,1,3.81,7,14.64,14.64,0,0,1,.09,7.44s19.34-5.45,23.61-6.72,5.05-3.45,10.92-10.35a160.91,160.91,0,0,0,14.58-20.69C445.8,176.12,447.89,163.66,436.09,158.81Z" style="fill:#e0e0e0"></path></g></g></g></g><g id="freepik--speech-bubble--inject-36"><g id="freepik--speech-bubble--inject-36"><g id="freepik--speech-bubble--inject-36"><path d="M420.23,60.85a24.2,24.2,0,0,0-2.08,17.72l.86,2.64a24.28,24.28,0,0,0,46.36-13.89l-.73-2.68a24.28,24.28,0,0,0-44.41-3.79Z" style="fill:#fff"></path><path d="M418.44,59.83a26.39,26.39,0,0,0,6.95,33.31l-1,8.12a1.53,1.53,0,0,0,2.51,1.36l6.24-5.31a26.36,26.36,0,1,0-14.67-37.48ZM453.19,51a24.19,24.19,0,0,1,11.46,13.67l.73,2.68A24.28,24.28,0,0,1,419,81.17l-.86-2.65A24.28,24.28,0,0,1,453.19,51Z" style="fill:#455a64"></path></g><g id="freepik--Check--inject-36"><path d="M438.13,85.86a3.6,3.6,0,0,1-2.63-1.14L427.33,76a3.6,3.6,0,0,1,5.26-4.93l5.31,5.67,12.55-15.9a3.61,3.61,0,0,1,5.66,4.47L441,84.49a3.61,3.61,0,0,1-2.68,1.37Z" style="fill:#00960C"></path></g></g></g><g id="freepik--character-1--inject-36"><g id="freepik--character--inject-36"><g id="freepik--bottom--inject-36"><path d="M186.49,384c1.08-11.53.18-16.38,1.52-34.38h0c.17-4.62.44-9.56.84-14,1.36-14.77,3.8-19.78,4.07-22.63,0,0,.11-17.73,1.73-50.07.76-15.21,5.39-19.74,9.17-27.76l45.73.8c2.27,20.15,1.87,57.52,1.33,78.06-.28,10.47-5.57,62.47-5.68,63.76-.4,4.56,0,6.37,1.78,8.33,3.79,4.09,9.31,8,14.08,11.62-.74,1.78-6.55,1.62-9.41.2A74.49,74.49,0,0,1,241,391.18c-3.92-2.93-8.95-5.31-8.93-9.67a4.39,4.39,0,0,0-.12-.78c0-2.54-5.54-36.17-5.88-44.87-.29-7.49.89-20.17.89-20.17l-3.9-25.81s-2.68,13.4-6,26.13c-2.72,10.36-7.47,24-10.56,36.8h0c-3,14.7-7.21,25.14-8,32.51-.24,1.76-2.63,19-3.56,23s-9.81,3.9-10.25-2.93C184.37,400.83,186.28,386.2,186.49,384Z" style="fill:#ffbda7"></path><path d="M269.2,402.56c.25,0,.6,2.64-.75,3.75-1.55,1.28-6.1,3.38-12.07,2.58s-9.21-2.61-11.58-4.58-5.71-4.73-8.42-5.33c-2.51-.56-5.23-1.68-6-2.44s-.65-4.12-.65-4.12Z" style="fill:#263238"></path><path d="M231.89,379.5s-.45,0-.62.79-.41,3.61-.82,5.13a26.44,26.44,0,0,0-.65,8.15c.31,1.73,4.4,2.95,7,3.94a33.37,33.37,0,0,1,8.45,5.27,25,25,0,0,0,12.58,4.65c6,.13,9.82-1.41,11-3.48,1.5-2.57.35-4.07-6.46-7.2-1.29-.59-5.82-3.24-7.36-4.2a35.09,35.09,0,0,1-4.63-3.4,26.33,26.33,0,0,1-2.07-2,9.56,9.56,0,0,1-1.72-2.16c-.07-.18-.12-.39-.19-.57a9.53,9.53,0,0,1-.44-1.56c-.1-.55-.16-1.36-.7-1.69a4.62,4.62,0,0,0-2.45-.3,19.66,19.66,0,0,0-2.64.34c-1,.21-2.17.29-2.78,1.21a4.76,4.76,0,0,0-.58,2.4c0,.39,0,.78,0,1.17,0,.17.07.47-.17.4s-.48-.65-.56-.85c-.19-.44-.31-.9-.51-1.33a7,7,0,0,0-.84-1.42,6.83,6.83,0,0,0-1.07-1.08,11.59,11.59,0,0,1-1.17-.74A2.64,2.64,0,0,1,231.89,379.5Z" style="fill:#37474f"></path><path d="M263.51,397.27c-8.63.52-11.38,5.67-11.78,8.87a20.61,20.61,0,0,0,6.11,1.29c6,.13,10.07-1.41,11.28-3.48C270.53,401.53,269.6,399.57,263.51,397.27Z" style="fill:#fafafa"></path><path d="M250.59,397.27a.45.45,0,0,1-.27-.1.39.39,0,0,1,0-.57,10.29,10.29,0,0,1,7.81-2.94.41.41,0,0,1,.37.45.4.4,0,0,1-.46.36,9.55,9.55,0,0,0-7.08,2.65A.41.41,0,0,1,250.59,397.27Z" style="fill:#f0f0f0"></path><path d="M246.89,395.14a.37.37,0,0,1-.26-.1.39.39,0,0,1-.06-.57,10.27,10.27,0,0,1,7.82-2.94.42.42,0,0,1,.37.46.43.43,0,0,1-.47.36,9.48,9.48,0,0,0-7.07,2.64A.43.43,0,0,1,246.89,395.14Z" style="fill:#f0f0f0"></path><path d="M243.47,392.71a.41.41,0,0,1-.26-.09.4.4,0,0,1-.06-.58,10.29,10.29,0,0,1,7.82-2.93.41.41,0,0,1,.37.45.41.41,0,0,1-.47.36,9.56,9.56,0,0,0-7.07,2.64A.43.43,0,0,1,243.47,392.71Z" style="fill:#f0f0f0"></path><path d="M240.12,390.29a.43.43,0,0,1-.26-.09.4.4,0,0,1-.06-.58c1.67-2,5.41-3.32,8.53-3a.42.42,0,0,1,.37.46.41.41,0,0,1-.46.35c-2.82-.31-6.31.89-7.79,2.67A.39.39,0,0,1,240.12,390.29Z" style="fill:#f0f0f0"></path><path d="M197.65,411.44c-.32,3.95-1,6.56-2.49,8.85s-4.22,3-7,2.24-6.24-2.6-7-6-1.14-5.77-.44-9.42Z" style="fill:#263238"></path><path d="M186.61,382.63c-1.13.06-1.57,5.36-2.33,10.66-.81,5.69-2.6,8-3.32,12.67-.82,5.32,0,7.72,1.9,11s8.61,6.54,12,2c2.81-3.72,3-7.9,2.85-13.23a116,116,0,0,1,.63-13.49c.3-4,1.29-8,.31-8.46-.09.59-.18,1.33-.27,1.9a9.12,9.12,0,0,1-.41,2.13c-.12.29-.38.6-.47.11a3.29,3.29,0,0,1,0-1c.19-1.47-.57-1.6-1-1.72a48.8,48.8,0,0,0-5.25-.82c-.86-.07-3.86-.25-4.25.22a3.3,3.3,0,0,0-.42,1.54c-.11.8-.31,1.39-.33,1.13,0-.57.1-2.07.12-2.43s.09-.81.1-1.16S186.58,383,186.61,382.63Z" style="fill:#37474f"></path><path d="M180.59,409a13,13,0,0,0,2,8.14c1.86,3.26,9.16,6.56,12.6,2,1.71-2.27,2.21-5,2.49-7.74C195.7,407.84,183.82,406.07,180.59,409Z" style="fill:#fafafa"></path><path d="M195.28,405.6a.39.39,0,0,1-.14-.05,19.87,19.87,0,0,0-10.39-1.16.41.41,0,1,1-.18-.8,20.39,20.39,0,0,1,11,1.23.41.41,0,0,1,.19.55A.46.46,0,0,1,195.28,405.6Z" style="fill:#f0f0f0"></path><path d="M185.08,400.42a.41.41,0,0,1-.08-.8c5.12-1.58,10.72,1,10.93,1.14a.41.41,0,0,1,.17.56.44.44,0,0,1-.57.16c-.05,0-5.51-2.56-10.27-1.08A.37.37,0,0,1,185.08,400.42Z" style="fill:#f0f0f0"></path><path d="M185.33,396.68a.43.43,0,0,1-.35-.28.41.41,0,0,1,.26-.52c5.64-1.85,10.95,1,11.14,1.11a.41.41,0,0,1,.14.57.43.43,0,0,1-.59.12s-5.17-2.75-10.42-1A.55.55,0,0,1,185.33,396.68Z" style="fill:#f0f0f0"></path><path d="M185.68,393a.43.43,0,0,1-.35-.27.4.4,0,0,1,.26-.52c5.28-1.82,11,1.1,11.21,1.22a.41.41,0,0,1,.14.57.42.42,0,0,1-.57.14c-.05,0-5.6-2.85-10.5-1.16A.41.41,0,0,1,185.68,393Z" style="fill:#ebebeb"></path><path d="M196.88,236.37c-1.08,8.62-3.43,15.29-4.46,42.19s-.36,29.17-.53,32.41-2.23,9-4.24,25a161.4,161.4,0,0,0-.63,31s1.13,2.59,7.41,3.25c5.79.61,8.7-1.46,8.7-1.46s8.81-27,11.2-36.56S223,296.32,223,296.32l2.84,19.79s-1.94,8.79-.44,22.83a203.5,203.5,0,0,0,4,24.28,28.36,28.36,0,0,0,9.35,1.79,15.73,15.73,0,0,0,8.12-2.08s5.32-37.43,5.63-53.31-1.3-54.15-2.5-73.25Z" style="fill:#37474f"></path><path d="M188.09,368.12a6.63,6.63,0,0,0,.85.55c-1.12-25.14,2.63-35.5,5-45.07l.63-2.63c1.76-7.49,1.2-12,1.41-24.33.06-3.72.13-7.56.24-11.64.14-4.78.38-9.72.88-14.61,9-.88,11.15-9.5,13.82-20.38.36-1.48.74-3,1.15-4.6l-.8-.19c-.41,1.58-.78,3.12-1.15,4.61-2.68,10.9-4.64,18.81-12.94,19.74,1.2-11.1,3.76-21.82,9.52-29.5l-.67-.47C197.43,251,195.82,269,195.36,285c-.11,4.09-.18,7.94-.24,11.65-.21,12.31.35,16.77-1.39,24.17l-.63,2.63C190.78,333,187.05,343.23,188.09,368.12Zm40.65-99.8-5.76,28,2.84,19.79.43-19,3.88-18.88q.15,2.82.3,5.78c.82,16.26,1.31,28.75.36,32.6-2.6,10.58-2,17.3-1,29.48.11,1.24.22,2.53.33,3.89.57,6.88,1.36,9.68,1.8,14.11l.84.21c-.44-4.42-1.24-7.36-1.82-14.39-.11-1.35-.22-2.65-.33-3.89-1-12.1-1.61-18.77,1-29.22,1-4,.53-15.72-.34-32.83-.16-3.1-.31-6.11-.45-9l.81-3.4c4-.85,10.33-3.68,11.58-8.94A21,21,0,0,1,228.74,268.32Z" style="fill:#263238"></path></g><g id="freepik--top--inject-36"><path d="M307.83,188.08a4,4,0,0,0-2.37-.33,26,26,0,0,0-3.75,1.12c-1.91.55-5,1.47-7,.94-.4-.11-1.19-.45-.53-.83a17.09,17.09,0,0,0,2.52-1.56,3.52,3.52,0,0,0,1.41-2.51,1.22,1.22,0,0,0-.23-.84c-.28-.32-.54-.22-.85-.08a6.93,6.93,0,0,1-1,.34L294,185c-4.06,1.31-8.2,3-11.15,6.18-.42.47-3.21,4.27-4.94,6.38-1.46,2-10.91,11.61-10.91,11.61s-4.68-5.83-8-10.05c-4.76-6-7.39-9.39-9.78-11.63a11.92,11.92,0,0,0-8.06-3.42l.72,25.24s14.27,13.82,16.13,15.5c7,6.33,9.93,5.87,13.68,2.94,4-3.16,6.42-7.39,10.15-15,3.05-6.25,3.81-7.73,4.89-9.63.92-1.63,3.37-1.66,4.68-1.77a19.24,19.24,0,0,0,5.3-1,18.19,18.19,0,0,0,4.33-1.91,5.61,5.61,0,0,0,1.82-1.41,14.08,14.08,0,0,1,.75-1.76c.44-.6,1.16-1,1.53-1.63a7,7,0,0,0,.5-1.69c.24-.91.92-1.31,1.68-1.76a2.79,2.79,0,0,0,1-.77C308.68,188.74,308.32,188.34,307.83,188.08Z" style="fill:#ffbda7"></path><path d="M240.44,183c5.35.74,7.81,2.2,11.24,6.3s11.9,15,11.9,15,.44,4.32-4.44,9c-4.62,4.49-7.91,5.1-7.91,5.1L241,209.36Z" style="fill:#37474f"></path><path d="M267,209.15h0l-1.06-1.33c-2.63,2.86-4.22,7.5-2.83,11.34A15.15,15.15,0,0,1,267,209.15Z" style="fill:#f0997a"></path><path d="M292.12,191a13.15,13.15,0,0,1-5.65,4.57,5.42,5.42,0,0,0,3.66-.95A5.09,5.09,0,0,0,292.12,191Z" style="fill:#f0997a"></path><g id="freepik--Chest--inject-36"><path d="M212.36,179.8,230.1,181l10.34,2s6.71,3.45,9,16.11c1.32,7.18,1.53,48.77,1.53,48.77-5.19,13.46-49.92,12.11-56.41.6,0,0,1.33-9.05,1.83-17.81s-.55-22-.55-22a48.89,48.89,0,0,0,4-8.06c4.47-11.09-.15-19-.15-19Z" style="fill:#fafafa"></path><path d="M212.39,180.52,230,181.69l10.18,2c.74.44,6.49,4.18,8.58,15.56,1.25,6.83,1.5,45.86,1.52,48.51-2.26,5.52-12.61,9.08-26.43,9.08s-25.45-3.48-28.53-8.49c.22-1.53,1.35-9.74,1.81-17.63a201.26,201.26,0,0,0-.54-21.81,51.08,51.08,0,0,0,3.93-8c3.72-9.22,1.35-16.24.26-18.67l11.6-1.74m0-.72-12.64,1.9s4.62,7.88.15,19a48.89,48.89,0,0,1-4,8.06s1.06,13.19.55,22-1.83,17.81-1.83,17.81c3.29,5.84,16.44,9.07,29.27,9.07,12.44,0,24.59-3,27.14-9.67,0,0-.21-41.59-1.53-48.77-2.32-12.66-9-16.11-9-16.11l-10.34-2-17.74-1.18Z" style="fill:#e0e0e0"></path></g><g id="freepik--head--inject-36"><path d="M214.6,172.53c.14-2.08-5.79-5.94-8.69-12.86-3.86-9.21.13-15.68,3.85-16.44,1.79-13.11,23.2-12.33,29.42-5.52,4.21,3.13,7.19,13,4,17.78Z" style="fill:#37474f"></path><path d="M212.62,166.35c-2,.51-4-1-5-2.44-2-2.58-1.54-5.95-.06-7.21a3.59,3.59,0,0,1,4.59-.51c1.86,1.24,2,2.41,2.72,3.77s3,.74,2.13-3.8c4.27-3.57,4-11.06,4.1-13,3.76-3.29,9.52-1.68,10.93.36,1.56-2.3,3.87-3.19,6.35-1.78s4.29,5.22,4.89,14.79c.62,9.75-1.59,16.59-3.87,18.16-1.72,1.2-4.34,1.36-8,1.43l-.44,5.07s5.33,5.08-2.43,6.39A15.93,15.93,0,0,1,214,182.22l1.18-17.67S214.85,165.76,212.62,166.35Z" style="fill:#ffbda7"></path><path d="M228.4,155.34a1.62,1.62,0,0,1-2.08,1,1.67,1.67,0,1,1,2.08-1Z" style="fill:#263238"></path><path d="M237.66,148.15l2.91,2.51a1.86,1.86,0,0,1-2.67.26A2,2,0,0,1,237.66,148.15Z" style="fill:#263238"></path><path d="M237,154.91a1.61,1.61,0,1,0,1.06-2.06A1.64,1.64,0,0,0,237,154.91Z" style="fill:#263238"></path><path d="M223.71,151.12l3.1-2.7a2,2,0,0,1-.13,2.86A2.16,2.16,0,0,1,223.71,151.12Z" style="fill:#263238"></path><path d="M229.38,164.7l3.7.8A1.82,1.82,0,0,1,230.9,167,2,2,0,0,1,229.38,164.7Z" style="fill:#b16668"></path><path d="M231.56,167a3.07,3.07,0,0,0-2.21-1.89A2,2,0,0,0,230.9,167,1.83,1.83,0,0,0,231.56,167Z" style="fill:#f28f8f"></path><polygon points="231.7 152.29 233.25 161.71 238.22 159.38 231.7 152.29" style="fill:#f0997a"></polygon><path d="M231.38,176.07c-3.38-.31-7.64-.94-10-2.75-3.3-2.49-3.79-3.8-4.42-5.61a8.11,8.11,0,0,0,3.78,7.11c3.85,2.64,10.48,3.48,10.48,3.48Z" style="fill:#f0997a"></path></g><path d="M202.07,181.58c-6.4,1.25-8.49,2.4-13.5,7.49S170.82,209,170.82,209s-.59,10.11,13.71,11.88l13.94-12.26a25.62,25.62,0,0,0,5.61-11.31C205.27,190.61,205.13,184.72,202.07,181.58Z" style="fill:#37474f"></path><path d="M206,194.38c3.43-3.31,6-4.92,6.84-6.58,1.5-3,1.08-4.77,1.37-9.81l0-.4c0-.57.07-1.15.11-1.73l.17-2.48.17-2.5.12-1.83c-.31-.06-2.35-1.13-3-1.06a2.89,2.89,0,0,0-2.13,1.36c-.21.4-.2.91-.49,1.25-.53.64-1.62.32-2.31.77-.87.55-.68,1.9-1.28,2.74-.43.6-1.85.8-2.46,1.22a4.38,4.38,0,0,0-2.13,2.56c-1.5,3.86-2.65,7.79-4.15,9.44a40.64,40.64,0,0,1-6.37,5.38c-3.06,2.3-5.21,3.24-13,8.8-3.85,2.76-6.17,4.36-8.76,8.33-2,3.06-2.25,7.63-2,11.28a3.25,3.25,0,0,0,.66,2,8,8,0,0,0,3.61,1.45,17.71,17.71,0,0,0,9.58-1.18,23.52,23.52,0,0,0,7.14-5.72c3.07-3.69,6.07-7.37,9.11-11.67S202.58,197.69,206,194.38Z" style="fill:#ffbda7"></path><path d="M212.83,173.24a2,2,0,0,1,.6.94,26.53,26.53,0,0,1,.87,7.79,8.46,8.46,0,0,1-3.46,7.95,9.25,9.25,0,0,0,2.82-7.95c0-2.22,0-4.44-.24-6.64a4.19,4.19,0,0,0-.59-2.09Z" style="fill:#f0997a"></path><path d="M214.15,179.39l.67-10.34s-.27,1.95-.75,4.41c-.16.82-.68.57-.68.57Z" style="fill:#f0997a"></path></g></g></g><g id="freepik--Knee--inject-36"><g id="freepik--knee--inject-36"><path d="M331.81,238.63a2,2,0,0,0-.84-1.85l-4.37-2.51a2,2,0,0,0-2,.2l-45.29,26.15a6.33,6.33,0,0,0-2.87,5v70.89a2,2,0,0,0,.84,1.86c.48.27,3.89,2.24,4.38,2.51a2,2,0,0,0,2-.21L329,314.49a6.35,6.35,0,0,0,2.86-5Z" style="fill:#263238"></path><path d="M280.8,339V268.09a6.32,6.32,0,0,1,2.86-5L329,237c1.58-.91,2.86-.17,2.86,1.65v70.9a6.35,6.35,0,0,1-2.86,5l-45.29,26.14C282.08,341.55,280.8,340.81,280.8,339Z" style="fill:#455a64"></path><path d="M331,236.78a2,2,0,0,0-2,.2l-45.29,26.15a5.72,5.72,0,0,0-2,2.14l-4.38-2.51a5.9,5.9,0,0,1,2-2.14l45.28-26.14a2,2,0,0,1,2-.21Z" style="fill:#37474f"></path><path d="M312.51,270.51a4.31,4.31,0,0,1-1-1.57c-1.9-4-3.1-8.62-4.8-12.8l-7.08,4.09a88.94,88.94,0,0,1,4.52,13.52c.26,1,.49,2,.68,3A15.24,15.24,0,0,1,305,281c-.14,1.49-.57,3.08-.67,4.54s.25,2.94,1.29,2.81,2.09-1.66,3-2.89c1.7-2.42,4-3.8,5.46-6.48a9.8,9.8,0,0,0,1.25-4.54,3.63,3.63,0,0,0-1.25-3.1C313.59,271,313,270.88,312.51,270.51Z" style="fill:#f5f5f5"></path><path d="M312.74,283.73a7.81,7.81,0,0,0-1.9,2.83,2.9,2.9,0,0,0,.79,3c1.08,1.13,3,2,4.88-.08s2-6.78,2.07-8.95c.09-2.93-1.35-4.67-3.19-.85a18.08,18.08,0,0,1-2.62,4.05Z" style="fill:#00960C"></path><path d="M312.74,283.73a7.81,7.81,0,0,0-1.9,2.83,2.9,2.9,0,0,0,.79,3c1.08,1.13,3,2,4.88-.08s2-6.78,2.07-8.95c.09-2.93-1.35-4.67-3.19-.85a18.08,18.08,0,0,1-2.62,4.05Z" style="fill:#fff;opacity:0.5"></path><path d="M299.45,325.6c0,.19-.06.39-.08.59l3.36-1.94a107.76,107.76,0,0,1,2.36-18.2c.56-2.61,1.32-5.47,2.88-7.58,1.08-1.47,2.56-3,2.44-.37a11.26,11.26,0,0,1-.6,2.61c-2.36,7.61-4.32,15.26-5.87,22.84l3.24-1.87c1.47-6.61,3.21-13.25,5.23-19.87.84-2.77,1.76-5.69,1.62-8.14a1.41,1.41,0,0,0-.21-.8c-.19-.22-.51-.16-.79-.13a3.26,3.26,0,0,1-2.89-1.32c-.55-.61-1.23-2.08-2.22-1.68-.46.19-.94,1.08-1.45,1.28s-1.05-.24-1.66-.1c-.89.21-1.82,2.13-1.5,3.09a4.25,4.25,0,0,0,.54.85c.52.86.39,2.41.22,3.84C303,307.54,300.79,316.68,299.45,325.6Z" style="fill:#f5f5f5"></path><polygon points="249.35 312.35 248.99 311.74 283.75 291.67 284.1 292.29 249.35 312.35" style="fill:#455a64"></polygon><path d="M250.46,312a1.29,1.29,0,1,1-1.29-1.28A1.29,1.29,0,0,1,250.46,312Z" style="fill:#455a64"></path><path d="M249.17,315.55a3.51,3.51,0,1,1,3.51-3.51A3.51,3.51,0,0,1,249.17,315.55Zm0-6.3A2.8,2.8,0,1,0,252,312,2.79,2.79,0,0,0,249.17,309.25Z" style="fill:#00960C"></path><path d="M249.17,318.59a6.55,6.55,0,1,1,6.55-6.55A6.55,6.55,0,0,1,249.17,318.59Zm0-12.38A5.84,5.84,0,1,0,255,312,5.84,5.84,0,0,0,249.17,306.21Z" style="fill:#00960C"></path><path d="M249.17,321.64a9.6,9.6,0,1,1,9.59-9.6A9.61,9.61,0,0,1,249.17,321.64Zm0-18.48a8.88,8.88,0,1,0,8.88,8.88A8.89,8.89,0,0,0,249.17,303.16Z" style="fill:#00960C"></path></g></g><g id="freepik--Hip--inject-36"><g id="freepik--hip--inject-36"><path d="M170.68,280.63a2,2,0,0,0-.83-1.85l-4.38-2.51a2,2,0,0,0-2,.2l-45.29,26.14a6.35,6.35,0,0,0-2.86,5v70.9a2,2,0,0,0,.84,1.85l4.38,2.51a2,2,0,0,0,2-.2l45.29-26.15a6.32,6.32,0,0,0,2.86-5Z" style="fill:#263238"></path><path d="M119.67,381v-70.9a6.32,6.32,0,0,1,2.86-5L167.82,279c1.58-.91,2.86-.17,2.86,1.66v70.89a6.32,6.32,0,0,1-2.86,5l-45.29,26.15C121,383.54,119.67,382.8,119.67,381Z" style="fill:#455a64"></path><path d="M169.85,278.78a2,2,0,0,0-2,.19l-45.29,26.15a5.88,5.88,0,0,0-2,2.14l-4.38-2.51a5.87,5.87,0,0,1,2-2.13l45.29-26.15a2,2,0,0,1,2-.21Z" style="fill:#37474f"></path><path d="M163.59,307.29c-.61-3.45-3.34-6-7.25-.61s-6.66,15-10.44,17.54c-2.39,1.63-5.79-2.72-8.77-3.81s-6.83.17-9.27,10.24-2.08,13.93-.31,15.47c2.46,2.14,5.91.4,8.67-.08s.39,4.39,1.52,7.17,3.9,2.29,5.56-1.33c.33-.73.64-1.45.91-2.13.89-2.19,2.53-3.29,3.52-2.31a6.5,6.5,0,0,0,.74.65c2.07,1.57,5.17-3,5-6.69s-.3-6.31,1.18-8,5.52-2.79,7.63-7.4S164.21,310.75,163.59,307.29Zm-25.06,26a9.06,9.06,0,0,1-1.07,2.87,16.25,16.25,0,0,1-1.39,2.28,6.19,6.19,0,0,1-3.35,2.21,2.16,2.16,0,0,1-1.44,0c-1.81-.85-.61-6.92.14-9.69a13.18,13.18,0,0,1,1.32-3.25,3.31,3.31,0,0,1,.55-.68,2.43,2.43,0,0,1,2.19-.56,2.16,2.16,0,0,1,1.44.79,5.16,5.16,0,0,1,.58,1.38l.69,2.13A5.43,5.43,0,0,1,138.53,333.33Zm4,15.34a2.77,2.77,0,0,1-1.4,1.46,1.82,1.82,0,0,1-1.4-.47,1.42,1.42,0,0,1-.23-1,3.66,3.66,0,0,1,.58-1.38c.56-.9,1.1-1.72,1.6-2.71.4-.76.75-1.33,1.23-1.08C144,344,143.3,347.17,142.52,348.67Zm8.79-4.74c-.48.61-1,1.26-1.52,1.26s-.64-.41-.82-.86a6,6,0,0,1-.38-1.37,4.94,4.94,0,0,1,0-2c.59-2.34,1.93-1.19,2.66-.86S152.32,342.64,151.31,343.93Zm10.05-28.29a38.2,38.2,0,0,1-.73,5.79,6.23,6.23,0,0,1-.63,1.94,1.72,1.72,0,0,1-1.39,1,5,5,0,0,1-3-.92,3.92,3.92,0,0,1-1.91-3,7.94,7.94,0,0,1,.75-2.8c.43-1.1.76-2.27,1.26-3.35a5.81,5.81,0,0,1,1.56-2.15,1.71,1.71,0,0,1,1.59-.3,5.21,5.21,0,0,1,.94.4,2.37,2.37,0,0,1,1.46,1.62A6.75,6.75,0,0,1,161.36,315.64Z" style="fill:#f5f5f5"></path><path d="M135.47,350.39c-1.38-.8-1.68.28-3.69.51s-2.45-1.27-4-1-3.29,5.29-1.19,6.38,2.75,1.05,2.77,2.93-.25,12.91-.25,12.91l5.64-3.26s0-10.16,0-11.45.49-2.22.88-3.87C135.81,352.5,136.19,350.8,135.47,350.39Z" style="fill:#f5f5f5"></path><path d="M155.25,337.62c1.38-2.4,1.24-1.17,3.59-2.86,1.36-1,1.45-2.42,3-4s4.22,1,2.12,4.52-2.58,5.59-2.61,7.51.24,10.51.24,10.51L156,356.55s0-10.18,0-11.5a12.36,12.36,0,0,0-.52-3.91C155.24,340.4,154.53,338.86,155.25,337.62Z" style="fill:#f5f5f5"></path><path d="M145.23,314.72c-2.91,1.68-4.55,1.29-4.93,2.26s-.15,1.71.3,2c1,.62,3.32-.2,4.61-.77a9.59,9.59,0,0,0,3.73-3.1c.72-1.21.68-2.79.28-3.2C148.42,311.92,147.93,313.16,145.23,314.72Z" style="fill:#f5f5f5"></path><path d="M145.23,308.18c-2.91,1.68-4.55,1.29-4.93,2.26s-.15,1.7.3,2c1,.63,3.32-.2,4.61-.76a9.68,9.68,0,0,0,3.73-3.1c.72-1.22.68-2.8.28-3.21C148.42,305.37,147.93,306.62,145.23,308.18Z" style="fill:#f5f5f5"></path><path d="M145.23,301.63c-2.91,1.68-4.55,1.29-4.93,2.26s-.15,1.71.3,2c1,.62,3.32-.2,4.61-.77a9.59,9.59,0,0,0,3.73-3.1c.72-1.21.68-2.79.28-3.2C148.42,298.83,147.93,300.07,145.23,301.63Z" style="fill:#f5f5f5"></path><path d="M164,335.27c2.1-3.51-.52-6.11-2.12-4.52s-1.69,3-3,4c-2.35,1.69-2.21.46-3.59,2.86-.72,1.24,0,2.78.23,3.52a12.36,12.36,0,0,1,.52,3.91c0,.24,0,.76,0,1.45,1,.25,2.15-.49,3-1.23s1.62-1.44,2.41-2.2v-.29C161.43,340.86,161.91,338.78,164,335.27Z" style="fill:#00960C"></path><path d="M164,335.27c2.1-3.51-.52-6.11-2.12-4.52s-1.69,3-3,4c-2.35,1.69-2.21.46-3.59,2.86-.72,1.24,0,2.78.23,3.52a12.36,12.36,0,0,1,.52,3.91c0,.24,0,.76,0,1.45,1,.25,2.15-.49,3-1.23s1.62-1.44,2.41-2.2v-.29C161.43,340.86,161.91,338.78,164,335.27Z" style="fill:#fff;opacity:0.5"></path><path d="M142.37,296.91h-.72V279.79a5.33,5.33,0,0,1,2.66-4.6l52.55-30.34.36.62-52.56,30.34a4.61,4.61,0,0,0-2.29,4Z" style="fill:#455a64"></path><path d="M198.33,245.16a1.29,1.29,0,1,1-1.29-1.29A1.29,1.29,0,0,1,198.33,245.16Z" style="fill:#455a64"></path><path d="M197,248.67a3.51,3.51,0,1,1,3.51-3.51A3.51,3.51,0,0,1,197,248.67Zm0-6.31a2.8,2.8,0,1,0,2.79,2.8A2.81,2.81,0,0,0,197,242.36Z" style="fill:#00960C"></path><path d="M197,251.71a6.55,6.55,0,1,1,6.55-6.55A6.56,6.56,0,0,1,197,251.71Zm0-12.39a5.84,5.84,0,1,0,5.84,5.84A5.85,5.85,0,0,0,197,239.32Z" style="fill:#00960C"></path><path d="M197,254.75a9.6,9.6,0,1,1,9.59-9.59A9.61,9.61,0,0,1,197,254.75Zm0-18.47a8.88,8.88,0,1,0,8.88,8.88A8.89,8.89,0,0,0,197,236.28Z" style="fill:#00960C"></path></g></g><g id="freepik--Spine--inject-36"><g id="freepik--spine--inject-36"><path d="M161.38,159.41a2,2,0,0,0-.84-1.85l-4.37-2.51a2,2,0,0,0-2,.2L108.86,181.4a6.32,6.32,0,0,0-2.86,5v70.89a2,2,0,0,0,.84,1.86l4.38,2.51a2,2,0,0,0,2-.21l45.29-26.14a6.35,6.35,0,0,0,2.86-5Z" style="fill:#263238"></path><path d="M110.37,259.76V188.87a6.32,6.32,0,0,1,2.86-5l45.29-26.15c1.58-.91,2.86-.17,2.86,1.65v70.9a6.35,6.35,0,0,1-2.86,5l-45.29,26.14C111.65,262.33,110.37,261.59,110.37,259.76Z" style="fill:#455a64"></path><path d="M160.54,157.56a2,2,0,0,0-2,.2l-45.29,26.15a5.72,5.72,0,0,0-2,2.14l-4.38-2.51a5.9,5.9,0,0,1,2-2.14l45.28-26.14a2,2,0,0,1,2-.21Z" style="fill:#37474f"></path><path d="M132.84,186.47a7.11,7.11,0,0,0,1.72-1.35A9.66,9.66,0,0,1,137,183.5a5.27,5.27,0,0,0,1.34-.71,2.8,2.8,0,0,0,1-1.63c.1-.6-.09-1.15.18-1.73a1.4,1.4,0,0,1,1.19-.86c.16,0,.31.07.48.07a.93.93,0,0,0,.73-.44,2.15,2.15,0,0,0,.37-1,3.71,3.71,0,0,0-.07-1,1,1,0,0,0-.22-.62c-.18-.17-.48-.05-.75.14s-.54.47-.81.65-.74.34-.84,0,.24-1,0-1.38a.35.35,0,0,0-.36-.13,3.55,3.55,0,0,0-1.32.78,10.46,10.46,0,0,1-2.12,1.26c-.41.18-.83.32-1.25.55a3.84,3.84,0,0,0-.58.38,3.78,3.78,0,0,0-1.35,2.23,4.87,4.87,0,0,0,0,1.08,8.06,8.06,0,0,1-.29,2.28c-.14.52-.33,1-.43,1.55C131.73,186.07,132.05,186.8,132.84,186.47Z" style="fill:#f5f5f5"></path><path d="M130.93,197.13a3.09,3.09,0,0,0,1.73-.93,24.3,24.3,0,0,1,2.33-1.82,18.72,18.72,0,0,0,1.63-1.25,3.55,3.55,0,0,0,1.12-1.64c.18-.62.09-1.25.3-1.86s.58-.7.88-1a1,1,0,0,1,.65-.3,1.22,1.22,0,0,0,.73-.41,2.25,2.25,0,0,0,.46-1,2.87,2.87,0,0,0,0-1,1.23,1.23,0,0,0-.26-.68c-.17-.17-.45-.12-.71,0a6.92,6.92,0,0,0-.84.66c-.28.22-.72.45-.85.25s0-.66-.21-1c-.11-.16-.17-.37-.37-.37-.36,0-.77.36-1.17.65-.67.5-1.34.93-2,1.36-.49.31-1,.65-1.5,1a8.43,8.43,0,0,0-.77.6,4.08,4.08,0,0,0-1.22,2,4.65,4.65,0,0,0-.21,1.5,9.61,9.61,0,0,1-.16,2c-.08.55-.16,1.12-.25,1.72C130.06,196.56,130.3,197.17,130.93,197.13Z" style="fill:#f5f5f5"></path><path d="M129.4,208.76c.39.35,1,.18,1.75-.49s1.51-1.36,2.23-2,1.25-1.19,1.92-1.79a4.67,4.67,0,0,0,1.24-1.65,11.86,11.86,0,0,0,.42-2,2.35,2.35,0,0,1,.56-1.24,1.43,1.43,0,0,1,.83-.65,1.66,1.66,0,0,0,.72-.39,2.36,2.36,0,0,0,.56-1,2.67,2.67,0,0,0,0-1.09,1.48,1.48,0,0,0-.3-.72.55.55,0,0,0-.67-.09,3.37,3.37,0,0,0-.88.67c-.28.27-.68.56-.86.5s-.21-.28-.44-.58-.14-.6-.39-.62-.67.28-1,.52c-.65.47-1.28.95-1.89,1.46s-1.15,1-1.75,1.46c-.32.26-.65.53-1,.82a3.52,3.52,0,0,0-1.08,1.67,3.74,3.74,0,0,0-.43,1.92,15.27,15.27,0,0,1,0,1.79c0,.61,0,1.22-.09,1.9C128.77,208,128.9,208.73,129.4,208.76Z" style="fill:#00960C"></path><path d="M128.35,219c-.07.8,0,1.49.34,1.7.3.64.95.68,1.77-.08a27.79,27.79,0,0,0,2.12-2.22c.71-.8,1.44-1.61,2.21-2.33a6,6,0,0,0,1.36-1.67,6.23,6.23,0,0,0,.55-2.1,4,4,0,0,1,.25-1.43,1.93,1.93,0,0,1,1-1,2.38,2.38,0,0,0,.71-.36,2.26,2.26,0,0,0,.66-1,2.4,2.4,0,0,0,.05-1.15,1.87,1.87,0,0,0-.35-.78.58.58,0,0,0-.62-.21,2.38,2.38,0,0,0-.92.69,3.3,3.3,0,0,1-.86.74.53.53,0,0,1-.69-.17c-.2-.23-.09-.81-.41-.87s-.56.19-.85.4a15.08,15.08,0,0,0-1.78,1.55c-.65.65-1.31,1.33-2,1.92-.39.33-.78.68-1.16,1a3.61,3.61,0,0,0-.94,1.38,4.08,4.08,0,0,0-.64,2.35c.05.52.07,1.05.11,1.54A10.78,10.78,0,0,1,128.35,219Z" style="fill:#00960C"></path><path d="M128.35,219c-.07.8,0,1.49.34,1.7.3.64.95.68,1.77-.08a27.79,27.79,0,0,0,2.12-2.22c.71-.8,1.44-1.61,2.21-2.33a6,6,0,0,0,1.36-1.67,6.23,6.23,0,0,0,.55-2.1,4,4,0,0,1,.25-1.43,1.93,1.93,0,0,1,1-1,2.38,2.38,0,0,0,.71-.36,2.26,2.26,0,0,0,.66-1,2.4,2.4,0,0,0,.05-1.15,1.87,1.87,0,0,0-.35-.78.58.58,0,0,0-.62-.21,2.38,2.38,0,0,0-.92.69,3.3,3.3,0,0,1-.86.74.53.53,0,0,1-.69-.17c-.2-.23-.09-.81-.41-.87s-.56.19-.85.4a15.08,15.08,0,0,0-1.78,1.55c-.65.65-1.31,1.33-2,1.92-.39.33-.78.68-1.16,1a3.61,3.61,0,0,0-.94,1.38,4.08,4.08,0,0,0-.64,2.35c.05.52.07,1.05.11,1.54A10.78,10.78,0,0,1,128.35,219Z" style="fill:#fff;opacity:0.5"></path><path d="M130.48,199.85a3.58,3.58,0,0,0-1.07,1.67,3.74,3.74,0,0,0-.43,1.92,15.27,15.27,0,0,1,0,1.79c0,.61,0,1.22-.09,1.9-.1.9,0,1.6.53,1.63.39.35,1,.18,1.75-.49s1.51-1.36,2.23-2,1.25-1.19,1.92-1.79a4.67,4.67,0,0,0,1.24-1.65,11.86,11.86,0,0,0,.42-2,2.35,2.35,0,0,1,.56-1.24,1.43,1.43,0,0,1,.83-.65,1.66,1.66,0,0,0,.72-.39,2.36,2.36,0,0,0,.56-1,2.67,2.67,0,0,0,0-1.09,1.48,1.48,0,0,0-.3-.72.55.55,0,0,0-.67-.09,3.37,3.37,0,0,0-.88.67c-.28.27-.68.56-.86.5s-.21-.28-.44-.58-.14-.6-.39-.62-.67.28-1,.52c-.65.47-1.28.95-1.89,1.46s-1.15,1-1.75,1.46C131.13,199.29,130.8,199.56,130.48,199.85Z" style="fill:#fff;opacity:0.5"></path><path d="M135.22,227.49a8.61,8.61,0,0,0,1.48-1.68,4.5,4.5,0,0,0,.67-2.22c0-.65-.25-1-.06-1.63a2.35,2.35,0,0,1,1.17-1.37,3.69,3.69,0,0,0,.7-.33,2.14,2.14,0,0,0,.76-1A2.26,2.26,0,0,0,140,218a2.16,2.16,0,0,0-.39-.82.64.64,0,0,0-.57-.33,1.81,1.81,0,0,0-1,.7,10.18,10.18,0,0,1-.88,1c-.26.23-.67.51-.92.23s-.07-1-.43-1.11c-.2-.06-.46.1-.69.26a9.35,9.35,0,0,0-1.67,1.66,30,30,0,0,1-2.24,2.37c-.45.42-.91.82-1.35,1.26a5.21,5.21,0,0,0-.81,1.1,5.06,5.06,0,0,0-.86,2.77,11.49,11.49,0,0,0,.26,1.3,7.54,7.54,0,0,1,.24,2.26,4.91,4.91,0,0,0,.16,1.76c.29.84.88,1.18,1.78.35a18.44,18.44,0,0,0,2-2.42A23.56,23.56,0,0,1,135.22,227.49Z" style="fill:#f5f5f5"></path><path d="M143.45,226.36a2.78,2.78,0,0,0-.43-.88c-.14-.2-.3-.42-.53-.43s-.69.31-1,.7-.57.86-.88,1.24-.91.9-1.17.64,0-1.2-.45-1.37a.62.62,0,0,0-.53.15,7.28,7.28,0,0,0-1.56,1.75,23,23,0,0,1-2.48,2.83c-.51.49-1,.95-1.54,1.48a7.59,7.59,0,0,0-.67.81,5,5,0,0,0-1.08,3.19,4,4,0,0,0,.39,1.05,6.11,6.11,0,0,1,.42,2.45c0,.6-.09,1.25,0,1.82.11,1.23.81,1.69,1.8.78a15.25,15.25,0,0,0,1.91-2.62,20,20,0,0,1,2.79-3.42,11.84,11.84,0,0,0,1.6-1.7,3.81,3.81,0,0,0,.8-2.34c-.08-.66-.55-1.05-.38-1.82a2.83,2.83,0,0,1,1.34-1.73c.24-.12.47-.17.7-.3a2.13,2.13,0,0,0,.86-1A2.2,2.2,0,0,0,143.45,226.36Z" style="fill:#f5f5f5"></path><polygon points="159.57 200.32 159.21 199.7 208.44 171.28 208.8 171.89 159.57 200.32" style="fill:#455a64"></polygon><circle cx="208.62" cy="171.58" r="1.29" style="fill:#455a64"></circle><path d="M208.62,175.09a3.51,3.51,0,1,1,3.51-3.51A3.51,3.51,0,0,1,208.62,175.09Zm0-6.3a2.8,2.8,0,1,0,2.8,2.79A2.79,2.79,0,0,0,208.62,168.79Z" style="fill:#00960C"></path><path d="M208.62,178.13a6.55,6.55,0,1,1,6.55-6.55A6.55,6.55,0,0,1,208.62,178.13Zm0-12.38a5.84,5.84,0,1,0,5.84,5.83A5.84,5.84,0,0,0,208.62,165.75Z" style="fill:#00960C"></path><path d="M208.62,181.18a9.6,9.6,0,1,1,9.6-9.6A9.61,9.61,0,0,1,208.62,181.18Zm0-18.48a8.88,8.88,0,1,0,8.88,8.88A8.9,8.9,0,0,0,208.62,162.7Z" style="fill:#00960C"></path></g></g></svg>
